<?xml version="1.0" encoding="utf-8"?>
<svg fill="#000000" width="800px" height="800px" version="1.1" viewBox="144 144 512 512" xmlns="http://www.w3.org/2000/svg">
  <path d="M 608.99 238.08 L 584.611 191.85 C 581.838 186.588 574.912 184.334 569.552 187.01 C 554.427 194.588 511.767 215.971 494.747 224.537 C 479.602 232.158 461.52 260.342 449.017 282.646 C 444.048 291.502 443.158 302.076 446.572 311.666 L 447.29 313.682 C 451.22 324.702 449.564 337.006 442.872 346.604 L 422.841 375.295 C 407.083 397.873 374.325 403.455 370.638 404.014 C 365.33 404.826 349.06 405.272 324.829 405.272 C 319.267 405.272 314.407 405.248 311.087 405.225 C 310.083 405.217 309.173 404.662 308.693 403.776 L 303.638 394.361 C 300.248 388.045 292.181 385.174 285.54 387.928 C 271.54 393.76 237.298 408.045 221.864 414.658 C 198.895 424.502 197.302 445.67 197.653 468.349 C 197.833 480.267 194.02 488.419 190.79 493.161 C 187.438 498.083 187.692 504.501 191.423 509.122 C 204.419 525.216 212.532 539.212 216.22 546.126 C 218.333 550.091 220.989 553.72 224.11 556.911 L 252.301 585.723 C 256.223 589.727 262.02 591.617 267.645 590.555 L 308.02 582.985 C 309.575 582.695 311.141 583.289 312.11 584.492 C 316.86 590.403 320.501 597.012 322.934 604.14 C 324.969 610.101 330.563 614.105 336.848 614.105 C 340.653 614.105 344.262 612.625 347.012 609.941 L 389.285 568.632 C 391.879 566.093 394.277 563.3 396.41 560.327 C 404.441 549.112 424.281 521.612 434.98 508.546 C 439.109 503.507 445.25 500.953 453.238 500.953 C 456.449 500.953 459.859 501.363 463.363 502.171 C 469.078 503.499 475.285 501.093 478.683 496.238 L 592.32 333.44 C 595.64 328.678 596.859 322.917 595.741 317.21 C 594.628 311.518 591.335 306.651 586.468 303.503 C 580.843 299.858 574.796 296.311 568.507 292.956 C 567.882 292.62 567.757 292.065 567.737 291.761 C 567.718 291.389 567.804 290.87 568.355 290.483 L 602.05 266.799 C 611.241 260.362 614.218 248.006 608.987 238.076 L 608.99 238.08 Z M 596.185 258.455 L 562.49 282.139 C 559.146 284.487 557.302 288.323 557.552 292.401 C 557.802 296.479 560.099 300.061 563.709 301.987 C 569.748 305.206 575.541 308.608 580.932 312.092 C 583.447 313.721 585.151 316.24 585.725 319.19 C 586.307 322.147 585.674 325.135 583.947 327.604 L 470.307 490.394 C 469.264 491.882 467.413 492.624 465.659 492.226 C 461.405 491.241 457.225 490.745 453.237 490.745 C 442.198 490.745 433.151 494.667 427.077 502.085 C 416.186 515.382 396.19 543.097 388.104 554.39 C 386.323 556.878 384.319 559.211 382.143 561.336 L 339.873 602.645 C 338.807 603.684 337.639 603.898 336.842 603.898 C 335.365 603.898 333.369 603.102 332.604 600.848 C 329.787 592.594 325.572 584.942 320.073 578.102 C 317.315 574.668 313.209 572.703 308.803 572.703 C 307.916 572.703 307.021 572.781 306.135 572.949 L 265.76 580.52 C 263.51 580.945 261.174 580.188 259.603 578.582 L 231.412 549.77 C 228.967 547.27 226.889 544.426 225.233 541.321 C 221.381 534.087 212.897 519.454 199.374 502.704 C 198.491 501.61 198.432 500.087 199.229 498.915 C 203.296 492.954 208.089 482.786 207.87 468.196 C 207.499 444.196 210.19 430.778 225.886 424.048 C 241.281 417.454 275.48 403.185 289.472 397.36 C 291.366 396.563 293.671 397.395 294.64 399.2 L 299.687 408.606 C 301.933 412.789 306.273 415.411 311.015 415.442 C 314.359 415.465 319.241 415.489 324.827 415.489 C 350.272 415.489 366.206 415.024 372.175 414.114 C 376.304 413.485 413.019 407.207 431.214 381.141 L 451.245 352.45 C 459.823 340.153 461.944 324.38 456.905 310.251 L 456.186 308.235 C 453.76 301.434 454.397 293.93 457.917 287.645 C 474.366 258.305 489.464 238.629 499.331 233.661 C 516.351 225.099 558.999 203.723 574.597 196.028 C 574.917 196.028 575.339 196.18 575.565 196.61 L 599.944 242.844 C 602.792 248.235 601.175 254.949 596.183 258.453 L 596.185 258.455 Z"/>
</svg>