<?xml version="1.0" encoding="utf-8"?>
<svg fill="#000000" width="800px" height="800px" version="1.1" viewBox="144 144 512 512" xmlns="http://www.w3.org/2000/svg">
  <path d="M 611.96 499.81 L 478.89 284.27 C 474.867 277.754 467.898 273.872 460.242 273.872 C 452.625 273.872 445.676 277.735 441.66 284.208 C 432.398 299.142 424.57 314.396 418.398 329.544 C 413.281 342.103 412.765 352.853 416.812 362.403 C 424.527 380.602 447.621 389.88 469.957 398.856 L 474.078 400.516 C 490.672 407.223 497.031 424.125 499.445 437.121 C 500.168 441 499.129 444.961 496.609 447.996 C 494.086 451.027 490.379 452.77 486.433 452.77 L 294.113 452.77 C 291.75 452.77 289.367 452.652 287.031 452.418 L 256.09 449.301 L 261.325 440.699 C 266.383 432.387 276.442 427.84 286.071 429.582 C 300.04 432.11 320.106 435.375 336.348 436.59 C 350.536 437.656 370.899 439.071 387.797 440.227 C 388.133 440.25 388.465 440.262 388.789 440.262 L 388.793 440.262 C 394.719 440.262 399.887 436.422 401.656 430.715 C 403.449 424.934 401.375 418.981 396.378 415.555 L 347.069 381.754 C 340.023 376.922 336.046 368.633 336.69 360.113 L 337.425 350.418 C 338.53 335.801 330.128 322.324 316.515 316.875 L 305.515 312.476 C 302.644 311.328 300.027 309.527 297.929 307.273 L 254.374 260.476 C 250.694 256.519 245.729 254.34 240.394 254.34 C 230.882 254.34 222.878 261.129 221.363 270.481 L 194.672 435.071 C 192.543 448.192 194.563 461.419 200.512 473.313 L 205.789 483.883 C 208.191 488.683 207.285 494.492 203.523 498.328 L 189.117 513.043 C 185.922 516.312 185 521.148 186.774 525.363 C 188.543 529.577 192.645 532.304 197.215 532.304 L 563.611 532.3 C 574.314 532.3 585.119 529.941 594.853 525.48 L 605.701 520.503 C 609.462 518.78 612.306 515.523 613.505 511.566 C 614.701 507.612 614.138 503.323 611.962 499.808 L 611.96 499.81 Z M 603.683 508.599 C 603.331 509.759 602.53 510.677 601.425 511.181 L 590.57 516.158 C 582.172 520.009 572.843 522.044 563.605 522.044 L 197.215 522.044 C 197.039 522.044 196.504 522.044 196.223 521.384 C 196.043 520.947 196.117 520.556 196.449 520.22 L 210.859 505.505 C 217.676 498.54 219.328 488.005 214.965 479.294 L 209.687 468.728 C 204.707 458.767 203.016 447.697 204.801 436.712 L 231.492 272.112 C 232.328 266.94 236.695 264.585 240.398 264.585 C 242.132 264.585 244.664 265.085 246.863 267.448 L 290.418 314.245 C 293.539 317.601 297.441 320.276 301.707 321.987 L 312.711 326.386 C 322.14 330.159 327.969 339.499 327.199 349.628 L 326.464 359.319 C 325.543 371.475 331.218 383.307 341.269 390.198 L 390.578 423.999 C 392.375 425.234 392.074 426.976 391.86 427.663 C 391.688 428.21 390.973 429.984 388.52 429.984 L 388.5 429.984 C 371.621 428.827 351.293 427.413 337.121 426.351 C 321.312 425.163 301.629 421.956 287.898 419.476 C 274.136 416.976 259.785 423.487 252.562 435.355 L 247.332 443.952 C 245.48 446.984 245.32 450.695 246.906 453.878 C 248.488 457.062 251.543 459.171 255.078 459.523 L 286.012 462.617 C 288.688 462.886 291.41 463.019 294.117 463.019 L 486.437 463.019 C 493.437 463.019 500.027 459.933 504.503 454.546 C 508.976 449.163 510.816 442.128 509.539 435.241 C 505.402 412.987 494.473 397.682 477.93 390.995 L 473.781 389.327 C 453.39 381.136 432.308 372.663 426.261 358.393 C 423.331 351.483 423.867 343.311 427.898 333.409 C 433.859 318.792 441.421 304.054 450.375 289.608 C 452.508 286.171 456.195 284.12 460.242 284.12 C 464.312 284.12 468.027 286.19 470.164 289.651 L 603.234 505.201 C 603.871 506.232 604.031 507.439 603.679 508.6 L 603.683 508.599 Z"/>
</svg>