<?xml version="1.0" encoding="utf-8"?>
<svg fill="#000000" width="800px" height="800px" version="1.1" viewBox="144 144 512 512" xmlns="http://www.w3.org/2000/svg">
  <path d="M 527.33 499.64 L 417.76 390.07 C 412.733 385.043 412.073 377.183 416.198 371.39 L 458.409 312.093 C 466.057 301.347 467.655 287.64 462.666 275.421 L 455.694 258.347 C 452.53 250.609 448.073 243.554 442.448 237.378 L 411.655 203.597 C 405.401 196.742 397.397 192.011 388.503 189.921 C 377.073 187.237 366.409 185.874 356.812 185.874 C 353.964 185.874 351.554 185.995 349.597 186.163 C 344.855 186.569 340.37 188.667 336.968 192.073 L 272.507 256.53 C 255.675 273.362 254.288 299.995 269.284 318.483 L 369.604 442.163 C 377.897 452.39 387.432 461.597 397.94 469.522 C 418.061 484.698 453.256 511.542 462.94 520.838 C 466.995 524.733 468.589 529.26 467.682 534.299 C 466.323 541.842 459.421 549.51 450.498 553.373 C 434.439 560.334 402.471 560.334 383.365 560.334 C 370.611 560.334 346.193 555.803 332.775 553.1 C 325.896 551.717 320.869 545.701 320.818 538.799 C 320.689 521.022 326.154 498.412 331.341 488.447 C 335.615 480.228 344.65 460.099 336.318 450.728 C 332.638 446.583 327.318 444.111 322.091 444.111 C 317.36 444.111 310.388 446.083 304.056 455.486 C 294.228 470.072 277.665 506.681 271.618 521.138 C 264.376 538.458 261.399 569.509 274.645 582.755 C 280.219 588.333 288.622 593.06 299.614 596.802 C 306.395 599.106 313.591 600.325 321.009 600.427 C 330.705 600.556 350.138 600.766 371.357 600.766 C 372.631 600.766 436.912 600.032 451.119 598.872 C 494.439 595.341 521.412 570.681 530.998 560.243 C 534.376 556.567 537.021 551.844 538.865 546.212 C 544.201 529.935 539.779 512.087 527.326 499.634 L 527.33 499.64 Z M 529.662 543.206 C 528.252 547.518 526.299 551.046 523.865 553.698 C 515.053 563.296 490.24 585.971 450.334 589.225 C 435.389 590.44 408.08 591.084 371.365 591.084 C 350.197 591.084 330.814 590.87 321.146 590.745 C 314.752 590.659 308.556 589.616 302.748 587.635 C 296.162 585.393 287.131 581.537 281.506 575.908 C 271.916 566.318 274.545 539.279 280.569 524.877 C 287.17 509.092 303.198 474.119 312.096 460.9 C 314.275 457.666 317.783 453.802 322.096 453.802 C 325.045 453.802 327.635 455.541 329.084 457.17 C 331.076 459.408 330.424 469.209 322.748 483.982 C 317.053 494.931 310.99 519.029 311.135 538.873 C 311.217 550.338 319.514 560.314 330.869 562.603 C 347.689 565.989 370.455 570.025 383.369 570.025 C 404.506 570.025 436.451 570.025 454.353 562.267 C 466.31 557.087 475.283 546.787 477.224 536.021 C 478.701 527.829 476.013 519.959 469.654 513.853 C 459.611 504.212 424.072 477.099 403.783 461.794 C 393.9 454.341 384.935 445.685 377.135 436.067 L 276.815 312.387 C 264.96 297.762 266.053 276.699 279.366 263.387 L 343.827 198.926 C 345.62 197.137 347.959 196.031 350.428 195.824 C 352.163 195.676 354.291 195.57 356.819 195.57 C 365.674 195.57 375.592 196.844 386.292 199.363 C 393.268 201.004 399.565 204.731 404.499 210.136 L 435.292 243.917 C 440.151 249.249 444.003 255.339 446.733 262.022 L 453.705 279.092 C 457.428 288.217 456.241 298.455 450.526 306.479 L 408.315 365.776 C 401.432 375.44 402.53 388.538 410.916 396.924 L 520.486 506.494 C 530.185 516.194 533.791 530.607 529.666 543.205 L 529.662 543.206 Z"/>
</svg>