<?xml version="1.0" encoding="utf-8"?>
<svg fill="#000000" width="800px" height="800px" version="1.1" viewBox="144 144 512 512" xmlns="http://www.w3.org/2000/svg">
  <path d="M 612.3 194.41 C 609.218 190.281 602.753 189.496 598.816 192.933 C 493.486 284.578 409.666 332.093 328.606 378.033 L 327.18 378.842 C 324.536 380.338 322.879 383.049 322.75 386.092 C 322.625 389.158 324.059 392.018 326.594 393.748 C 336.555 400.545 344.555 405.529 350.981 409.537 C 360.38 415.397 366.305 419.088 369.961 423.217 L 357.899 428.604 C 356.571 429.198 355.388 429.498 354.376 429.498 C 353.145 429.498 351.45 429.1 349.266 425.991 L 344.723 419.518 C 343.352 417.569 341.477 416.034 339.298 415.077 L 327.587 409.92 C 324.641 408.62 321.286 408.456 318.231 409.467 L 306.899 413.202 C 303.813 414.213 301.583 416.725 300.934 419.909 C 300.29 423.065 301.395 426.346 303.821 428.467 C 310.602 434.409 317.829 439.244 324.817 443.916 C 332.598 449.123 339.958 454.045 345.055 459.549 C 346.055 461.303 350.703 470.225 349.782 482.33 C 349.637 484.229 348.879 486.1 347.653 487.596 C 344.247 491.756 337.719 499.373 332.313 503.662 C 331.297 504.47 330.133 505.041 328.852 505.365 C 326.129 506.048 320.551 507.197 313.758 507.197 C 310.664 507.197 307.617 506.963 304.691 506.494 C 303.699 506.334 302.672 505.939 301.637 505.322 L 254.461 477.103 C 248.867 473.759 241.164 474.861 236.734 479.622 L 188.726 531.2 C 186.187 533.927 185.265 537.696 186.265 541.286 C 187.261 544.876 189.995 547.63 193.577 548.657 L 404.155 608.884 C 404.952 609.111 405.772 609.228 406.585 609.228 L 406.589 609.228 C 409.776 609.228 412.71 607.463 414.237 604.619 C 415.768 601.775 415.612 598.459 413.819 595.748 C 408.979 588.427 400.952 577.314 390.198 565.924 C 374.577 549.377 372.581 536.666 383.315 522.049 C 391.956 510.283 404.495 493.947 411.202 485.256 C 413.695 482.029 415.077 478.166 415.202 474.08 L 415.667 459.08 C 415.831 453.767 418.214 448.705 422.202 445.193 L 422.913 444.568 C 430.253 438.103 433.374 428.181 431.058 418.677 L 427.702 404.904 C 427.23 402.97 427.531 400.935 428.542 399.169 C 431.152 394.634 436.562 386.196 443.499 380.646 C 445.066 379.396 447.175 378.705 449.445 378.705 L 476.136 379.986 L 477.089 380.01 C 485.335 380.01 492.749 374.795 495.542 367.041 L 503.85 343.963 C 505.428 339.576 509.624 336.634 514.288 336.634 C 516.222 336.634 518.062 337.127 519.765 338.103 L 527.398 342.467 C 530.566 344.275 534.675 344.092 537.66 342.006 L 577.672 314.108 C 580.238 312.315 582.141 309.674 583.031 306.666 L 613.73 202.526 C 614.554 199.698 614.035 196.741 612.297 194.417 L 612.3 194.41 Z M 573.476 303.84 C 573.226 304.688 572.687 305.434 571.968 305.934 L 532.335 333.813 L 524.706 329.449 C 521.523 327.633 517.921 326.668 514.284 326.668 C 505.433 326.668 497.472 332.258 494.479 340.578 L 486.171 363.656 C 484.8 367.469 481.159 370.031 476.647 370.031 L 476.616 370.031 L 450.468 368.762 L 449.441 368.738 C 444.921 368.738 440.601 370.203 437.277 372.859 C 429.472 379.106 423.523 387.906 419.91 394.195 C 417.617 398.188 416.949 402.82 418.027 407.25 L 421.382 421.023 C 422.82 426.918 420.882 433.074 416.332 437.082 L 415.621 437.707 C 409.574 443.032 405.96 450.703 405.714 458.758 L 405.25 473.758 C 405.187 475.735 404.523 477.602 403.324 479.161 C 396.589 487.887 383.992 504.294 375.293 516.145 C 361.633 534.747 364.074 552.731 382.965 572.747 C 391.906 582.216 398.875 591.493 403.582 598.349 L 196.322 539.079 C 196.236 539.055 195.962 538.977 195.861 538.614 C 195.759 538.255 195.955 538.051 196.017 537.981 L 244.029 486.407 C 244.838 485.54 245.982 485.044 247.166 485.044 C 247.935 485.044 248.693 485.255 249.357 485.653 L 296.529 513.868 C 298.654 515.138 300.873 515.966 303.123 516.325 C 306.564 516.876 310.142 517.153 313.756 517.153 C 321.225 517.153 327.404 515.993 331.276 515.02 C 333.94 514.349 336.37 513.153 338.503 511.458 C 344.323 506.833 350.878 499.36 355.351 493.903 C 357.897 490.797 359.401 487.055 359.706 483.087 C 360.999 466.149 353.577 454.364 353.261 453.872 L 352.761 453.22 C 346.827 446.661 338.823 441.306 330.351 435.638 C 324.089 431.45 317.628 427.126 311.687 422.099 L 321.343 418.915 C 322.073 418.681 322.859 418.716 323.57 419.024 L 335.289 424.185 C 335.808 424.411 336.249 424.778 336.578 425.239 L 341.117 431.708 C 346.41 439.243 353.738 441.364 361.957 437.689 L 375.152 431.798 C 377.82 430.603 379.718 428.407 380.367 425.767 C 381.023 423.087 380.331 420.204 378.468 417.861 C 373.878 412.072 367.241 407.939 356.245 401.088 C 350.23 397.338 342.827 392.724 333.737 386.568 C 414.671 340.693 498.357 293.22 603.467 202.068 L 573.476 303.84 Z"/>
</svg>