<?xml version="1.0" encoding="utf-8"?>
<svg fill="#000000" width="800px" height="800px" version="1.1" viewBox="144 144 512 512" xmlns="http://www.w3.org/2000/svg">
  <path d="M 610.93 211.54 C 606.348 205.841 597.621 204.36 591.422 208.458 L 193.678 471.601 C 188.412 475.081 185.447 481.163 185.928 487.472 C 186.416 493.796 190.127 499.148 195.861 501.781 C 209.47 508.031 226.142 503.214 243.834 487.629 C 244.924 486.668 246.139 485.48 247.444 484.203 C 251.077 480.641 256.565 475.254 260.174 475.254 C 260.646 475.254 262.088 475.254 264.064 478.203 C 271.342 489.078 266.857 501.496 258.318 507.215 C 253.537 510.414 250.424 511.266 246.822 512.258 C 243.057 513.293 238.779 514.465 233.006 518.332 C 224.721 523.875 225.182 535.082 234.284 549.086 C 235.827 551.45 237.643 553.551 239.69 555.328 C 245.573 560.45 254.28 565.719 260.557 569.242 C 264.772 571.606 269.85 572.309 274.537 571.219 C 277.349 570.563 280.654 569.825 283.779 569.16 C 284.142 569.16 284.392 569.364 284.509 569.481 C 284.724 569.7 284.822 569.969 284.814 570.285 C 284.713 573.864 284.302 577.821 283.584 582.055 C 283.091 585.005 283.908 587.993 285.822 590.259 C 287.771 592.563 290.615 593.888 293.611 593.888 C 295.427 593.888 297.224 593.388 298.806 592.442 L 367.56 551.477 C 373.322 548.047 378.294 543.637 382.341 538.375 C 392.88 524.695 403.259 505.008 408.825 494.434 L 411.2 489.961 C 415.997 481.047 415.4 468.223 414.568 450.477 C 414.31 444.915 414.025 438.875 413.892 432.372 C 413.689 422.728 416.872 413.688 423.368 405.501 C 424.9 403.568 426.923 403.279 427.986 403.279 C 430.099 403.279 432.032 404.345 433.15 406.13 C 439.454 416.181 448.572 430.775 454.896 441.2 C 462.267 453.348 475.564 460.602 490.466 460.602 C 498.653 460.602 506.661 458.372 513.622 454.149 C 533.06 442.356 538.329 420.606 535.001 405.395 C 533.055 396.481 526.594 375.485 521.513 359.438 C 520.028 354.759 521.228 349.657 524.642 346.118 L 599.724 268.165 C 603.356 264.4 605.864 259.712 606.981 254.614 L 613.759 223.798 C 614.724 219.435 613.688 214.97 610.931 211.544 L 610.93 211.54 Z M 603.809 221.599 L 597.032 252.419 C 596.317 255.677 594.711 258.673 592.387 261.083 L 517.309 339.032 C 511.301 345.263 509.192 354.255 511.805 362.501 C 515.907 375.47 523.086 398.571 525.051 407.56 C 527.629 419.349 523.497 436.228 508.34 445.423 C 502.969 448.677 496.793 450.4 490.469 450.4 C 479.157 450.4 469.114 444.982 463.61 435.908 C 457.259 425.443 448.114 410.795 441.778 400.709 C 438.786 395.935 433.626 393.084 427.985 393.084 C 423.04 393.084 418.446 395.302 415.383 399.162 C 407.485 409.115 403.445 420.674 403.699 432.584 C 403.84 439.181 404.121 445.311 404.387 450.951 C 405.113 466.451 405.684 478.697 402.227 485.127 L 399.809 489.681 C 394.379 499.986 384.278 519.165 374.266 532.158 C 371.008 536.397 366.996 539.951 362.348 542.72 L 293.653 583.65 C 294.434 578.998 294.887 574.6 295.008 570.58 C 295.094 567.498 293.965 564.584 291.817 562.385 C 289.711 560.217 286.781 558.975 283.778 558.975 C 282.961 558.975 282.141 559.065 281.332 559.241 C 278.41 559.889 275.067 560.639 272.219 561.299 C 269.969 561.823 267.551 561.483 265.535 560.358 C 260.746 557.666 251.883 552.44 246.375 547.647 C 245.047 546.487 243.848 545.1 242.828 543.53 C 238.43 536.764 235.438 528.968 238.672 526.807 C 243.071 523.861 246.063 523.041 249.52 522.088 C 253.411 521.021 257.821 519.81 263.981 515.689 C 276.68 507.185 283.356 488.72 272.532 472.541 C 268.395 466.366 263.528 465.069 260.169 465.069 C 252.4 465.069 245.692 471.647 240.302 476.936 C 239.138 478.076 238.064 479.135 237.091 479.99 C 222.669 492.693 210.009 497.08 200.114 492.529 C 196.766 490.99 196.177 487.94 196.083 486.697 C 195.88 484.033 197.079 481.572 199.294 480.108 L 597.044 216.967 C 599.028 215.647 601.567 216.171 602.985 217.932 C 603.571 218.651 604.188 219.878 603.809 221.6 L 603.809 221.599 Z"/>
</svg>