<?xml version="1.0" encoding="utf-8"?>
<svg fill="#000000" width="800px" height="800px" version="1.1" viewBox="144 144 512 512" xmlns="http://www.w3.org/2000/svg">
  <path d="M 613.87 412.39 L 606.831 377.636 C 605.96 373.351 602.155 370.242 597.784 370.242 C 596.194 370.242 594.612 370.663 593.218 371.46 L 582.37 377.663 C 580.252 378.867 577.44 378.163 576.135 376.16 L 474.955 220.72 C 471.697 215.708 467.51 211.509 462.506 208.232 C 457.12 204.708 449.795 204.892 444.592 208.673 L 440.198 211.872 C 439.28 212.556 438.108 213.091 436.467 211.817 L 424.483 202.56 C 422.038 200.669 419.108 199.669 416.026 199.669 C 411.335 199.669 406.999 202.009 404.432 205.931 L 200.592 517.153 C 170.26 563.458 194.353 589.087 206.115 597.954 C 208.162 599.497 210.595 600.31 213.15 600.31 C 217.146 600.31 220.842 598.314 223.041 594.966 L 240.717 567.974 C 243.103 564.326 243.924 559.798 242.967 555.544 L 241.631 549.615 L 271.592 564.291 C 278.943 567.888 288.295 565.31 292.764 558.486 L 357.905 459.033 C 362.604 451.857 369.745 446.654 378.014 444.381 L 398.416 438.764 C 398.99 438.607 399.584 438.494 400.185 438.432 L 412.759 437.154 C 419.865 436.432 426.282 432.338 429.943 426.201 L 444.17 402.314 C 449.233 393.803 458.818 388.779 468.807 389.529 L 472.233 389.791 C 483.112 390.627 493.795 387.104 502.006 380.088 L 506.916 375.897 C 510.143 373.139 515.108 372.818 518.67 375.15 L 595.01 425.15 C 600.186 428.545 607.49 427.338 611.354 422.607 C 613.69 419.764 614.604 416.037 613.866 412.388 L 613.87 412.39 Z M 603.53 416.203 C 602.823 417.074 601.596 417.359 600.569 416.687 L 524.229 366.683 C 517.003 361.952 506.917 362.593 500.354 368.198 L 495.444 372.39 C 489.26 377.671 481.198 380.296 473.014 379.698 L 469.588 379.437 C 455.717 378.359 442.486 385.359 435.479 397.136 L 421.252 421.023 C 419.229 424.417 415.678 426.687 411.74 427.085 L 399.17 428.363 C 398.01 428.48 396.85 428.695 395.729 429.007 L 375.331 434.62 C 364.686 437.55 355.491 444.249 349.436 453.491 L 284.299 552.944 C 282.565 555.601 278.936 556.616 276.053 555.206 L 243.479 539.249 C 239.87 537.484 235.299 538.53 232.807 541.651 C 231.147 543.722 230.534 546.405 231.119 549.007 L 233.092 557.773 C 233.452 559.362 233.143 561.062 232.248 562.429 L 214.576 589.413 C 214.069 590.186 212.959 590.421 212.213 589.87 C 200.428 580.983 184.342 560.44 209.069 522.698 L 412.909 211.478 C 413.596 210.423 414.764 209.798 416.026 209.798 C 416.604 209.798 417.463 209.935 418.295 210.576 L 430.279 219.829 C 434.807 223.333 441.525 223.431 446.162 220.056 L 450.557 216.857 C 452.416 215.501 455.041 215.435 456.963 216.697 C 460.783 219.201 463.982 222.408 466.475 226.236 L 567.655 381.676 C 570.393 385.887 575.03 388.398 580.057 388.398 C 582.623 388.398 585.158 387.723 587.393 386.445 L 597.131 380.742 L 603.943 414.39 C 604.088 415.089 603.943 415.695 603.529 416.203 L 603.53 416.203 Z"/>
</svg>