<?xml version="1.0" encoding="utf-8"?>
<svg fill="#000000" width="800px" height="800px" version="1.1" viewBox="144 144 512 512" xmlns="http://www.w3.org/2000/svg">
  <path d="M 610.29 190.66 C 607.294 185.375 599.446 184.156 595.079 188.617 C 567.505 216.777 517.782 267.07 494.509 287.527 C 462.462 315.695 428.552 326.961 384.229 336.007 C 373.795 338.14 360.221 339.218 343.893 339.218 C 320.373 339.218 296.475 336.945 284.327 335.589 C 279.038 334.999 274.249 331.921 271.515 327.351 L 261.386 310.437 C 257.925 304.659 251.144 301.437 244.359 302.57 C 239.128 303.448 234.836 307.116 233.152 312.152 L 193.336 431.462 C 192.031 435.372 191.113 439.333 190.617 443.228 C 187.305 468.97 188.644 488.783 189.375 496.111 C 189.742 499.693 191.578 503.029 194.418 505.255 L 326.937 609.091 C 331.133 612.377 336.16 614.119 341.468 614.115 C 349.871 614.115 357.452 609.814 361.753 602.615 L 375.241 580.029 C 377.734 575.861 378.448 570.97 377.261 566.259 C 376.073 561.552 373.12 557.587 368.952 555.095 L 347.85 542.49 C 344.725 540.627 341.151 539.642 337.514 539.642 L 321.252 540.193 C 317.139 540.193 313.307 538.349 310.732 535.134 L 294.529 514.892 C 292.346 512.158 292.08 508.302 294.053 504.994 C 296.072 501.611 300.623 500.185 304.233 501.896 L 370.116 533.076 C 375.397 535.576 381.022 536.842 386.839 536.842 C 400.554 536.842 413.437 529.529 420.464 517.764 L 477.73 421.873 C 485.394 409.041 481.241 392.271 468.476 384.498 L 456.374 377.127 C 455.081 376.342 453.956 375.248 453.112 373.967 C 449.257 368.107 446.843 361.658 445.499 357.279 C 445.178 356.236 445.729 355.138 446.749 354.779 L 525.522 327.119 C 532.694 324.599 538.795 319.615 542.698 313.084 L 610.112 200.194 C 611.909 197.197 611.975 193.627 610.288 190.654 L 610.29 190.66 Z M 533.759 307.75 C 531.103 312.195 526.954 315.586 522.071 317.301 L 443.298 344.961 C 436.982 347.18 433.575 353.941 435.54 360.348 C 437.083 365.375 439.876 372.817 444.411 379.703 C 446.095 382.265 448.357 384.453 450.958 386.039 L 463.063 393.41 C 470.965 398.222 473.536 408.601 468.794 416.547 L 411.524 512.434 C 406.363 521.071 396.907 526.434 386.84 526.434 C 382.578 526.434 378.449 525.504 374.574 523.668 L 308.691 492.488 C 300.394 488.566 289.875 491.684 284.933 499.961 C 280.921 506.676 281.507 515.293 286.398 521.406 L 302.601 541.648 C 307.159 547.343 313.96 550.613 321.253 550.613 L 337.515 550.062 C 339.272 550.062 340.999 550.538 342.507 551.437 L 363.609 564.039 C 365.39 565.101 366.648 566.797 367.156 568.805 C 367.663 570.816 367.359 572.902 366.296 574.683 L 352.808 597.269 C 350.406 601.293 346.168 603.691 341.468 603.691 C 338.511 603.691 335.71 602.723 333.363 600.887 L 200.843 497.057 C 200.214 496.564 199.823 495.857 199.745 495.076 C 199.05 488.107 197.776 469.24 200.952 444.56 C 201.366 441.333 202.132 438.037 203.225 434.763 L 243.041 315.453 C 243.498 314.086 244.663 313.086 246.084 312.848 C 246.428 312.789 246.772 312.762 247.116 312.762 C 249.291 312.762 251.334 313.922 252.452 315.789 L 262.581 332.703 C 266.975 340.043 274.675 344.996 283.175 345.941 C 295.542 347.324 319.874 349.636 343.898 349.636 C 360.925 349.636 375.199 348.488 386.32 346.218 C 432.316 336.828 467.613 325.042 501.39 295.351 C 523.542 275.878 569.117 229.96 597.464 201.066 L 533.759 307.75 Z"/>
</svg>