<?xml version="1.0" encoding="utf-8"?>
<svg fill="#000000" width="800px" height="800px" version="1.1" viewBox="144 144 512 512" xmlns="http://www.w3.org/2000/svg">
  <path d="M 576.1 326.07 C 562.452 320.738 548.217 316.144 538.682 313.23 C 530.62 310.769 523.526 305.578 518.713 298.613 L 481.076 244.152 C 476.584 237.656 467.869 234.808 460.365 237.441 C 443.951 243.172 431.412 250.089 423.787 254.886 C 420.939 256.679 417.119 256.527 414.416 254.515 C 403.252 246.206 376.213 226.058 366.256 218.347 C 365.334 217.632 364.912 216.476 365.154 215.331 L 366.268 210.109 C 367.01 206.617 366.248 202.953 364.178 200.047 C 362.108 197.141 358.885 195.223 355.342 194.785 L 287.115 186.414 C 279.892 185.527 272.49 185.75 265.334 187.074 C 260.857 187.902 254.736 189.09 246.529 190.789 C 236.431 192.879 229.728 199.262 227.662 208.762 C 225.146 220.328 230.443 235.121 239.471 241.739 C 248.115 248.083 278.409 269.759 291.026 278.786 C 296.612 282.778 299.006 289.872 296.999 296.427 L 296.643 297.575 C 293.631 307.399 293.174 317.899 295.319 327.942 L 325.577 469.762 C 327.21 477.422 332.448 483.91 339.593 487.125 L 378.491 504.621 C 386.897 508.402 391.026 518.156 387.897 526.824 C 385.366 533.828 378.663 538.531 371.217 538.531 L 283.436 538.531 C 274.444 538.531 265.608 540.082 257.178 543.141 C 237.19 550.387 220.139 560.52 206.506 573.258 C 201.658 577.785 200.1 584.688 202.53 590.848 C 204.951 596.98 210.78 600.946 217.382 600.946 L 552.531 600.946 C 568.496 600.946 581.484 587.958 581.484 571.993 C 581.484 551.712 564.98 535.208 544.699 535.208 L 496.156 535.208 C 492.238 535.208 489.234 534.438 487.469 532.989 C 486.234 531.973 485.637 530.614 485.637 528.833 C 485.637 522.161 494.203 512.079 507.117 512.079 C 522.015 512.079 545.601 517.548 562.762 522.134 C 564.57 522.614 566.422 522.86 568.27 522.86 C 579.411 522.86 588.7 514.141 589.415 503.008 L 598.52 361.218 C 599.512 345.82 590.501 331.698 576.098 326.07 L 576.1 326.07 Z M 579.291 502.35 C 578.854 509.12 572.049 514.104 565.385 512.319 C 547.635 507.577 523.119 501.921 507.119 501.921 C 489.017 501.921 475.49 516.124 475.49 528.823 C 475.49 533.62 477.455 537.881 481.026 540.819 C 484.678 543.823 489.772 545.346 496.159 545.346 L 544.702 545.346 C 559.39 545.346 571.339 557.295 571.339 571.983 C 571.339 582.354 562.901 590.788 552.534 590.788 L 217.384 590.792 C 213.708 590.792 212.309 587.979 211.969 587.116 C 211.626 586.245 210.716 583.206 213.434 580.667 C 226.063 568.87 241.942 559.452 260.641 552.675 C 267.958 550.019 275.625 548.675 283.438 548.675 L 371.215 548.675 C 382.922 548.675 393.461 541.277 397.438 530.269 C 402.364 516.64 395.868 501.308 382.653 495.363 L 343.755 477.867 C 339.552 475.976 336.462 472.152 335.501 467.644 L 305.243 325.824 C 303.458 317.465 303.841 308.726 306.345 300.558 L 306.7 299.41 C 309.99 288.672 306.068 277.066 296.931 270.531 C 284.322 261.515 254.072 239.867 245.47 233.558 C 240.239 229.726 235.712 219.488 237.579 210.921 C 238.775 205.424 242.482 201.995 248.587 200.73 C 256.701 199.05 262.751 197.874 267.177 197.058 C 273.322 195.921 279.681 195.737 285.88 196.491 L 354.103 204.862 C 355.096 204.983 355.662 205.589 355.912 205.937 C 356.162 206.288 356.549 207.019 356.342 207.999 L 355.228 213.226 C 354.181 218.14 356.072 223.3 360.041 226.374 C 370.068 234.139 397.174 254.339 408.361 262.663 C 414.357 267.127 422.849 267.467 429.185 263.487 C 436.372 258.967 448.193 252.448 463.712 247.03 C 466.989 245.878 470.782 247.116 472.731 249.932 L 510.368 304.393 C 516.474 313.229 525.477 319.819 535.723 322.948 C 545.091 325.811 559.059 330.315 572.411 335.534 C 582.681 339.546 589.106 349.608 588.399 360.577 L 579.291 502.35 Z"/>
</svg>