<?xml version="1.0" encoding="utf-8"?>
<svg fill="#000000" width="800px" height="800px" version="1.1" viewBox="144 144 512 512" xmlns="http://www.w3.org/2000/svg">
  <path d="M 614 223.78 C 613.285 217.339 609.359 211.839 603.5 209.069 L 576.68 196.385 C 563.086 189.963 546.282 191.834 534.438 201.069 L 519.126 213.014 C 516.044 215.42 511.298 214.818 508.911 211.752 L 501.618 202.4 C 498.087 197.873 492.766 195.279 487.02 195.279 C 482.868 195.279 478.938 196.631 475.657 199.189 L 219.566 398.916 C 181.488 428.615 174.671 483.756 204.371 521.826 L 246.219 575.482 C 262.731 596.658 282.692 607.396 305.539 607.396 C 333.773 607.396 357.328 590.732 363.879 585.623 L 387.457 567.236 C 395.046 561.314 396.406 550.314 390.48 542.72 L 355.929 498.415 C 354.859 497.044 355.105 495.052 356.476 493.985 C 357.183 493.435 357.913 493.318 358.406 493.318 C 359.39 493.318 360.3 493.759 360.902 494.532 L 363.917 498.396 C 368.359 504.103 377.284 505.216 383.007 500.755 C 388.917 496.138 389.976 487.579 385.363 481.673 L 366.179 457.079 C 362.487 452.345 363.335 445.489 368.069 441.798 L 511.979 329.558 C 517.37 325.351 519.96 318.804 518.917 312.05 C 517.866 305.292 513.413 299.839 506.999 297.464 L 501.831 295.55 C 491.292 291.644 485.28 280.448 487.839 269.511 L 488.136 268.238 C 489.737 261.39 497.093 257.121 503.886 259.304 L 545.667 272.64 C 554.405 275.437 564.378 273.648 571.612 268.007 L 606.964 240.437 C 612.089 236.445 614.718 230.214 613.999 223.773 L 614 223.78 Z M 600.711 232.409 L 565.359 259.979 C 560.738 263.588 554.386 264.733 548.773 262.94 L 506.996 249.604 C 504.762 248.893 502.461 248.534 500.137 248.534 C 489.637 248.534 480.625 255.682 478.227 265.913 L 477.93 267.186 C 474.199 283.116 482.953 299.416 498.297 305.104 L 503.465 307.018 C 506.363 308.096 508.383 310.561 508.855 313.62 C 509.328 316.674 508.152 319.631 505.719 321.534 L 361.809 433.774 C 352.648 440.922 351.012 454.188 358.152 463.348 L 377.336 487.946 C 378.489 489.426 378.227 491.579 376.75 492.735 C 375.985 493.332 375.184 493.457 374.653 493.457 C 373.586 493.457 372.602 492.981 371.957 492.145 L 368.942 488.278 C 364.575 482.684 355.817 481.594 350.215 485.969 C 344.414 490.493 343.383 498.891 347.902 504.696 L 382.457 549.001 C 384.926 552.165 384.356 556.751 381.196 559.22 L 357.618 577.607 C 351.719 582.209 330.528 597.224 305.544 597.224 C 285.997 597.224 268.739 587.806 254.251 569.232 L 212.403 515.572 C 199.692 499.275 194.091 478.998 196.626 458.486 C 199.161 437.97 209.536 419.67 225.837 406.959 L 481.927 207.219 C 483.399 206.071 485.165 205.465 487.024 205.465 C 489.61 205.465 492.005 206.633 493.583 208.664 L 500.88 218.016 C 504.212 222.289 509.235 224.743 514.657 224.743 C 518.583 224.743 522.29 223.465 525.395 221.047 L 540.707 209.102 C 549.566 202.196 562.148 200.79 572.324 205.595 L 599.152 218.279 C 601.828 219.544 603.554 221.958 603.878 224.904 C 604.207 227.853 603.054 230.587 600.714 232.411 L 600.711 232.409 Z"/>
</svg>