<?xml version="1.0" encoding="utf-8"?>
<svg fill="#000000" width="800px" height="800px" version="1.1" viewBox="144 144 512 512" xmlns="http://www.w3.org/2000/svg">
  <path d="M 288.39 505.3 L 409.5 416.902 C 420.531 408.855 435.992 408.105 447.734 415.058 L 557.774 480.144 C 562.946 483.203 568.833 484.82 574.809 484.82 C 588.125 484.82 600.114 476.988 605.356 464.871 C 609.102 456.219 611.844 447.215 613.504 438.113 C 616.918 419.488 605.84 401.16 587.734 395.472 L 428.404 345.417 C 421.709 343.311 414.756 342.245 407.74 342.245 C 393.822 342.245 380.396 346.39 368.892 354.229 L 296.927 403.307 C 293.279 405.795 289.025 407.108 284.622 407.108 C 278.185 407.108 272.102 404.299 267.938 399.401 C 260.317 390.432 261.122 377.155 269.763 369.171 L 376.783 270.292 C 386.857 260.983 399.966 255.858 413.685 255.858 C 425.419 255.858 436.607 259.553 446.044 266.546 L 558.164 349.632 C 562.144 352.577 566.847 354.136 571.773 354.136 C 580.011 354.136 587.64 349.69 591.691 342.527 C 593.901 338.605 595.816 334.605 597.37 330.64 C 603.019 316.21 601.128 299.89 592.296 286.98 L 564.753 246.679 C 554.651 231.909 539.425 221.867 521.874 218.409 L 395.054 193.432 C 370.39 188.568 344.105 195.182 324.691 211.104 L 247.464 274.401 C 240.03 280.491 235.023 289.053 233.359 298.518 L 186.433 564.948 C 184.539 575.686 187.472 586.632 194.476 594.979 C 201.496 603.342 211.749 608.139 222.613 608.139 C 223.64 608.139 224.679 608.096 225.726 608.01 L 422.692 591.655 C 432.34 590.854 442.165 590.886 451.782 591.741 L 552.282 600.675 C 563.864 601.726 575.528 599.269 585.665 593.765 C 587.727 592.643 589.856 591.405 591.993 590.038 C 600.036 584.901 605.481 576.503 606.934 566.995 C 608.418 557.28 605.641 547.393 599.313 539.87 C 591.254 530.288 582.586 522.612 573.559 517.058 L 572.86 516.628 L 480.118 494.644 C 455.372 488.781 428.563 491.82 405.763 503.074 L 314.361 548.187 C 310.865 549.913 307.118 550.788 303.236 550.788 C 294.939 550.788 287.177 546.71 282.482 539.874 C 274.708 528.577 277.298 513.386 288.384 505.3 L 288.39 505.3 Z M 274.101 545.648 C 280.695 555.246 291.589 560.972 303.242 560.972 C 308.699 560.972 313.953 559.741 318.867 557.32 L 410.269 512.207 C 430.972 501.984 455.328 499.227 477.777 504.554 L 568.914 526.159 C 576.773 531.113 584.379 537.929 591.531 546.429 C 595.976 551.715 597.925 558.652 596.887 565.468 C 595.863 572.179 592.183 577.863 586.528 581.472 C 584.602 582.699 582.688 583.82 580.821 584.828 C 572.434 589.383 562.782 591.391 553.196 590.547 L 452.696 581.613 C 442.505 580.707 432.087 580.68 421.86 581.523 L 224.9 597.875 C 224.134 597.942 223.38 597.969 222.63 597.969 C 214.786 597.969 207.368 594.496 202.29 588.442 C 197.224 582.407 195.103 574.485 196.466 566.715 L 243.392 300.285 C 244.638 293.218 248.38 286.82 253.931 282.273 L 331.154 218.972 C 344.509 208.027 361.365 201.999 378.627 201.999 C 383.475 201.999 388.346 202.472 393.104 203.409 L 519.914 228.386 C 534.832 231.327 547.781 239.859 556.367 252.417 L 583.91 292.718 C 590.832 302.847 592.328 315.632 587.906 326.925 C 586.523 330.448 584.82 334.015 582.839 337.523 C 580.597 341.492 576.363 343.957 571.784 343.957 C 569.058 343.957 566.445 343.093 564.238 341.457 L 452.118 258.371 C 440.915 250.07 427.634 245.683 413.7 245.683 C 397.411 245.683 381.852 251.769 369.891 262.82 L 262.871 361.699 C 250.211 373.398 249.035 392.851 260.203 405.992 C 266.304 413.167 275.207 417.285 284.637 417.285 C 291.094 417.285 297.332 415.359 302.676 411.714 L 374.641 362.636 C 389.387 352.585 408.332 349.777 425.368 355.125 L 584.698 405.18 C 597.909 409.328 605.999 422.7 603.514 436.282 C 601.99 444.625 599.471 452.887 596.033 460.829 C 592.408 469.219 584.08 474.641 574.83 474.641 C 570.678 474.641 566.576 473.512 562.971 471.383 L 452.931 406.301 C 446.005 402.203 438.087 400.035 430.036 400.035 C 420.438 400.035 411.266 403.027 403.516 408.684 L 282.406 497.082 C 266.844 508.437 263.203 529.77 274.117 545.648 L 274.101 545.648 Z"/>
</svg>