<?xml version="1.0" encoding="utf-8"?>
<svg fill="#000000" width="800px" height="800px" version="1.1" viewBox="144 144 512 512" xmlns="http://www.w3.org/2000/svg">
  <path d="M 610.31 439.86 C 599.056 427.778 582.267 409.157 566.232 389.067 C 540.794 357.184 530.884 270.837 527.15 238.327 C 524.291 213.436 510.712 198.046 499.818 189.515 C 497.529 187.722 494.795 186.773 491.904 186.773 C 486.037 186.773 480.892 190.726 479.384 196.386 C 473.321 219.179 463.407 247.027 456.154 266.374 C 452.279 276.706 443.576 284.503 432.873 287.229 L 421.35 290.159 C 412.393 292.44 404.635 298.358 400.061 306.397 L 334.999 420.817 C 332.358 425.461 328.952 429.571 324.87 433.028 L 286.143 465.844 C 269.655 479.817 261.092 501 263.225 522.508 L 263.772 527.992 C 264.147 531.816 262.201 535.555 258.928 537.285 C 252.201 540.848 246.658 539.941 242.666 534.434 C 237.85 527.781 235.334 513.914 240.58 497.938 C 245.928 481.657 253.01 465.59 258.01 454.977 C 263.334 443.672 273.889 435.887 286.252 434.153 L 290.4 433.571 C 299.205 432.336 307.017 426.946 311.295 419.153 L 362.072 326.657 C 365.217 320.934 369.088 315.634 373.572 310.903 L 410.904 271.551 C 413.026 269.312 414.873 266.769 416.393 263.996 C 428.881 241.219 435.092 220.605 438.104 207.324 C 438.893 203.843 438.088 200.277 435.905 197.547 C 431.815 192.418 423.471 191.75 418.671 196.433 L 285.211 326.413 C 279.546 331.929 274.746 338.245 270.926 345.19 L 202.391 470.06 C 199.262 475.771 197.008 481.915 195.703 488.326 C 189.883 516.888 181.269 567.514 188.891 585.697 C 195.469 601.392 218.606 613.228 242.703 613.228 C 256.801 613.224 268.949 609.217 277.824 601.634 C 296.746 585.47 297.883 566.079 296.879 555.954 C 296.593 553.079 297.121 550.208 298.414 547.654 C 302.968 538.603 310.078 526.494 318.965 512.646 C 327.117 499.931 340.371 491.388 355.317 489.208 L 547.354 461.199 C 548.397 461.199 549.322 461.942 549.545 462.969 L 550.975 469.438 C 552.135 474.703 556.885 478.527 562.28 478.527 C 563.713 478.527 565.119 478.262 566.463 477.738 L 605.068 462.761 C 609.459 461.058 612.709 457.297 613.764 452.702 C 614.818 448.109 613.529 443.312 610.314 439.862 L 610.31 439.86 Z M 603.744 450.399 C 603.603 451.004 603.091 452.493 601.345 453.172 L 562.275 468.238 C 561.76 468.238 561.15 467.887 561.006 467.211 L 559.576 460.742 C 558.189 454.457 552.127 450.078 545.533 451.039 L 353.833 479.023 C 335.942 481.637 320.079 491.863 310.317 507.082 C 301.114 521.43 294.02 533.52 289.239 543.016 C 287.067 547.317 286.173 552.137 286.653 556.961 C 287.462 565.086 286.516 580.68 271.149 593.813 C 264.255 599.7 254.153 602.942 242.7 602.946 C 222.825 602.946 203.352 593.622 198.36 581.716 C 193.645 570.462 196.415 536.314 205.766 490.372 C 206.872 484.974 208.762 479.802 211.399 474.997 L 279.926 350.127 C 283.254 344.076 287.438 338.572 292.371 333.768 L 425.831 203.788 C 426.214 203.421 426.515 203.378 426.71 203.378 C 427.132 203.378 427.597 203.608 427.874 203.956 C 428.12 204.257 428.179 204.597 428.073 205.05 C 425.21 217.691 419.292 237.316 407.378 259.058 C 406.281 261.062 404.956 262.89 403.445 264.484 L 366.113 303.832 C 361.023 309.199 356.636 315.215 353.062 321.707 L 302.281 414.211 C 299.558 419.175 294.585 422.609 288.976 423.398 L 284.827 423.98 C 269.018 426.199 255.518 436.152 248.718 450.601 C 243.589 461.472 236.323 477.956 230.816 494.734 C 225.211 511.812 226.598 529.761 234.344 540.461 C 241.207 549.938 252.496 552.324 263.739 546.367 C 270.77 542.645 274.794 535.035 274.001 526.976 L 273.454 521.488 C 271.653 503.343 278.883 485.468 292.79 473.679 L 331.517 440.863 C 336.525 436.621 340.704 431.582 343.935 425.886 L 409.001 311.476 C 412.204 305.851 417.63 301.71 423.892 300.117 L 435.415 297.187 C 449.372 293.633 460.727 283.46 465.786 269.98 C 473.122 250.418 483.157 222.226 489.329 199.027 C 489.895 196.895 492.188 196.586 493.493 197.605 C 502.837 204.93 514.493 218.14 516.95 239.503 C 520.774 272.808 530.923 361.293 558.208 395.473 C 574.446 415.817 591.419 434.649 602.798 446.86 C 604.071 448.235 603.884 449.798 603.743 450.403 L 603.744 450.399 Z"/>
</svg>