<?xml version="1.0" encoding="utf-8"?>
<svg fill="#000000" width="800px" height="800px" version="1.1" viewBox="144 144 512 512" xmlns="http://www.w3.org/2000/svg">
  <path d="M 612.44 236.18 C 610.663 233.364 607.745 231.535 604.428 231.164 C 590.283 229.582 583.283 228.934 578.252 228.762 C 572.908 228.762 568.498 233.114 568.424 238.469 C 568.28 248.797 568.76 256.539 571.588 260.754 C 572.674 262.371 573.116 264.656 572.655 266.305 C 572.362 267.371 571.713 268.106 570.619 268.621 C 569.709 269.051 568.881 269.266 568.155 269.266 C 565.479 269.266 564.452 265.688 564.135 264.153 C 563.393 260.555 564.272 257.821 565.194 254.922 C 565.846 252.887 566.522 250.778 566.506 248.496 C 566.491 245.649 566.225 233.266 566.065 225.934 C 565.944 220.321 561.811 215.692 556.241 214.93 C 553.295 214.532 550.299 215.313 547.955 217.047 L 476.338 269.887 C 469.456 274.966 467.362 284.446 471.467 291.942 C 485.737 317.962 475.147 332.262 462.909 342.825 C 458.96 346.236 452.85 347.966 444.757 347.966 C 435.315 347.966 424.933 345.642 417.347 343.947 C 414.191 343.24 411.452 342.634 409.327 342.286 C 407.608 342.009 405.765 341.868 403.851 341.868 C 394.112 341.868 383.57 345.489 375.871 348.134 C 374.335 348.661 372.902 349.153 371.601 349.571 C 371.007 349.763 369.839 349.993 367.668 349.993 C 360.812 349.993 349.77 347.685 340.023 345.654 C 334.421 344.486 329.128 343.38 324.582 342.669 C 316.644 341.431 310.156 341.388 303.883 341.345 C 297.695 341.298 291.852 341.259 284.641 340.134 C 273.032 338.325 252.289 334.755 243.911 333.302 C 240.809 332.755 237.817 333.88 235.809 336.138 C 234.137 338.021 233.352 340.536 233.653 343.044 L 234.164 347.29 C 234.332 348.681 233.954 350.075 233.106 351.216 C 226.598 359.939 207.196 388.251 197.524 426.286 L 196.364 431.102 C 195.208 436.195 194.208 441.422 193.469 446.813 C 186.825 495.422 195.657 540.43 198.524 553.063 C 198.88 554.629 198.946 556.25 198.723 557.883 L 197.7 565.367 C 196.602 573.418 202.255 580.863 210.305 581.961 L 232.758 585.032 C 233.387 585.117 234.016 585.16 234.645 585.16 C 239.395 585.16 243.766 582.778 246.34 578.785 L 247.582 576.856 C 251.179 571.262 249.582 563.751 244.019 560.106 C 239.98 557.457 234.394 553.422 230.707 549.223 C 223.488 540.988 219.527 523.586 218.926 497.5 C 218.911 496.699 219.309 496.164 219.551 495.918 C 219.786 495.676 220.297 495.269 221.266 495.269 C 221.278 495.269 221.29 495.269 221.301 495.273 L 225.403 495.668 L 226.301 495.707 C 230.977 495.707 234.965 492.211 235.575 487.574 L 240.739 448.457 C 241.204 444.945 240.469 441.332 238.672 438.285 L 232.79 428.305 C 231.602 426.285 231.274 423.933 231.868 421.683 C 234.399 412.098 239.438 394.222 244.759 382.218 C 249.384 371.788 257.427 365.57 261.814 362.788 C 263.322 361.828 265.208 361.437 267.068 361.644 L 401.618 377.785 C 404.227 378.097 406.766 379.023 408.961 380.469 L 419.445 387.367 C 423.703 390.164 429.906 388.508 432.222 383.984 L 434.523 379.472 C 434.867 378.797 435.594 378.433 436.605 378.394 C 442.297 379.211 451 380.301 460.136 380.859 C 461.968 380.972 463.871 381.027 465.824 381.027 C 481.582 381.027 498.301 377.41 509.457 371.586 C 523.234 364.398 556.551 330.75 583.73 296.574 C 602.339 273.172 610.375 254.547 613.507 245.523 C 614.601 242.39 614.206 238.984 612.436 236.175 L 612.44 236.18 Z M 604.186 242.293 C 601.26 250.719 593.706 268.18 576.01 290.434 C 547.729 325.989 515.834 357.129 504.897 362.836 C 495.065 367.969 480.096 371.157 465.831 371.157 C 464.085 371.157 462.39 371.11 460.749 371.008 C 451.944 370.469 443.526 369.414 438.015 368.625 C 432.906 367.891 428.035 370.489 425.742 374.989 L 423.945 378.504 L 414.398 372.223 C 410.929 369.942 406.918 368.473 402.796 367.985 L 268.246 351.844 C 264.106 351.336 259.953 352.281 256.527 354.453 C 251.203 357.832 241.418 365.41 235.738 378.219 C 230.137 390.852 224.929 409.297 222.324 419.168 C 221.051 423.988 221.75 429.016 224.285 433.324 L 230.168 443.305 C 230.852 444.461 231.129 445.836 230.953 447.172 L 225.855 485.793 L 222.254 485.441 C 218.551 485.094 215.051 486.402 212.492 489.016 C 210.203 491.359 208.984 494.453 209.062 497.726 C 209.723 526.597 214.379 545.57 223.289 555.734 C 227.707 560.77 234.062 565.383 238.617 568.367 C 239.66 569.051 239.961 570.461 239.289 571.508 L 238.047 573.434 C 237.195 574.75 235.653 575.461 234.102 575.25 L 211.649 572.18 C 208.996 571.817 207.129 569.36 207.489 566.703 L 208.512 559.219 C 208.895 556.41 208.778 553.606 208.156 550.879 C 205.383 538.652 196.84 495.109 203.254 448.149 C 209.524 402.262 233.75 366.879 241.027 357.126 C 243.398 353.946 244.445 350.04 243.976 346.118 L 243.637 343.278 C 252.765 344.856 272.051 348.169 283.129 349.899 C 291.066 351.138 297.555 351.181 303.828 351.224 C 310.015 351.27 315.859 351.31 323.07 352.435 C 327.366 353.102 332.542 354.181 338.019 355.325 C 352.558 358.364 367.531 361.274 374.644 358.974 C 375.999 358.536 377.491 358.024 379.089 357.474 C 386.128 355.056 395.769 351.747 403.859 351.747 C 405.246 351.747 406.562 351.845 407.761 352.04 C 409.734 352.36 412.273 352.931 415.199 353.587 C 423.234 355.384 434.234 357.845 444.765 357.845 C 455.296 357.845 463.574 355.309 469.37 350.306 C 482.593 338.896 498.089 319.943 480.136 287.201 C 478.393 284.021 479.284 279.993 482.21 277.837 L 553.831 224.993 C 554.085 224.806 554.425 224.728 554.913 224.72 C 555.647 224.821 556.19 225.423 556.206 226.157 C 556.366 233.435 556.628 245.731 556.643 248.559 C 556.647 249.266 556.218 250.614 555.8 251.919 C 554.706 255.337 553.21 260.02 554.471 266.149 C 556.128 274.164 561.374 279.141 568.162 279.141 C 570.358 279.141 572.6 278.609 574.838 277.551 C 578.518 275.816 581.123 272.758 582.182 268.934 C 583.409 264.508 582.491 259.266 579.799 255.25 C 579.03 254.101 578.147 250.281 578.268 238.633 C 582.616 238.785 589.647 239.441 603.346 240.972 C 603.756 241.019 603.987 241.254 604.104 241.445 C 604.205 241.637 604.319 241.93 604.19 242.297 L 604.186 242.293 Z"/>
</svg>