<?xml version="1.0" encoding="utf-8"?>
<svg fill="#000000" width="800px" height="800px" version="1.1" viewBox="144 144 512 512" xmlns="http://www.w3.org/2000/svg">
  <path d="M 614.05 210.91 C 613.48 204.172 609.511 198.387 603.441 195.437 C 597.5 192.546 595.199 191.898 593.847 191.652 C 589.566 190.882 585.164 190.714 580.812 191.14 L 522.921 196.855 C 520.316 197.109 517.925 198.464 516.367 200.566 C 514.808 202.667 514.206 205.347 514.714 207.913 L 515.156 210.14 C 515.413 211.437 514.89 212.394 514.55 212.847 C 514.214 213.304 513.456 214.085 512.148 214.222 C 491.367 216.402 421.238 223.742 391.268 226.613 C 381.245 227.578 371.956 231.598 364.397 238.246 L 285.854 307.293 C 280.76 311.77 278.139 318.215 278.655 324.973 C 279.174 331.731 282.745 337.7 288.456 341.348 L 320.717 361.961 C 325.174 364.809 326.702 370.496 324.268 375.191 C 310.854 401.05 280.647 459.324 274.284 471.671 C 265.065 489.581 267.757 503.698 269.05 510.487 L 269.167 511.104 C 270.421 517.608 271.409 522.741 259.687 530.346 C 248.839 537.382 213.519 562.252 193.433 576.448 C 189.022 579.565 186.284 584.444 185.917 589.831 C 185.55 595.222 187.604 600.425 191.558 604.108 C 194.999 607.315 199.476 609.077 204.163 609.077 C 209.823 609.077 215.097 606.542 218.632 602.116 C 231.351 586.19 253.327 566.304 264.191 557.511 C 278.226 546.156 319.679 531.007 331.562 528.613 C 334.53 528.012 337.605 526.844 340.694 525.133 C 346.03 522.176 349.444 516.766 349.815 510.66 C 350.19 504.515 347.444 498.687 342.464 495.074 C 335.706 490.175 327.679 484.336 321.964 480.148 C 314.366 474.581 315.226 469.367 321.667 456.523 C 325.448 448.98 336.319 428.738 342.464 417.339 C 346.542 409.776 349.898 401.78 352.441 393.573 L 368.492 341.768 C 369.609 338.162 369.019 334.315 366.878 331.209 C 364.745 328.111 361.374 326.197 357.632 325.959 C 353.949 325.72 350.124 325.353 346.265 324.857 C 343.699 324.529 341.703 322.506 341.41 319.931 C 341.105 317.267 341.902 314.685 343.648 312.658 C 345.394 310.627 347.832 309.455 350.507 309.357 C 363.566 308.884 380.937 308.244 387.284 307.924 L 388.058 307.904 C 392.335 307.904 396.253 309.662 398.042 312.377 C 399.706 314.912 399.64 318.299 397.847 322.443 C 393.706 332.021 383.351 349.377 377.55 358.869 C 375.671 361.939 375.601 365.646 377.359 368.779 C 379.456 372.521 383.855 374.509 388.035 373.548 C 408.84 368.814 431.633 353.04 432.644 352.333 L 606.178 227.965 C 611.686 224.024 614.623 217.649 614.053 210.906 L 614.05 210.91 Z M 600.179 219.59 L 426.699 343.92 C 426.484 344.068 405.484 358.608 386.972 363.221 C 394.144 351.451 403.257 335.912 407.308 326.537 C 410.472 319.213 410.242 312.178 406.656 306.717 C 402.75 300.779 394.968 297.209 386.769 297.627 C 380.445 297.939 363.144 298.584 350.132 299.053 C 344.632 299.256 339.421 301.76 335.831 305.932 C 332.241 310.1 330.542 315.631 331.163 321.096 C 331.991 328.4 337.663 334.155 344.952 335.08 C 349.022 335.599 353.065 335.994 356.964 336.244 C 357.749 336.294 358.19 336.771 358.386 337.052 C 358.585 337.341 358.882 337.939 358.643 338.716 L 342.592 390.521 C 340.249 398.092 337.151 405.466 333.385 412.443 C 327.214 423.888 316.287 444.236 312.447 451.896 C 307.475 461.814 299.963 476.802 315.865 488.458 C 321.596 492.658 329.638 498.505 336.408 503.415 C 338.553 504.974 339.686 507.384 339.526 510.033 C 339.365 512.642 337.971 514.861 335.701 516.118 C 333.533 517.318 331.455 518.122 329.522 518.513 C 318.045 520.825 274.21 536.15 257.702 549.505 C 246.503 558.567 223.8 579.122 210.573 595.689 C 207.709 599.271 201.948 599.708 198.581 596.572 C 196.909 595.013 196.038 592.814 196.194 590.533 C 196.35 588.251 197.507 586.189 199.374 584.869 C 215.495 573.474 254.194 546.193 265.288 538.994 C 282.839 527.611 280.694 516.506 279.28 509.158 L 279.166 508.56 C 277.924 502.048 275.846 491.146 283.44 476.396 C 289.795 464.052 320.002 405.798 333.409 379.943 C 338.315 370.482 335.237 359.021 326.26 353.283 L 293.998 332.67 C 291.041 330.779 289.194 327.693 288.924 324.193 C 288.659 320.697 290.018 317.357 292.651 315.041 L 371.198 245.994 C 377.12 240.787 384.397 237.638 392.249 236.885 C 422.261 234.006 492.429 226.666 513.219 224.483 C 517.047 224.08 520.559 222.072 522.84 218.975 C 525.129 215.873 526.008 211.924 525.258 208.143 L 525.031 207.01 L 581.812 201.404 C 585.215 201.069 588.676 201.201 592.015 201.803 C 592.168 201.826 593.648 202.143 598.918 204.709 C 601.695 206.057 603.508 208.705 603.769 211.783 C 604.039 214.865 602.691 217.783 600.176 219.588 L 600.179 219.59 Z"/>
</svg>