<?xml version="1.0" encoding="utf-8"?>
<svg fill="#000000" width="800px" height="800px" version="1.1" viewBox="144 144 512 512" xmlns="http://www.w3.org/2000/svg">
  <path d="M 607.13 293.9 C 613.13 287.982 615.505 279.252 613.321 271.111 L 606.732 246.537 C 604.154 236.912 596.103 229.838 586.224 228.514 L 476.094 213.787 C 462.653 211.967 449.012 216.951 439.856 226.912 C 431.867 235.603 428.012 246.881 429.004 258.674 C 429.609 265.885 429.629 269.108 429.535 270.545 C 429.113 277.178 414.508 305.283 388.875 305.287 L 388.871 305.287 C 382.914 305.287 376.633 303.779 370.199 300.81 C 366.168 298.951 362.195 296.385 358.39 293.181 L 295.753 240.451 C 292.706 237.885 288.847 236.471 284.886 236.471 C 278.003 236.471 271.859 240.573 269.23 246.92 L 258.031 273.971 C 256.695 277.19 255.125 280.354 253.347 283.369 C 243.527 300.057 211.074 355.146 205.796 363.502 C 205.218 364.416 204.535 365.452 203.777 366.6 C 196.05 378.319 179.972 402.694 188.136 429.979 C 197.144 460.112 211.738 478.417 231.503 484.385 C 236.487 485.889 240.944 486.897 244.874 487.791 C 256.562 490.44 259.116 491.44 259.608 496.006 C 259.897 498.69 259.131 499.975 258.53 500.709 C 257.588 501.858 255.006 503.873 248.276 504.483 C 243.459 504.92 238.217 507.998 234.924 512.33 C 232.482 515.545 229.865 521.014 231.283 528.803 C 233.271 539.721 242.904 544.69 251.017 544.69 C 255.962 544.69 260.439 542.964 263.568 539.882 L 530.778 283.552 C 534.536 279.942 540.954 280.036 544.614 283.747 C 548.188 287.376 548.388 293.235 545.063 297.095 L 327.583 549.635 C 322.857 555.123 321.275 562.545 323.353 569.494 C 325.415 576.396 330.771 581.701 337.677 583.678 C 344.04 585.506 350.157 586.483 355.868 586.584 L 356.481 586.588 C 375.618 586.588 409.258 571.002 423.501 528.072 C 427.22 516.865 437.485 509.334 449.052 509.334 L 551.322 511.862 C 556.08 511.862 560.549 510.002 563.904 506.627 C 567.248 503.268 569.072 498.815 569.049 494.088 C 568.92 468.951 560.736 447.432 545.389 431.85 C 534.885 421.194 526.479 416.85 516.373 416.85 C 513.595 416.85 510.959 417.147 508.166 417.459 C 507.017 417.588 505.834 417.721 504.611 417.834 C 500.412 418.221 493.752 419.217 484.814 420.795 C 483.103 421.092 482.251 419.686 482.083 419.272 C 481.802 418.588 481.673 417.577 482.65 416.616 L 607.13 293.9 Z M 472.79 423.06 C 475.017 428.486 480.438 431.728 486.54 430.654 C 495.208 429.123 501.595 428.165 505.52 427.802 C 506.809 427.681 508.055 427.544 509.27 427.408 C 511.778 427.126 514.145 426.861 516.36 426.861 C 521.215 426.861 527.309 427.79 538.235 438.873 C 551.712 452.549 558.899 471.658 559.012 494.127 C 559.02 496.162 558.231 498.088 556.785 499.541 C 555.324 501.01 553.383 501.818 551.117 501.818 L 551.109 501.818 L 449.959 499.307 L 449.037 499.295 C 433.142 499.295 419.053 509.584 413.971 524.9 C 401.491 562.525 372.076 576.548 356.467 576.548 L 356.03 576.544 C 351.194 576.462 345.948 575.614 340.425 574.028 C 336.765 572.981 334.038 570.274 332.941 566.61 C 331.851 562.958 332.683 559.048 335.167 556.165 L 552.647 303.615 C 559.346 295.834 558.948 284.006 551.741 276.689 C 547.975 272.869 542.948 270.767 537.581 270.767 C 532.429 270.767 527.542 272.732 523.823 276.299 L 256.565 532.674 C 252.999 536.189 242.62 535.166 241.135 526.986 C 240.522 523.615 241.112 520.721 242.893 518.377 C 244.893 515.748 247.803 514.572 249.17 514.447 C 257.08 513.728 262.834 511.236 266.272 507.041 C 268.928 503.799 270.069 499.603 269.561 494.912 C 268.256 482.787 258.44 480.564 247.077 477.99 C 243.304 477.134 239.034 476.17 234.386 474.763 C 218.046 469.83 205.71 453.79 197.726 427.083 C 190.906 404.282 204.714 383.345 212.132 372.099 C 212.933 370.888 213.652 369.795 214.257 368.838 C 219.468 360.592 249.362 309.865 261.976 288.436 C 263.984 285.018 265.769 281.44 267.281 277.791 L 278.48 250.744 C 279.55 248.154 282.062 246.482 284.874 246.482 C 286.007 246.482 287.691 246.763 289.285 248.107 L 351.914 300.841 C 356.406 304.618 361.136 307.669 365.98 309.903 C 373.737 313.485 381.433 315.302 388.855 315.302 L 388.858 315.302 C 420.256 315.298 438.799 282.509 439.526 271.177 C 439.694 268.56 439.519 264.192 438.98 257.822 C 438.226 248.861 441.151 240.291 447.222 233.689 C 454.179 226.122 464.308 222.318 474.753 223.716 L 584.883 238.443 C 590.738 239.228 595.508 243.42 597.039 249.123 L 603.629 273.697 C 604.879 278.361 603.519 283.361 600.078 286.748 L 475.588 409.448 C 471.904 413.077 470.83 418.288 472.783 423.05 L 472.79 423.06 Z"/>
</svg>