<?xml version="1.0" encoding="utf-8"?>
<svg fill="#000000" width="800px" height="800px" version="1.1" viewBox="144 144 512 512" xmlns="http://www.w3.org/2000/svg">
  <path d="M 604.23 432.01 L 594.871 426.424 C 591.289 424.287 589.937 419.69 591.785 415.955 L 593.125 413.256 C 596.867 405.709 595.031 396.584 588.664 391.065 C 564.898 370.479 485.854 302.065 466.634 286.045 C 447.982 270.498 427.349 262.1 410.775 255.35 C 406.517 253.616 402.513 251.987 398.88 250.369 C 388.587 245.787 382.286 239.431 376.72 233.818 C 373.27 230.338 370.013 227.053 366.286 224.748 C 362.633 222.49 358.454 221.44 353.126 221.44 C 350.899 221.44 348.665 221.623 346.508 221.807 C 343.27 222.08 339.993 222.275 338.317 221.732 C 330.391 219.17 292.797 207.46 267.047 201.154 C 256.391 198.545 243.84 197.221 229.738 197.221 C 217.8 197.221 205.293 198.19 193.558 200.018 C 189.64 200.627 186.679 203.549 186.015 207.459 C 185.355 211.369 187.187 215.104 190.691 216.971 L 297.811 274.135 L 295.803 274.975 C 293.053 276.12 291.061 278.428 290.326 281.311 C 289.588 284.19 290.233 287.174 292.291 289.729 L 313.342 312.901 C 317.291 317.842 321.768 322.385 326.647 326.401 C 338.983 336.561 364.331 357.417 374.358 365.549 C 386.631 375.506 388.17 402.088 388.135 424.135 C 388.1 447.655 377.393 464.205 364.467 481.885 C 352.24 498.592 346.248 521.115 348.029 543.682 C 348.623 551.217 349.807 561.303 351.549 573.662 C 353.475 587.299 364.358 598.01 378.01 599.709 L 401.518 602.639 C 402.311 602.74 403.096 602.783 403.869 602.783 C 409.037 602.783 414.033 600.6 417.568 596.791 C 421.15 592.936 422.904 587.916 422.517 582.658 L 419.709 545.076 C 419.189 538.068 424.014 531.888 430.943 530.701 L 443.943 528.475 C 449.47 527.529 454.267 524.467 457.455 519.853 C 460.635 515.24 461.803 509.669 460.728 504.162 C 456.525 482.646 449.22 445.197 446.673 431.892 C 442.829 411.822 461.861 401.005 465.716 399.037 C 474.814 394.405 481.853 394.522 491.946 399.791 C 497.458 402.674 506.372 413.561 512.876 421.506 C 517.369 426.987 520.908 431.319 523.485 433.459 C 526.524 435.983 541.325 449.127 565.165 470.471 C 569.228 474.112 569.861 480.171 566.63 484.569 L 556.337 498.581 C 553.407 502.577 552.247 507.659 553.15 512.53 C 554.048 517.401 556.954 521.73 561.122 524.405 C 564.036 526.28 567.4 527.273 570.841 527.273 C 578.087 527.273 584.599 522.968 587.439 516.307 L 612.509 457.397 C 616.458 448.101 612.904 437.19 604.228 432.01 L 604.23 432.01 Z M 603.335 453.494 L 578.265 512.4 C 576.398 516.791 570.57 518.638 566.495 516.021 C 564.605 514.806 563.339 512.923 562.929 510.716 C 562.519 508.506 563.027 506.291 564.355 504.478 L 574.644 490.466 C 580.929 481.915 579.702 470.126 571.796 463.048 C 554.87 447.896 533.855 429.13 529.839 425.798 C 527.995 424.267 524.39 419.861 520.57 415.193 C 512.738 405.627 503.863 394.787 496.543 390.959 C 483.527 384.158 473.168 384.041 461.176 390.158 C 446.793 397.49 432.856 412.791 436.871 433.76 C 439.421 447.072 446.734 484.537 450.937 506.065 C 451.491 508.913 450.886 511.8 449.237 514.186 C 447.589 516.573 445.109 518.159 442.245 518.647 L 429.245 520.874 C 417.233 522.932 408.854 533.651 409.761 545.812 L 412.57 583.394 C 412.75 585.855 411.929 588.206 410.253 590.007 C 408.343 592.07 405.574 593.109 402.742 592.749 L 379.23 589.82 C 370.034 588.675 362.703 581.456 361.406 572.273 C 359.695 560.113 358.535 550.23 357.957 542.898 C 356.363 522.675 361.664 502.578 372.504 487.765 C 385.965 469.355 398.055 450.636 398.094 424.148 C 398.133 398.378 396.09 370.351 380.629 357.808 C 370.613 349.687 345.293 328.855 332.977 318.706 C 328.629 315.128 324.637 311.081 320.915 306.436 L 300.395 283.846 L 303.016 282.752 C 306.656 281.232 308.719 277.1 308.875 273.807 C 309.02 270.713 307.621 268.072 305.117 266.736 L 197.777 209.459 C 208.218 207.967 219.207 207.182 229.734 207.182 C 243.039 207.182 254.793 208.409 264.672 210.83 C 290.141 217.069 327.395 228.674 335.25 231.213 C 338.418 232.237 342.598 232.143 347.359 231.733 C 349.238 231.577 351.18 231.401 353.125 231.401 C 356.566 231.401 359.008 231.963 361.051 233.221 C 363.765 234.901 366.488 237.647 369.648 240.834 C 375.519 246.756 382.828 254.127 394.824 259.471 C 398.555 261.132 402.656 262.803 407.015 264.581 C 422.956 271.069 442.792 279.147 460.253 293.702 C 479.413 309.667 558.398 378.03 582.143 398.602 C 585.081 401.145 585.929 405.356 584.206 408.836 L 582.866 411.535 C 578.718 419.902 581.749 430.203 589.764 434.988 L 599.124 440.574 C 603.542 443.203 605.354 448.762 603.339 453.496 L 603.335 453.494 Z"/>
</svg>