<?xml version="1.0" encoding="utf-8"?>
<svg fill="#000000" width="800px" height="800px" version="1.1" viewBox="144 144 512 512" xmlns="http://www.w3.org/2000/svg" xmlns:bx="https://boxy-svg.com">
  <defs>
    <bx:export>
      <bx:file format="svg"/>
    </bx:export>
  </defs>
  <path d="M 610.18 413.43 L 347.5 189.88 C 342.828 185.903 335.977 184.942 330.387 187.509 L 328.324 188.454 C 327.215 188.962 326.039 189.263 324.821 189.36 L 199.321 199.032 C 191.313 199.65 185.298 206.669 185.915 214.677 L 190.598 275.443 C 191.325 284.889 196.145 293.49 203.821 299.041 L 218.075 309.357 C 219.743 310.568 220.794 312.439 220.95 314.49 L 225.981 379.814 C 226.368 384.908 230.673 388.896 235.778 388.896 L 291.118 384.314 L 295.122 436.318 C 295.521 441.404 299.821 445.388 304.919 445.388 L 404.599 437.736 C 412.552 437.096 420.517 439.103 427.255 443.365 L 447.638 456.252 C 451.583 458.748 456.212 459.908 460.915 459.553 L 463.88 459.334 C 465.11 459.334 466.259 459.893 467.021 460.861 L 534.401 546.49 L 583.292 608.627 C 585.948 612.006 589.882 613.94 594.069 613.94 C 598.112 613.94 601.963 612.209 604.639 609.194 C 607.252 606.248 608.42 602.413 607.932 598.393 L 602.51 553.819 C 601.561 546.034 598.326 538.936 593.151 533.299 C 585.045 524.471 575.315 516.557 564.221 509.779 C 553.553 503.263 544.889 493.779 539.162 482.357 L 525.978 456.048 C 524.45 453.005 525.224 449.364 527.853 447.196 L 539.818 437.317 C 545.626 432.52 553.107 430.067 560.65 430.528 L 602.271 433.048 L 602.985 433.071 C 607.681 433.071 611.771 430.204 613.403 425.766 C 615.044 421.329 613.771 416.493 610.177 413.434 L 610.18 413.43 Z M 603.867 422.235 C 603.707 422.66 603.477 422.754 602.903 422.871 L 561.282 420.352 C 551.102 419.731 541.137 423.02 533.352 429.446 L 521.387 439.325 C 515.082 444.528 513.234 453.27 516.894 460.583 L 530.078 486.892 C 536.657 500.021 546.63 510.927 558.927 518.439 C 569.208 524.716 578.2 532.025 585.669 540.154 C 589.395 544.216 591.731 549.357 592.415 555.017 L 597.836 599.591 C 597.977 600.708 597.704 601.661 597.032 602.419 C 595.594 604.048 592.797 604.212 591.301 602.309 L 475.041 454.559 C 472.338 451.122 468.28 449.149 463.9 449.149 C 463.537 449.149 463.174 449.165 462.806 449.192 L 460.154 449.399 C 457.65 449.587 455.189 448.969 453.096 447.645 L 432.713 434.754 C 424.127 429.325 414.045 426.785 403.834 427.578 L 305.287 435.52 L 301.283 383.516 C 300.884 378.426 296.583 374.442 291.486 374.442 L 236.146 379.028 L 231.115 313.696 C 230.728 308.656 228.154 304.067 224.056 301.102 L 209.802 290.786 C 204.556 286.989 201.259 281.11 200.763 274.653 L 196.079 213.887 C 195.896 211.469 197.708 209.351 200.122 209.168 L 325.622 199.496 C 328.032 199.308 330.372 198.707 332.579 197.695 L 334.642 196.75 C 336.7 195.812 339.208 196.16 340.919 197.621 L 603.579 421.181 C 603.735 421.31 604.091 421.614 603.864 422.236 L 603.867 422.235 Z"/>
</svg>