<?xml version="1.0" encoding="UTF-8"?>
<!-- Uploaded to: SVG Find, www.svgfind.com, Generator: SVG Find Mixer Tools -->
<svg fill="#000000" width="800px" height="800px" version="1.1" viewBox="144 144 512 512" xmlns="http://www.w3.org/2000/svg">
 <path d="m611.96 499.81-133.07-215.54c-4.0234-6.5156-10.992-10.398-18.648-10.398-7.6172 0-14.566 3.8633-18.582 10.336-9.2617 14.934-17.09 30.188-23.262 45.336-5.1172 12.559-5.6328 23.309-1.5859 32.859 7.7148 18.199 30.809 27.477 53.145 36.453l4.1211 1.6602c16.594 6.707 22.953 23.609 25.367 36.605 0.72266 3.8789-0.31641 7.8398-2.8359 10.875-2.5234 3.0312-6.2305 4.7734-10.176 4.7734h-192.32c-2.3633 0-4.7461-0.11719-7.082-0.35156l-30.941-3.1172 5.2344-8.6016c5.0586-8.3125 15.117-12.859 24.746-11.117 13.969 2.5273 34.035 5.793 50.277 7.0078 14.188 1.0664 34.551 2.4805 51.449 3.6367 0.33594 0.023438 0.66797 0.035156 0.99219 0.035156h0.003906c5.9258 0 11.094-3.8398 12.863-9.5469 1.793-5.7812-0.28125-11.734-5.2773-15.16l-49.309-33.801c-7.0469-4.832-11.023-13.121-10.379-21.641l0.73438-9.6953c1.1055-14.617-7.2969-28.094-20.91-33.543l-11-4.3984c-2.8711-1.1484-5.4883-2.9492-7.5859-5.2031l-43.555-46.797c-3.6797-3.957-8.6445-6.1367-13.98-6.1367-9.5117 0-17.516 6.7891-19.031 16.141l-26.691 164.59c-2.1289 13.121-0.10938 26.348 5.8398 38.242l5.2773 10.57c2.4023 4.8008 1.4961 10.609-2.2656 14.445l-14.406 14.715c-3.1953 3.2695-4.1172 8.1055-2.3438 12.32 1.7695 4.2148 5.8711 6.9414 10.441 6.9414h281.42v4.8164h-44.02l-11.75-0.003906 14.105 8.5469 3.6719-3.418h43.129v-9.9453h79.84c10.703 0 21.508-2.3594 31.242-6.8203l10.848-4.9766c3.7617-1.7227 6.6055-4.9805 7.8047-8.9375 1.1953-3.9531 0.63281-8.2422-1.543-11.758zm-8.2773 8.7891c-0.35156 1.1602-1.1523 2.0781-2.2578 2.582l-10.855 4.9766c-8.3984 3.8516-17.727 5.8867-26.965 5.8867h-366.39c-0.17578 0-0.71094 0-0.99219-0.66016-0.17969-0.4375-0.10547-0.82812 0.22656-1.1641l14.41-14.715c6.8164-6.9648 8.4688-17.5 4.1055-26.211l-5.2773-10.566c-4.9805-9.9609-6.6719-21.031-4.8867-32.016l26.691-164.6c0.83594-5.1719 5.2031-7.5273 8.9062-7.5273 1.7344 0 4.2656 0.5 6.4648 2.8633l43.555 46.797c3.1211 3.3555 7.0234 6.0312 11.289 7.7422l11.004 4.3984c9.4297 3.7734 15.258 13.113 14.488 23.242l-0.73437 9.6914c-0.92188 12.156 4.7539 23.988 14.805 30.879l49.309 33.801c1.7969 1.2344 1.4961 2.9766 1.2812 3.6641-0.17188 0.54688-0.88672 2.3203-3.3398 2.3203h-0.019531c-16.879-1.1562-37.207-2.5703-51.379-3.6328-15.809-1.1875-35.492-4.3945-49.223-6.875-13.762-2.5-28.113 4.0117-35.336 15.879l-5.2305 8.5977c-1.8516 3.0312-2.0117 6.7422-0.42578 9.9258 1.582 3.1836 4.6367 5.293 8.1719 5.6445l30.934 3.0938c2.6758 0.26953 5.3984 0.40234 8.1055 0.40234h192.32c7 0 13.59-3.0859 18.066-8.4727 4.4727-5.3828 6.3125-12.418 5.0352-19.305-4.1367-22.254-15.066-37.559-31.609-44.246l-4.1484-1.668c-20.391-8.1914-41.473-16.664-47.52-30.934-2.9297-6.9102-2.3945-15.082 1.6367-24.984 5.9609-14.617 13.523-29.355 22.477-43.801 2.1328-3.4375 5.8203-5.4883 9.8672-5.4883 4.0703 0 7.7852 2.0703 9.9219 5.5312l133.07 215.55c0.63672 1.0312 0.79688 2.2383 0.44531 3.3984z"/>
</svg>