<?xml version="1.0" encoding="utf-8"?>
<svg fill="#000000" width="800px" height="800px" version="1.1" viewBox="144 144 512 512" xmlns="http://www.w3.org/2000/svg">
  <path d="M 587.67 221.91 L 557.041 188.703 C 553.787 185.18 547.803 184.91 544.244 188.137 L 457.08 267.196 C 456.088 268.09 455.127 269.008 454.189 269.949 L 405.275 319.246 C 402.1 322.45 402.01 327.555 405.061 330.875 L 418.85 345.82 L 402.674 360.75 C 401.732 361.543 379.529 380.363 371.975 395.707 C 370.228 399.25 370.959 403.497 373.787 406.266 C 374.822 407.282 375.81 408.173 376.752 408.931 L 335.049 476.861 L 312.537 449.494 C 310.092 446.552 305.818 445.533 302.33 447.044 L 300.732 447.767 C 298.767 448.681 298.314 448.927 297.119 448.622 C 294.834 448.076 292.338 448.49 290.705 448.876 C 290.103 449.021 289.537 449.154 289.201 449.154 C 288.646 449.154 287.615 448.08 287.31 447.748 L 282.228 442.236 C 279.15 438.908 273.513 438.619 270.138 441.619 C 254.603 455.357 217.771 488.857 211.267 503.193 C 210.525 504.826 210.091 506.618 209.99 508.533 C 209.845 511.115 209.408 519.971 209.705 525.627 C 209.799 527.302 209.83 529.466 209.873 531.861 C 209.994 539.048 210.15 547.994 211.756 553.552 C 213.752 560.446 216.06 566.45 219.486 573.618 C 221.611 578.091 225.197 586.645 227.826 593.028 C 228.424 594.485 228.705 596.016 228.662 597.583 L 228.603 599.778 C 228.482 604.161 231.814 607.872 236.193 608.219 L 310.275 614.083 L 311.064 614.118 C 316.201 614.118 320.572 610.106 321.002 604.993 C 321.748 596.254 323.306 580.27 325.322 571.407 C 325.587 570.231 325.994 569.094 326.537 568.024 L 345.892 529.391 C 349.915 521.352 353.724 513.754 351.568 503.629 L 351.423 502.93 C 350.278 497.559 351.243 492.035 354.142 487.371 L 394.853 421.801 C 395.298 421.082 395.833 420.426 396.489 419.808 L 587.161 236.377 C 591.255 232.533 591.489 226.037 587.673 221.904 L 587.67 221.91 Z M 580.299 229.18 L 389.639 412.609 C 388.397 413.774 387.307 415.102 386.404 416.559 L 345.697 482.129 C 341.44 488.984 340.022 497.106 341.701 505.008 L 341.846 505.707 C 343.272 512.422 340.647 517.672 337.002 524.941 L 317.654 563.558 C 316.756 565.339 316.072 567.242 315.623 569.206 C 313.478 578.648 311.865 595.147 311.092 604.155 C 311.092 604.155 311.084 604.175 311.064 604.175 L 311.064 609.148 L 311.06 604.175 L 238.587 598.437 L 238.607 597.843 C 238.681 594.886 238.15 591.999 237.025 589.249 C 234.345 582.745 230.689 574.011 228.463 569.339 C 225.287 562.683 223.15 557.136 221.314 550.788 C 220.072 546.499 219.927 537.936 219.818 531.686 C 219.775 529.155 219.732 526.866 219.638 525.092 C 219.361 519.936 219.783 511.53 219.916 509.076 C 219.955 508.408 220.091 507.814 220.322 507.307 C 224.935 497.139 252.849 470.241 275.775 449.901 L 279.998 454.483 C 282.857 457.584 285.869 459.088 289.197 459.088 C 290.693 459.088 291.97 458.783 292.998 458.541 C 293.619 458.393 294.244 458.264 294.771 458.28 C 298.908 459.28 302.162 458.053 304.912 456.78 L 305.455 456.533 L 327.861 483.771 C 329.654 485.932 332.295 487.174 335.099 487.174 C 338.38 487.174 341.373 485.51 343.119 482.705 L 386.412 412.185 C 388.556 408.74 387.533 404.177 384.134 402.017 C 383.334 401.505 382.291 400.646 381.154 399.56 C 388.084 386.146 408.865 368.521 409.24 368.201 L 426.314 352.455 C 428.072 350.83 429.091 348.619 429.189 346.232 C 429.283 343.838 428.443 341.553 426.818 339.799 L 413.357 325.205 L 461.244 276.951 C 462.056 276.134 462.888 275.337 463.748 274.56 L 550.295 196.06 L 580.354 228.65 L 580.299 229.18 Z"/>
</svg>