<?xml version="1.0" encoding="utf-8"?>
<svg fill="#000000" width="800px" height="800px" version="1.1" viewBox="144 144 512 512" xmlns="http://www.w3.org/2000/svg">
  <path d="M 601.46 593.28 C 590.386 583.647 578.105 572.921 571.468 566.971 C 559.933 556.631 553.511 532.955 563.558 507.721 C 565.323 503.287 565.023 498.358 562.741 494.194 C 560.484 490.073 556.538 487.198 551.917 486.315 L 332.785 444.405 C 330.152 443.901 329.496 441.694 329.359 441.03 C 329.222 440.366 328.945 438.085 331.16 436.577 L 425.031 372.62 C 430.8 368.694 434.277 362.182 434.335 355.202 C 434.398 348.226 431.035 341.655 425.335 337.624 L 362.476 293.171 C 357.851 289.898 352.046 288.632 346.484 289.659 L 334.082 291.956 C 324.453 293.742 314.703 288.843 310.367 280.097 L 270.781 200.238 C 265.723 190.039 254.398 184.308 243.156 186.277 L 231.98 188.242 C 219.722 190.406 211 201.418 211.695 213.859 C 212.566 229.363 218.875 241.457 229.945 248.836 C 247.961 260.852 271.695 277.152 281.062 283.606 C 282.644 284.696 283.531 286.497 283.43 288.419 L 282.809 300.192 C 282.394 308.008 285.812 315.579 291.953 320.438 L 322.762 344.813 C 327.203 348.328 332.883 350.094 338.563 349.699 L 341.762 349.492 C 345.227 349.492 348.223 352.078 348.735 355.512 L 352.118 378.231 C 352.868 383.266 350.551 388.239 346.215 390.903 L 200.465 480.497 C 196.106 483.18 193.829 487.997 194.528 493.071 C 195.227 498.145 198.723 502.165 203.645 503.567 L 590.425 613.637 C 591.538 613.953 592.675 614.113 593.796 614.113 L 593.8 614.113 C 598.722 614.113 603.042 611.059 604.812 606.328 C 606.578 601.609 605.293 596.609 601.46 593.277 L 601.46 593.28 Z M 595.308 602.78 C 595.249 602.921 594.632 604.299 593.202 603.882 L 206.432 493.812 C 204.975 493.398 204.655 492.191 204.588 491.687 C 204.518 491.191 204.499 489.941 205.788 489.148 L 351.538 399.55 C 359.338 394.749 363.511 385.796 362.163 376.734 L 358.78 354.015 C 357.53 345.651 350.221 339.343 341.768 339.343 C 341.369 339.343 340.967 339.358 340.557 339.386 L 337.862 339.573 C 334.686 339.776 331.537 338.807 329.065 336.854 L 298.256 312.479 C 294.689 309.659 292.705 305.264 292.947 300.729 L 293.568 288.956 C 293.853 283.562 291.267 278.308 286.822 275.249 C 277.435 268.784 253.658 252.448 235.58 240.394 C 227.15 234.773 222.525 225.656 221.834 213.292 C 221.424 205.98 226.545 199.507 233.748 198.237 L 244.924 196.265 C 251.803 195.061 258.666 198.632 261.694 204.737 L 301.28 284.596 C 306.745 295.619 317.78 302.463 330.073 302.463 C 332.03 302.463 334.003 302.284 335.936 301.924 L 348.338 299.627 C 351.256 299.08 354.229 299.752 356.624 301.448 L 419.483 345.901 C 422.51 348.041 424.229 351.397 424.194 355.104 C 424.162 358.811 422.389 362.135 419.322 364.221 L 325.443 428.186 C 320.518 431.541 318.209 437.252 319.42 443.088 C 320.631 448.924 325.018 453.248 330.873 454.369 L 550.003 496.287 C 551.667 496.603 553.026 497.592 553.839 499.076 C 554.663 500.576 554.765 502.361 554.124 503.97 C 542.358 533.525 550.534 561.841 564.69 574.532 C 571.354 580.505 583.678 591.27 594.795 600.942 C 595.045 601.153 595.701 601.72 595.307 602.782 L 595.308 602.78 Z"/>
</svg>