<?xml version="1.0" encoding="utf-8"?>
<svg fill="#000000" width="800px" height="800px" version="1.1" viewBox="144 144 512 512" xmlns="http://www.w3.org/2000/svg">
  <path d="M 600.38 233.29 L 582.173 217.813 C 578.165 214.407 572.107 213.793 567.478 216.34 L 560.216 220.356 C 558.517 221.297 556.283 220.856 555.06 219.352 L 536.443 196.403 C 532.564 191.622 526.81 188.88 520.65 188.88 C 517.088 188.88 513.568 189.825 510.478 191.614 L 469.173 215.52 C 458.31 221.805 452.689 234.297 455.185 246.602 L 456.146 251.336 C 458.544 263.152 469.31 271.586 481.568 270.801 C 486.185 270.505 490.709 269.071 494.646 266.657 L 503.037 261.516 C 505.732 259.868 509.134 259.547 512.091 260.676 C 520.224 263.774 535.521 269.708 546.65 274.61 C 547.189 274.849 547.451 275.267 547.428 275.86 C 547.4 276.466 547.099 276.872 546.529 277.067 L 358.489 341.583 C 342.591 347.04 333.606 363.466 337.591 379.794 L 355.771 454.274 C 357.146 459.907 360.15 464.934 364.463 468.809 L 374.228 477.602 C 376.752 479.872 378.236 482.993 378.416 486.38 C 378.595 489.77 377.439 493.024 375.17 495.544 L 356.838 515.892 C 340.412 534.119 318.354 546.826 294.725 551.673 C 283.381 554.001 272.952 554.954 262.955 554.415 C 260.505 554.282 258.462 552.849 257.482 550.567 C 256.478 548.235 256.857 545.696 258.49 543.77 L 306.931 486.79 C 322.466 468.513 315.306 442.333 303.548 432.337 C 298.872 428.361 292.825 426.259 286.056 426.259 C 276.857 426.259 267.595 430.162 262.466 436.193 L 205.536 503.173 C 183.286 529.345 176.903 578.368 202.341 599.993 C 211.02 607.372 221.009 611.11 232.036 611.11 C 245.165 611.11 260.001 605.942 278.716 594.837 C 285.169 591.005 293.622 591.478 299.548 596.001 L 310.47 604.341 C 314.106 607.114 318.442 608.583 323.009 608.583 C 329.091 608.583 334.833 605.927 338.767 601.298 L 604.844 288.29 C 618.782 271.895 616.782 247.22 600.384 233.286 L 600.38 233.29 Z M 596.79 281.45 L 330.71 594.45 C 327.351 598.411 321.034 599.11 316.882 595.934 L 305.96 587.595 C 296.749 580.563 283.343 579.802 273.323 585.747 C 256.303 595.841 243.186 600.54 232.034 600.54 C 223.468 600.54 215.995 597.727 209.182 591.938 C 187.209 573.258 196.557 530.036 213.581 510.004 L 270.515 443.035 C 273.624 439.379 280.015 436.824 286.054 436.824 C 288.999 436.824 293.237 437.442 296.699 440.383 C 304.976 447.422 310.062 466.785 298.878 479.945 L 250.437 536.925 C 246.207 541.905 245.183 548.73 247.773 554.745 C 250.336 560.706 255.937 564.616 262.39 564.964 C 273.257 565.55 284.613 564.526 296.843 562.023 C 322.663 556.729 346.757 542.859 364.683 522.968 L 383.015 502.62 C 387.175 497.998 389.289 492.034 388.964 485.827 C 388.636 479.62 385.914 473.909 381.293 469.749 L 371.527 460.956 C 368.804 458.502 366.902 455.323 366.035 451.764 L 347.855 377.284 C 345.171 366.3 351.218 355.245 361.917 351.573 L 549.957 287.061 C 554.625 285.46 557.773 281.241 557.98 276.307 C 558.191 271.389 555.414 266.924 550.91 264.94 C 540.133 260.19 525.898 254.628 515.851 250.799 C 509.87 248.522 502.964 249.162 497.515 252.502 L 489.124 257.643 C 486.644 259.162 483.796 260.065 480.89 260.252 C 473.964 260.78 467.855 255.924 466.495 249.232 L 465.534 244.498 C 463.94 236.642 467.526 228.674 474.46 224.662 L 515.765 200.756 C 519.815 198.4 525.296 199.436 528.234 203.053 L 546.851 226.002 C 551.198 231.365 559.261 232.947 565.316 229.599 L 572.577 225.584 C 573.441 225.107 574.577 225.228 575.327 225.857 L 593.53 241.334 C 605.491 251.494 606.952 269.486 596.788 281.443 L 596.79 281.45 Z"/>
</svg>