<?xml version="1.0" encoding="utf-8"?>
<svg fill="#000000" width="800px" height="800px" version="1.1" viewBox="144 144 512 512" xmlns="http://www.w3.org/2000/svg">
  <path d="M 610.41 204.36 C 607.558 201.071 603.426 199.173 599.07 199.145 L 545.672 198.809 C 542.563 198.809 539.477 199.583 536.742 201.044 L 500.293 220.505 C 495.965 222.813 493.703 227.43 494.539 232.263 C 495.371 237.087 499.039 240.681 503.891 241.411 C 525.18 244.606 558.789 249.669 567.059 250.997 C 571.403 251.696 574.969 254.442 576.594 258.345 C 579.598 265.548 576.414 276.263 567.629 288.513 C 560.102 299.013 508.384 366.844 502.677 372.934 C 498.278 377.629 490.775 379.574 485.251 380.383 C 481.509 380.93 477.782 379.43 475.434 376.485 L 442.547 335.325 C 431.895 321.993 416.094 313.329 399.18 311.567 C 370.461 308.574 347.918 308.633 334.301 311.863 L 267.199 338.695 C 261.84 340.848 259.231 346.961 261.379 352.316 L 292.945 431.531 C 281.582 437.321 253.183 451.91 234.972 462.203 C 227.499 466.438 222.113 473.672 220.195 482.055 L 212.578 515.271 C 212.262 516.661 211.094 517.681 209.676 517.814 L 195.305 519.157 C 190.922 519.56 187.262 522.857 186.406 527.181 L 186.086 528.829 C 185.559 531.477 186.105 534.161 187.617 536.392 C 189.133 538.622 191.43 540.118 194.078 540.61 L 284.043 557.356 L 285.777 563.349 C 286.906 567.255 290.231 570.184 294.246 570.802 L 377.844 583.759 C 384.18 584.724 389.93 580.485 391.067 573.872 C 391.188 573.184 392.036 572.849 392.52 572.837 L 562.19 600.864 C 563.542 601.09 564.882 601.196 566.206 601.196 C 578.272 601.196 588.675 592.172 590.397 580.212 C 591.85 570.192 591.686 561.298 589.924 553.778 C 585.807 536.196 586.338 532.579 587.077 527.575 L 608.202 381.485 C 608.866 376.844 606.319 372.317 602.014 370.481 L 593.682 366.844 L 613.991 216.324 C 614.569 212 613.268 207.64 610.413 204.359 L 610.41 204.36 Z M 583.48 365.46 C 582.859 370.066 585.402 374.554 589.675 376.382 L 598.011 380.015 L 576.999 525.285 L 576.89 526.074 C 575.921 532.617 575.554 537.57 579.898 556.125 C 581.37 562.391 581.468 569.996 580.202 578.738 C 579.093 586.441 571.812 592.031 563.85 590.718 L 394.18 562.691 C 393.544 562.585 392.915 562.535 392.294 562.535 C 386.661 562.535 381.872 566.566 380.845 572.558 C 380.743 573.155 380.294 573.663 379.407 573.593 L 295.649 560.495 L 293.911 554.499 C 292.801 550.663 289.672 547.831 285.747 547.108 L 196.165 530.823 L 196.239 529.401 L 210.622 528.057 C 216.466 527.515 221.282 523.296 222.595 517.573 L 230.212 484.358 C 231.489 478.78 235.072 473.967 240.036 471.155 C 258.063 460.96 286.306 446.46 297.606 440.698 C 302.466 438.23 304.602 432.542 302.571 427.471 L 271.024 348.241 L 337.032 321.788 C 349.423 318.956 370.934 318.972 398.106 321.8 C 412.294 323.281 425.559 330.554 434.504 341.753 L 467.391 382.913 C 472.016 388.702 479.348 391.671 486.735 390.566 C 493.876 389.526 503.743 386.839 510.173 379.976 C 520.173 369.308 555.728 322.788 575.985 294.519 C 590.001 274.964 589.219 261.906 586.083 254.398 C 583.079 247.183 576.571 242.121 568.688 240.855 C 560.403 239.523 526.739 234.452 505.415 231.249 C 505.224 231.226 504.782 231.155 504.673 230.526 C 504.567 229.894 504.966 229.683 505.134 229.589 L 541.587 210.128 C 542.833 209.46 544.243 209.108 545.724 209.108 L 545.727 209.108 L 599.004 209.444 C 600.422 209.456 601.711 210.046 602.641 211.116 C 603.571 212.187 603.977 213.546 603.786 214.952 L 583.48 365.46 Z"/>
</svg>