<?xml version="1.0" encoding="UTF-8"?>
<!-- Uploaded to: SVG Find, www.svgfind.com, Generator: SVG Find Mixer Tools -->
<svg fill="#000000" width="800px" height="800px" version="1.1" viewBox="144 144 512 512" xmlns="http://www.w3.org/2000/svg">
 <path d="m610.41 204.36c-2.8516-3.2891-6.9844-5.1875-11.34-5.2148l-53.398-0.33594c-3.1094 0-6.1953 0.77344-8.9297 2.2344l-36.449 19.461c-4.3281 2.3086-6.5898 6.9258-5.7539 11.758 0.83203 4.8242 4.5 8.418 9.3516 9.1484 21.289 3.1953 54.898 8.2578 63.168 9.5859 4.3438 0.69922 7.9102 3.4453 9.5352 7.3477 3.0039 7.2031-0.17969 17.918-8.9648 30.168-7.5273 10.5-17.156 23.516-26.773 36.238l-8.3555-6.375-26.23 34.379-4.957 0.84766-1.7656 16.441 7.1484-9.3711 26.773-35.09 4.2812 3.2656c-14.977 19.719-29.367 37.996-35.074 44.086-4.3984 4.6953-11.902 6.6406-17.426 7.4492-3.7422 0.54688-7.4688-0.95312-9.8164-3.8984l-32.887-41.16c-10.652-13.332-26.453-21.996-43.367-23.758-28.719-2.9922-51.262-2.9336-64.879 0.29688l-67.102 26.832c-5.3594 2.1523-7.9688 8.2656-5.8203 13.621l31.566 79.215c-11.363 5.7891-39.762 20.379-57.973 30.672-7.4727 4.2344-12.859 11.469-14.777 19.852l-7.6172 33.215c-0.31641 1.3906-1.4844 2.4102-2.9023 2.543l-14.371 1.3438c-4.3828 0.40234-8.043 3.6992-8.8984 8.0234l-0.32031 1.6484c-0.52734 2.6484 0.019531 5.332 1.5312 7.5625 1.5156 2.2305 3.8125 3.7266 6.4609 4.2188l89.965 16.746 1.7344 5.9922c1.1289 3.9062 4.4531 6.8359 8.4688 7.4531l83.598 12.957c6.3359 0.96484 12.086-3.2734 13.223-9.8867 0.12109-0.6875 0.96875-1.0234 1.4531-1.0352l169.67 28.027c1.3516 0.22656 2.6914 0.33203 4.0156 0.33203 12.066 0 22.469-9.0234 24.191-20.984 1.4531-10.02 1.2891-18.914-0.47266-26.434-4.1172-17.582-3.5859-21.199-2.8477-26.203l21.125-146.09c0.66406-4.6406-1.8828-9.168-6.1875-11.004l-8.332-3.6367 20.309-150.52c0.57812-4.3242-0.72266-8.6836-3.5781-11.965zm-26.93 161.1c-0.62109 4.6055 1.9219 9.0938 6.1953 10.922l8.3359 3.6328-21.012 145.27-0.10938 0.78906c-0.96875 6.543-1.3359 11.496 3.0078 30.051 1.4727 6.2656 1.5703 13.871 0.30469 22.613-1.1094 7.7031-8.3906 13.293-16.352 11.98l-169.67-28.027c-0.63672-0.10547-1.2656-0.15625-1.8867-0.15625-5.6328 0-10.422 4.0312-11.449 10.023-0.10156 0.59766-0.55078 1.1055-1.4375 1.0352l-83.758-13.098-1.7383-5.9961c-1.1094-3.8359-4.2383-6.668-8.1641-7.3906l-89.582-16.285 0.074219-1.4219 14.383-1.3438c5.8438-0.54297 10.66-4.7617 11.973-10.484l7.6172-33.215c1.2773-5.5781 4.8594-10.391 9.8242-13.203 18.027-10.195 46.27-24.695 57.57-30.457 4.8594-2.4688 6.9961-8.1562 4.9648-13.227l-31.547-79.23 66.008-26.453c12.391-2.832 33.902-2.8164 61.074 0.011719 14.188 1.4805 27.453 8.7539 36.398 19.953l32.887 41.16c4.625 5.7891 11.957 8.7578 19.344 7.6523 7.1406-1.0391 17.008-3.7266 23.438-10.59 10-10.668 45.555-57.188 65.812-85.457 14.016-19.555 13.234-32.613 10.098-40.121-3.0039-7.2148-9.5117-12.277-17.395-13.543-8.2852-1.332-41.949-6.4023-63.273-9.6055-0.19141-0.023438-0.63281-0.09375-0.74219-0.72266-0.10547-0.63281 0.29297-0.84375 0.46094-0.9375l36.453-19.461c1.2461-0.66797 2.6562-1.0195 4.1367-1.0195h0.003906l53.277 0.33594c1.418 0.011719 2.707 0.60156 3.6367 1.6719s1.3359 2.4297 1.1445 3.8359z"/>
</svg>