<?xml version="1.0" encoding="utf-8"?>
<svg fill="#000000" width="800px" height="800px" version="1.1" viewBox="144 144 512 512" xmlns="http://www.w3.org/2000/svg">
  <path d="M 605.33 459.53 C 598.412 450.956 588.56 445.76 577.58 444.897 L 553.08 442.975 C 547.064 442.502 541.42 440.276 536.756 436.526 C 520.74 423.667 501.475 405.253 488.135 392.069 C 477.463 381.522 470.369 367.526 468.166 352.659 C 465.955 337.749 462.908 316.757 460.955 301.44 C 459.037 286.37 447.779 274.018 432.951 270.706 L 388.053 260.679 C 372.092 257.116 357.623 247.855 347.307 234.601 C 323.94 204.578 292.83 189.355 254.842 189.355 C 239.295 189.355 222.901 191.953 206.104 197.078 C 196.639 199.964 189.452 207.41 186.877 216.988 C 184.291 226.624 186.803 236.73 193.6 244.019 L 329.54 389.849 C 333.595 394.204 334.325 400.591 331.345 405.744 L 330.544 407.134 C 329.876 408.286 328.68 408.974 327.341 408.974 C 326.759 408.974 325.891 408.837 325.044 408.177 C 292.556 382.904 238.634 352.056 216.964 339.966 C 214.565 338.63 211.862 337.923 209.143 337.923 C 201.913 337.923 195.53 342.79 193.616 349.759 C 191.585 357.154 195.077 365.001 201.929 368.411 C 255.745 395.223 316.769 441.88 334.179 455.544 C 337.82 458.396 343.128 458.864 347.206 456.708 L 349.663 455.411 C 355.296 452.443 362.538 453.325 367.272 457.532 L 528.782 600.872 C 533.63 605.173 539.606 608.005 546.052 609.06 C 551.943 610.025 558.091 610.556 564.341 610.638 L 564.829 610.642 C 583.345 610.642 599.196 596.755 601.704 578.337 L 613.747 489.743 C 615.232 478.837 612.243 468.106 605.329 459.532 L 605.33 459.53 Z M 603.631 488.374 L 591.588 576.968 C 589.767 590.351 578.264 600.445 564.83 600.445 L 564.83 605.547 L 564.474 600.441 C 558.732 600.367 553.091 599.879 547.704 598.996 C 543.154 598.25 538.954 596.261 535.556 593.242 L 374.046 449.902 C 369.324 445.714 363.249 443.406 356.929 443.406 C 352.753 443.406 348.589 444.437 344.894 446.39 L 342.433 447.691 C 341.926 447.957 341.308 448.16 340.469 447.515 C 322.86 433.703 261.153 386.519 206.469 359.281 C 203.972 358.039 202.695 355.172 203.437 352.465 C 204.41 348.953 208.715 347.063 211.973 348.883 C 233.446 360.856 286.828 391.391 318.763 416.235 C 321.243 418.161 324.204 419.18 327.329 419.18 C 332.278 419.18 336.891 416.524 339.368 412.243 L 340.177 410.848 C 345.415 401.786 344.137 390.551 336.997 382.891 L 201.063 237.063 C 196.684 232.364 195.063 225.848 196.731 219.633 C 198.387 213.473 203 208.692 209.079 206.836 C 224.903 202.008 240.302 199.559 254.837 199.559 C 289.509 199.559 317.911 213.457 339.251 240.871 C 351.017 255.988 367.56 266.559 385.829 270.641 L 430.727 280.668 C 441.372 283.047 449.454 291.91 450.829 302.734 C 452.798 318.14 455.852 339.199 458.071 354.156 C 460.598 371.195 468.723 387.238 480.958 399.332 C 494.466 412.684 514.005 431.359 530.364 444.488 C 536.633 449.523 544.212 452.519 552.278 453.152 L 576.778 455.074 C 584.93 455.715 592.247 459.57 597.38 465.937 C 602.517 472.304 604.735 480.273 603.63 488.375 L 603.631 488.374 Z"/>
</svg>