<?xml version="1.0" encoding="UTF-8"?>
<!-- Uploaded to: SVG Find, www.svgfind.com, Generator: SVG Find Mixer Tools -->
<svg fill="#000000" width="800px" height="800px" version="1.1" viewBox="144 144 512 512" xmlns="http://www.w3.org/2000/svg">
 <path d="m605.33 459.53c-6.918-8.5742-16.77-13.77-27.75-14.633l-24.5-1.9219c-6.0156-0.47266-11.66-2.6992-16.324-6.4492-16.016-12.859-35.281-31.273-48.621-44.457-10.672-10.547-17.766-24.543-19.969-39.41-2.2109-14.91-5.2578-35.902-7.2109-51.219-1.918-15.07-13.176-27.422-28.004-30.734l-44.898-10.027c-15.961-3.5625-30.43-12.824-40.746-26.078-23.367-30.023-54.477-45.246-92.465-45.246-15.547 0-31.941 2.5977-48.738 7.7227-9.4648 2.8867-16.652 10.332-19.227 19.91-2.5859 9.6367-0.074219 19.742 6.7227 27.031l135.94 145.83c4.0547 4.3555 4.7852 10.742 1.8047 15.895l-0.80078 1.3906c-0.66797 1.1523-1.8633 1.8398-3.2031 1.8398-0.58203 0-1.4492-0.13672-2.2969-0.79688-32.488-25.273-86.41-56.121-108.08-68.211-2.3984-1.3359-5.1016-2.043-7.8203-2.043-7.2305 0-13.613 4.8672-15.527 11.836-2.0312 7.3945 1.4609 15.242 8.3125 18.652 53.816 26.812 114.84 73.469 132.25 87.133 3.6406 2.8516 8.9492 3.3203 13.027 1.1641l2.457-1.2969c5.6328-2.9688 12.875-2.0859 17.609 2.1211l161.51 143.34c4.8477 4.3008 10.824 7.1328 17.27 8.1875 5.8906 0.96484 12.039 1.4961 18.289 1.5781l0.48828 0.003907c18.516 0 34.367-13.887 36.875-32.305l12.043-88.594c1.4844-10.906-1.5039-21.637-8.418-30.211zm-1.6992 28.844-12.043 88.594c-1.8203 13.383-13.324 23.477-26.758 23.477v5.1016l-0.35547-5.1055c-5.7422-0.074219-11.383-0.5625-16.77-1.4453-4.5508-0.74609-8.75-2.7344-12.148-5.7539l-161.51-143.34c-4.7227-4.1875-10.797-6.4961-17.117-6.4961-4.1758 0-8.3398 1.0312-12.035 2.9844l-2.4609 1.3008c-0.50781 0.26562-1.125 0.46875-1.9648-0.17578-17.609-13.812-79.316-60.996-134-88.234-2.4961-1.2422-3.7734-4.1094-3.0312-6.8164 0.97266-3.5117 5.2773-5.4023 8.5352-3.582 21.473 11.973 74.855 42.508 106.79 67.352 2.4805 1.9258 5.4414 2.9453 8.5664 2.9453 4.9492 0 9.5625-2.6562 12.039-6.9375l0.80859-1.3945c5.2383-9.0625 3.9609-20.297-3.1797-27.957l-47.34-50.781 7.5508-7.0742-29.34-31.309-0.015626-4.9922-15.801-4.4258 7.9961 8.5352 29.945 31.957-3.8164 3.5781-85.113-91.316c-4.3789-4.6992-6-11.215-4.332-17.43 1.6562-6.1602 6.2695-10.941 12.348-12.797 15.824-4.8281 31.223-7.2773 45.758-7.2773 34.672 0 63.074 13.898 84.414 41.312 11.766 15.117 28.309 25.688 46.578 29.77l44.898 10.027c10.645 2.3789 18.727 11.242 20.102 22.066 1.9688 15.406 5.0234 36.465 7.2422 51.422 2.5273 17.039 10.652 33.082 22.887 45.176 13.508 13.352 33.047 32.027 49.406 45.156 6.2695 5.0352 13.848 8.0312 21.914 8.6641l24.5 1.9219c8.1523 0.64063 15.469 4.4961 20.602 10.863 5.1367 6.3672 7.3555 14.336 6.25 22.438z"/>
</svg>