<?xml version="1.0" encoding="utf-8"?>
<svg fill="#000000" width="800px" height="800px" version="1.1" viewBox="144 144 512 512" xmlns="http://www.w3.org/2000/svg">
  <path d="M 603.82 249.77 C 589.215 229.372 572.273 226.329 563.472 226.329 C 556.214 226.329 549.077 228.337 544.374 231.704 L 519.312 249.645 C 516.339 251.774 512.839 252.899 509.195 252.899 C 503.582 252.899 498.277 250.18 495.019 245.622 L 486.308 233.454 C 473.953 216.2 441.679 214.856 432.078 214.856 C 428.969 214.856 426.055 214.981 423.648 215.207 C 416.066 215.934 410.359 219.777 407.992 225.762 C 406.008 230.77 406.906 236.496 410.285 240.34 C 411.496 241.723 413.176 243.551 414.992 245.477 C 416.098 246.66 415.797 247.973 415.617 248.481 C 415.438 248.985 414.848 250.188 413.25 250.399 L 375.215 255.532 C 367.278 256.602 360.297 261.473 356.543 268.555 C 349.785 281.301 337.781 305.301 333.32 322.825 C 330.394 334.286 333.469 341.438 336.562 345.419 C 341.015 351.149 348.699 354.438 357.644 354.438 C 362.379 354.438 367.066 353.532 371.206 351.817 C 380.624 347.919 464.233 313.395 499.666 302.454 C 510.666 299.052 520.916 301.688 530.283 310.278 C 534.112 313.79 535.83 318.95 534.881 324.079 C 533.924 329.263 530.428 333.517 525.533 335.45 L 340.983 408.45 C 333.745 411.313 327.311 416.013 322.381 422.04 C 311.147 435.774 284.022 468.841 274.819 479.192 C 266.741 488.274 256.659 494.141 249.135 494.141 C 244.854 494.141 241.475 492.251 238.791 488.36 C 233.069 480.071 239.823 472.766 257.803 456.864 C 262.112 453.051 266.569 449.106 271.112 444.735 C 280.788 435.422 284.862 423.204 282.901 409.407 C 281.651 400.626 274.308 394.255 265.44 394.255 C 261.304 394.255 257.425 395.685 254.206 398.392 L 197.128 446.419 C 186.37 455.466 182.874 470.743 188.632 483.571 L 203.152 515.915 C 205.48 521.106 206.813 526.618 207.105 532.298 C 207.668 542.935 208.227 557.661 208.641 569.591 C 208.945 578.31 216.027 585.146 224.766 585.146 C 228.113 585.146 231.34 584.099 234.102 582.118 L 566.784 343.975 C 590.112 327.28 604.456 311.682 610.647 296.291 C 616.967 280.568 614.674 264.92 603.831 249.771 L 603.82 249.77 Z M 601.203 292.493 C 595.832 305.841 582.262 320.384 560.855 335.704 L 228.175 573.844 C 224.71 576.321 218.972 574.375 218.788 569.231 C 218.417 558.34 217.847 542.997 217.253 531.758 C 216.89 524.824 215.261 518.094 212.417 511.746 L 197.897 479.398 C 193.991 470.699 196.362 460.332 203.659 454.191 L 260.741 406.168 C 262.1 405.023 263.725 404.418 265.432 404.418 C 268.655 404.418 272.221 406.625 272.823 410.832 C 274.327 421.41 271.377 430.352 264.049 437.406 C 259.663 441.628 255.284 445.5 251.053 449.242 C 234.569 463.82 218.998 477.594 230.408 494.125 C 234.998 500.781 241.474 504.301 249.123 504.301 C 261.623 504.301 274.51 494.816 282.404 485.942 C 291.404 475.821 316.24 445.59 330.244 428.473 C 334.076 423.785 339.08 420.125 344.713 417.895 L 529.263 344.899 C 537.435 341.668 543.267 334.575 544.865 325.922 C 546.455 317.328 543.568 308.676 537.143 302.781 C 525.088 291.73 511.12 288.277 496.655 292.734 C 460.784 303.816 376.765 338.5 367.305 342.422 C 364.43 343.613 360.996 344.269 357.633 344.269 C 351.847 344.269 347.09 342.414 344.578 339.18 C 342.105 335.996 341.628 331.34 343.16 325.336 C 347.363 308.836 358.972 285.66 365.519 273.313 C 367.737 269.117 371.866 266.238 376.566 265.606 L 414.601 260.473 C 419.48 259.813 423.538 256.524 425.183 251.883 C 426.835 247.239 425.769 242.117 422.394 238.516 C 420.671 236.676 419.073 234.946 417.917 233.625 C 417.042 232.629 416.851 230.973 417.429 229.5 C 418.347 227.192 420.96 225.668 424.601 225.321 C 426.667 225.122 429.315 225.012 432.065 225.012 C 449.319 225.012 470.452 228.782 478.022 239.36 L 486.733 251.528 C 491.901 258.747 500.295 263.055 509.182 263.055 C 514.96 263.055 520.506 261.274 525.217 257.899 L 550.279 239.958 C 552.518 238.356 557.315 236.485 563.459 236.485 C 571.823 236.485 584.186 239.813 595.537 255.68 C 604.362 267.992 606.209 280.032 601.198 292.489 L 601.203 292.493 Z"/>
</svg>