<?xml version="1.0" encoding="UTF-8"?>
<!-- Uploaded to: SVG Find, www.svgfind.com, Generator: SVG Find Mixer Tools -->
<svg fill="#000000" width="800px" height="800px" version="1.1" viewBox="144 144 512 512" xmlns="http://www.w3.org/2000/svg">
 <path d="m603.82 249.77c-14.605-20.398-31.547-23.441-40.348-23.441-7.2578 0-14.395 2.0078-19.098 5.375l-25.062 17.941c-2.9727 2.1289-6.4727 3.2539-10.117 3.2539-5.6133 0-10.918-2.7188-14.176-7.2773l-8.7109-12.168c-12.355-17.254-44.629-18.598-54.23-18.598-3.1094 0-6.0234 0.125-8.4297 0.35156-7.582 0.72656-13.289 4.5703-15.656 10.555-1.9844 5.0078-1.0859 10.734 2.293 14.578 1.2109 1.3828 2.8906 3.2109 4.707 5.1367 1.1055 1.1836 0.80469 2.4961 0.625 3.0039-0.17969 0.50391-0.76953 1.707-2.3672 1.918l-38.035 5.1328c-7.9375 1.0703-14.918 5.9414-18.672 13.023-6.7578 12.746-18.762 36.746-23.223 54.27-2.9258 11.461 0.14844 18.613 3.2422 22.594 4.4531 5.7305 12.137 9.0195 21.082 9.0195 4.7344 0 9.4219-0.90625 13.562-2.6211 9.418-3.8984 93.027-38.422 128.46-49.363 11-3.4023 21.25-0.76562 30.617 7.8242 3.8281 3.5117 5.5469 8.6719 4.5977 13.801-0.95703 5.1836-4.4531 9.4375-9.3477 11.371l-184.55 73c-7.2383 2.8633-13.672 7.5625-18.602 13.59-11.234 13.734-38.359 46.801-47.562 57.152-8.0781 9.082-18.16 14.949-25.684 14.949-4.2812 0-7.6602-1.8906-10.344-5.7812-5.7227-8.2891 1.0312-15.594 19.012-31.496 4.3086-3.8125 8.7656-7.7578 13.309-12.129 9.6758-9.3125 13.75-21.531 11.789-35.328-1.25-8.7812-8.5938-15.152-17.461-15.152-4.1367 0-8.0156 1.4297-11.234 4.1367l-57.078 48.027c-10.758 9.0469-14.254 24.324-8.4961 37.152l14.52 32.344c2.3281 5.1914 3.6602 10.703 3.9531 16.383 0.5625 10.637 1.1211 25.363 1.5352 37.293 0.30469 8.7188 7.3867 15.555 16.125 15.555 3.3477 0 6.5742-1.0469 9.3359-3.0273l118.36-84.723 3.0273 4.1875-35.367 25.551-9.4453 6.8242 16.293-1.3203 0.96484-4.8789 34.648-25.031-5.9883-8.293 210.19-150.46c23.328-16.695 37.672-32.293 43.863-47.684 6.3203-15.723 4.0273-31.371-6.8164-46.52zm-2.6172 42.723c-5.3711 13.348-18.941 27.891-40.348 43.211l-332.68 238.14c-3.4648 2.4766-9.2031 0.53125-9.3867-4.6133-0.37109-10.891-0.94141-26.234-1.5352-37.473-0.36328-6.9336-1.9922-13.664-4.8359-20.012l-14.52-32.348c-3.9062-8.6992-1.5352-19.066 5.7617-25.207l57.082-48.023c1.3594-1.1445 2.9844-1.75 4.6914-1.75 3.2227 0 6.7891 2.207 7.3906 6.4141 1.5039 10.578-1.4453 19.52-8.7734 26.574-4.3867 4.2227-8.7656 8.0938-12.996 11.836-16.484 14.578-32.055 28.352-20.645 44.883 4.5898 6.6562 11.066 10.176 18.715 10.176 12.5 0 25.387-9.4844 33.281-18.359 9-10.121 33.836-40.352 47.84-57.469 3.832-4.6875 8.8359-8.3477 14.469-10.578l184.55-72.996c8.1719-3.2305 14.004-10.324 15.602-18.977 1.5898-8.5938-1.2969-17.246-7.7227-23.141-12.055-11.051-26.023-14.504-40.488-10.047-35.871 11.082-119.89 45.766-129.35 49.688-2.875 1.1914-6.3086 1.8477-9.6719 1.8477-5.7852 0-10.543-1.8555-13.055-5.0898-2.4727-3.1836-2.9492-7.8398-1.418-13.844 4.2031-16.5 15.812-39.676 22.359-52.023 2.2188-4.1953 6.3477-7.0742 11.047-7.707l38.035-5.1328c4.8789-0.66016 8.9375-3.9492 10.582-8.5898 1.6523-4.6445 0.58594-9.7656-2.7891-13.367-1.7227-1.8398-3.3203-3.5703-4.4766-4.8906-0.875-0.99609-1.0664-2.6523-0.48828-4.125 0.91797-2.3086 3.5312-3.832 7.1719-4.1797 2.0664-0.19922 4.7148-0.30859 7.4648-0.30859 17.254 0 38.387 3.7695 45.957 14.348l8.7109 12.168c5.168 7.2188 13.562 11.527 22.449 11.527 5.7773 0 11.324-1.7812 16.035-5.1562l25.062-17.941c2.2383-1.6016 7.0352-3.4727 13.18-3.4727 8.3633 0 20.727 3.3281 32.078 19.195 8.8242 12.312 10.672 24.352 5.6602 36.809z"/>
</svg>