<?xml version="1.0" encoding="UTF-8"?>
<!-- Uploaded to: SVG Find, www.svgfind.com, Generator: SVG Find Mixer Tools -->
<svg fill="#000000" width="800px" height="800px" version="1.1" viewBox="144 144 512 512" xmlns="http://www.w3.org/2000/svg">
 <path d="m610.93 211.54c-4.582-5.6992-13.309-7.1797-19.508-3.082l-241.68 159.89-2.9414-4.457 36.508-24.086 9.75-6.4297-16.375 0.62891-1.1758 4.8438-35.77 23.598 5.75 8.7148-151.81 100.44c-5.2656 3.4805-8.2305 9.5625-7.75 15.871 0.48828 6.3242 4.1992 11.676 9.9336 14.309 13.609 6.25 30.281 1.4336 47.973-14.152 1.0898-0.96094 2.3047-2.1484 3.6094-3.4258 3.6328-3.5625 9.1211-8.9492 12.73-8.9492 0.47266 0 1.9141 0 3.8906 2.9492 7.2773 10.875 2.793 23.293-5.7461 29.012-4.7812 3.1992-7.8945 4.0508-11.496 5.043-3.7656 1.0352-8.043 2.207-13.816 6.0742-8.2852 5.543-7.8242 16.75 1.2773 30.754 1.543 2.3633 3.3594 4.4648 5.4062 6.2422 5.8828 5.1211 14.59 10.391 20.867 13.914 4.2148 2.3633 9.293 3.0664 13.98 1.9766 2.8125-0.65625 6.1172-1.3945 9.2422-2.0586 0.36328 0 0.61328 0.20312 0.73047 0.32031 0.21484 0.21875 0.3125 0.48828 0.30469 0.80469-0.10156 3.5781-0.51172 7.5352-1.2305 11.77-0.49219 2.9492 0.32422 5.9375 2.2383 8.2031 1.9492 2.3047 4.793 3.6289 7.7891 3.6289 1.8164 0 3.6133-0.5 5.1953-1.4453l68.754-40.965c5.7617-3.4297 10.734-7.8398 14.781-13.102 10.539-13.68 20.918-33.367 26.484-43.941l2.375-4.4727c4.7969-8.9141 4.1992-21.738 3.3672-39.484-0.25781-5.5625-0.54297-11.602-0.67578-18.105-0.20312-9.6445 2.9805-18.684 9.4766-26.871 1.5312-1.9336 3.5547-2.2227 4.6172-2.2227 2.1133 0 4.0469 1.0664 5.1641 2.8516 6.3047 10.051 15.422 24.645 21.746 35.07 7.3711 12.148 20.668 19.402 35.57 19.402 8.1875 0 16.195-2.2305 23.156-6.4531 19.438-11.793 24.707-33.543 21.379-48.754-1.9453-8.9141-8.4062-29.91-13.488-45.957-1.4844-4.6797-0.28516-9.7812 3.1289-13.32l75.082-77.953c3.6328-3.7656 6.1406-8.4531 7.2578-13.551l6.7773-30.816c0.96484-4.3633-0.070313-8.8281-2.8281-12.254zm-7.1211 10.059-6.7773 30.82c-0.71484 3.2578-2.3203 6.2539-4.6445 8.6641l-75.078 77.949c-6.0078 6.2305-8.1172 15.223-5.5039 23.469 4.1016 12.969 11.281 36.07 13.246 45.059 2.5781 11.789-1.5547 28.668-16.711 37.863-5.3711 3.2539-11.547 4.9766-17.871 4.9766-11.312 0-21.355-5.418-26.859-14.492-6.3516-10.465-15.496-25.113-21.832-35.199-2.9922-4.7734-8.1523-7.625-13.793-7.625-4.9453 0-9.5391 2.2188-12.602 6.0781-7.8984 9.9531-11.938 21.512-11.684 33.422 0.14062 6.5977 0.42188 12.727 0.6875 18.367 0.72656 15.5 1.2969 27.746-2.1602 34.176l-2.418 4.5547c-5.4297 10.305-15.531 29.484-25.543 42.477-3.2578 4.2383-7.2695 7.793-11.918 10.562l-68.695 40.93c0.78125-4.6523 1.2344-9.0508 1.3555-13.07 0.085937-3.082-1.043-5.9961-3.1914-8.1953-2.1055-2.168-5.0352-3.4102-8.0391-3.4102-0.81641 0-1.6367 0.089844-2.4453 0.26562-2.9219 0.64844-6.2656 1.3984-9.1133 2.0586-2.25 0.52344-4.668 0.18359-6.6836-0.94141-4.7891-2.6914-13.652-7.918-19.16-12.711-1.3281-1.1602-2.5273-2.5469-3.5469-4.1172-4.3984-6.7656-7.3906-14.562-4.1562-16.723 4.3984-2.9453 7.3906-3.7656 10.848-4.7188 3.8906-1.0664 8.3008-2.2773 14.461-6.3984 12.699-8.5039 19.375-26.969 8.5508-43.148-4.1367-6.1758-9.0039-7.4727-12.363-7.4727-7.7695 0-14.477 6.5781-19.867 11.867-1.1641 1.1406-2.2383 2.1992-3.2109 3.0547-14.422 12.703-27.082 17.09-36.977 12.539-3.3477-1.5391-3.9375-4.5898-4.0312-5.832-0.20313-2.6641 0.99609-5.125 3.2109-6.5898l397.75-263.14c1.9844-1.3203 4.5234-0.79688 5.9414 0.96484 0.58594 0.71875 1.2031 1.9453 0.82422 3.668z"/>
</svg>