<?xml version="1.0" encoding="UTF-8"?>
<!-- Uploaded to: SVG Find, www.svgfind.com, Generator: SVG Find Mixer Tools -->
<svg fill="#000000" width="800px" height="800px" version="1.1" viewBox="144 144 512 512" xmlns="http://www.w3.org/2000/svg">
 <path d="m610.29 190.66c-2.9961-5.2852-10.844-6.5039-15.211-2.043-27.574 28.16-77.297 78.453-100.57 98.91-32.047 28.168-65.957 39.434-110.28 48.48-10.434 2.1328-24.008 3.2109-40.336 3.2109-23.52 0-47.418-2.2734-59.566-3.6289-5.2891-0.58984-10.078-3.668-12.812-8.2383l-10.129-16.914c-3.4609-5.7773-10.242-9-17.027-7.8672-5.2305 0.87891-9.5234 4.5469-11.207 9.582l-39.816 119.31c-1.3047 3.9102-2.2227 7.8711-2.7188 11.766-3.3125 25.742-1.9727 45.555-1.2422 52.883 0.36719 3.582 2.2031 6.918 5.043 9.1445l62.746 49.168-3.2227 4.0547-35.008-27.82-9.3477-7.4297 5.8164 15.711 5.0781-0.39844 34.297 27.258 6.4883-8.1641 65.672 51.457c4.1953 3.2852 9.2227 5.0273 14.531 5.0234 8.4023 0 15.984-4.3008 20.285-11.5l13.488-22.586c2.4922-4.168 3.207-9.0586 2.0195-13.77-1.1875-4.707-4.1406-8.6719-8.3086-11.164l-21.102-12.605c-3.125-1.8633-6.6992-2.8477-10.336-2.8477l-16.262 0.55078c-4.1133 0-7.9453-1.8438-10.52-5.0586l-16.203-20.242c-2.1836-2.7344-2.4492-6.5898-0.47656-9.8984 2.0195-3.3828 6.5703-4.8086 10.18-3.0977l65.883 31.18c5.2812 2.5 10.906 3.7656 16.723 3.7656 13.715 0 26.598-7.3125 33.625-19.078l57.266-95.891c7.6641-12.832 3.5117-29.602-9.2539-37.375l-12.102-7.3711c-1.293-0.78516-2.418-1.8789-3.2617-3.1602-3.8555-5.8594-6.2695-12.309-7.6133-16.688-0.32031-1.043 0.23047-2.1406 1.25-2.5l78.773-27.66c7.1719-2.5195 13.273-7.5039 17.176-14.035l67.414-112.89c1.7969-2.9961 1.8633-6.5664 0.17578-9.5391zm-76.531 117.09c-2.6562 4.4453-6.8047 7.8359-11.688 9.5508l-78.773 27.66c-6.3164 2.2188-9.7227 8.9805-7.7578 15.387 1.543 5.0273 4.3359 12.469 8.8711 19.355 1.6836 2.5625 3.9453 4.75 6.5469 6.3359l12.105 7.3711c7.9023 4.8125 10.473 15.191 5.7305 23.137l-57.27 95.887c-5.1602 8.6367-14.617 14-24.684 14-4.2617 0-8.3906-0.92969-12.266-2.7656l-65.883-31.18c-8.2969-3.9219-18.816-0.80469-23.758 7.4727-4.0117 6.7148-3.4258 15.332 1.4648 21.445l16.203 20.242c4.5586 5.6953 11.359 8.9648 18.652 8.9648l16.262-0.55078c1.7578 0 3.4844 0.47656 4.9922 1.375l21.102 12.602c1.7812 1.0625 3.0391 2.7578 3.5469 4.7656 0.50781 2.0117 0.20312 4.0977-0.85938 5.8789l-13.488 22.586c-2.4023 4.0234-6.6406 6.4219-11.34 6.4219-2.957 0-5.7578-0.96875-8.1055-2.8047l-132.52-103.83c-0.62891-0.49219-1.0195-1.1992-1.0977-1.9805-0.69531-6.9688-1.9688-25.836 1.207-50.516 0.41406-3.2266 1.1797-6.5234 2.2734-9.7969l39.816-119.31c0.45703-1.3672 1.6211-2.3672 3.043-2.6055 0.34375-0.058594 0.6875-0.085938 1.0312-0.085938 2.1758 0 4.2188 1.1602 5.3359 3.0273l10.129 16.914c4.3945 7.3398 12.094 12.293 20.594 13.238 12.367 1.3828 36.699 3.6953 60.723 3.6953 17.027 0 31.301-1.1484 42.422-3.418 45.996-9.3906 81.293-21.176 115.07-50.867 22.152-19.473 67.727-65.391 96.074-94.285z"/>
</svg>