<?xml version="1.0" encoding="UTF-8"?>
<!-- Uploaded to: SVG Find, www.svgfind.com, Generator: SVG Find Mixer Tools -->
<svg fill="#000000" width="800px" height="800px" version="1.1" viewBox="144 144 512 512" xmlns="http://www.w3.org/2000/svg">
 <path d="m614 223.78c-0.71484-6.4414-4.6406-11.941-10.5-14.711l-26.82-12.684c-13.594-6.4219-30.398-4.5508-42.242 4.6836l-15.312 11.945c-3.082 2.4062-7.8281 1.8047-10.215-1.2617l-7.293-9.3516c-3.5312-4.5273-8.8516-7.1211-14.598-7.1211-4.1523 0-8.082 1.3516-11.363 3.9102l-171.29 133.59-3.3789-4.3477 34.504-26.836 9.2148-7.168-16.266 1.8984-0.79297 4.918-33.805 26.293 6.5117 8.3711-80.789 63.008c-38.078 29.699-44.895 84.84-15.195 122.91l41.848 53.656c16.512 21.176 36.473 31.914 59.32 31.914 28.234 0 51.789-16.664 58.34-21.773l23.578-18.387c7.5898-5.9219 8.9492-16.922 3.0234-24.516l-34.551-44.305c-1.0703-1.3711-0.82422-3.3633 0.54688-4.4297 0.70703-0.55078 1.4375-0.66797 1.9297-0.66797 0.98438 0 1.8945 0.44141 2.4961 1.2148l3.0156 3.8633c4.4414 5.707 13.367 6.8203 19.09 2.3594 5.9102-4.6172 6.9688-13.176 2.3555-19.082l-19.184-24.594c-3.6914-4.7344-2.8438-11.59 1.8906-15.281l143.91-112.24c5.3906-4.207 7.9805-10.754 6.9375-17.508-1.0508-6.7578-5.5039-12.211-11.918-14.586l-5.168-1.9141c-10.539-3.9062-16.551-15.102-13.992-26.039l0.29688-1.2734c1.6016-6.8477 8.957-11.117 15.75-8.9336l41.781 13.336c8.7383 2.7969 18.711 1.0078 25.945-4.6328l35.352-27.57c5.125-3.9922 7.7539-10.223 7.0352-16.664zm-13.289 8.6289-35.352 27.57c-4.6211 3.6094-10.973 4.7539-16.586 2.9609l-41.777-13.336c-2.2344-0.71094-4.5352-1.0703-6.8594-1.0703-10.5 0-19.512 7.1484-21.91 17.379l-0.29687 1.2734c-3.7305 15.93 5.0234 32.23 20.367 37.918l5.168 1.9141c2.8984 1.0781 4.918 3.543 5.3906 6.6016 0.47266 3.0547-0.70312 6.0117-3.1367 7.9141l-143.91 112.24c-9.1602 7.1484-10.797 20.414-3.6562 29.574l19.184 24.598c1.1523 1.4805 0.89062 3.6328-0.58594 4.7891-0.76562 0.59766-1.5664 0.72266-2.0977 0.72266-1.0664 0-2.0508-0.47656-2.6953-1.3125l-3.0156-3.8672c-4.3672-5.5938-13.125-6.6836-18.727-2.3086-5.8008 4.5234-6.832 12.922-2.3125 18.727l34.555 44.305c2.4688 3.1641 1.8984 7.75-1.2617 10.219l-23.578 18.387c-5.8984 4.6016-27.09 19.617-52.074 19.617-19.547 0-36.805-9.418-51.293-27.992l-41.848-53.66c-12.711-16.297-18.312-36.574-15.777-57.086 2.5352-20.516 12.91-38.816 29.211-51.527l256.09-199.74c1.4727-1.1484 3.2383-1.7539 5.0977-1.7539 2.5859 0 4.9805 1.168 6.5586 3.1992l7.2969 9.3516c3.332 4.2734 8.3555 6.7266 13.777 6.7266 3.9258 0 7.6328-1.2773 10.738-3.6953l15.312-11.945c8.8594-6.9062 21.441-8.3125 31.617-3.5078l26.828 12.684c2.6758 1.2656 4.4023 3.6797 4.7266 6.625 0.32812 2.9492-0.82422 5.6836-3.1641 7.5078z"/>
</svg>