<?xml version="1.0" encoding="utf-8"?>
<svg fill="#000000" width="800px" height="800px" version="1.1" viewBox="144 144 512 512" xmlns="http://www.w3.org/2000/svg">
  <path d="M 607.35 208.45 C 610.651 202.653 609.811 195.485 605.256 190.618 C 600.842 185.895 593.361 184.509 587.553 187.345 L 498.799 230.657 C 496.854 231.606 494.784 232.25 492.639 232.567 L 452.248 238.586 C 438.557 240.629 428.584 252.602 429.049 266.434 L 429.877 290.922 C 430.088 297.133 431.932 303.207 435.217 308.488 L 461.779 351.207 C 464.259 355.196 464.838 360.039 463.365 364.5 L 458.97 377.797 C 458.341 379.707 456.189 380.801 454.22 380.063 L 453.314 379.723 C 449.228 378.188 444.666 378.204 440.584 379.762 L 328.154 422.914 L 327.76 422.078 C 326.271 418.953 323.193 417.012 319.724 417.012 C 317.424 417.012 315.236 417.891 313.576 419.488 L 271.806 459.629 C 267.876 463.403 264.556 467.747 261.935 472.531 L 221.419 546.574 C 220.548 548.168 219.442 549.61 218.134 550.863 L 195.552 572.519 C 192.368 575.57 190.622 579.68 190.638 584.089 C 190.653 588.496 192.423 592.589 195.63 595.616 C 199.794 599.554 204.985 604.538 209.778 609.389 C 212.793 612.436 216.817 614.116 221.106 614.116 C 224.977 614.116 228.707 612.714 231.622 610.159 L 281.184 566.71 C 291.106 558.015 303.231 552.276 316.25 550.116 C 328.594 548.065 337.996 546.308 344.191 544.89 C 351.046 543.319 355.964 537.073 355.886 530.035 L 355.839 525.476 L 441.94 514.983 C 444.049 514.722 446.143 514.28 448.151 513.671 C 464.796 508.616 521.651 489.937 554.561 461.616 C 557.342 459.225 558.666 455.635 558.108 452.026 L 556.514 441.643 C 556.366 440.674 556.698 439.686 557.409 439.003 L 570.62 426.261 C 578.178 418.975 582.515 409.187 582.831 398.687 L 585.948 295.497 C 586.163 288.418 583.842 281.477 579.42 275.95 L 575.432 270.965 C 574.124 269.328 573.948 267.094 574.983 265.27 L 607.35 208.45 Z M 567.28 277.509 L 571.268 282.493 C 574.143 286.083 575.647 290.595 575.51 295.192 L 572.393 398.382 C 572.159 406.132 568.956 413.366 563.374 418.745 L 550.159 431.487 C 547.01 434.523 545.526 438.921 546.194 443.245 L 547.753 453.706 C 515.589 481.382 456.62 500.186 445.123 503.679 C 443.685 504.117 442.193 504.433 440.685 504.617 L 353.794 515.199 C 348.954 515.785 345.337 519.91 345.388 524.785 L 345.443 530.148 C 345.466 532.304 343.962 534.222 341.868 534.703 C 335.876 536.074 326.684 537.793 314.548 539.808 C 299.603 542.285 285.685 548.875 274.298 558.855 L 224.736 602.304 C 222.627 604.156 219.189 604.039 217.217 602.043 C 212.334 597.105 207.053 592.027 202.815 588.02 C 201.713 586.977 201.104 585.57 201.096 584.055 C 201.092 582.535 201.69 581.121 202.787 580.066 L 225.373 558.414 C 227.455 556.422 229.213 554.125 230.596 551.594 L 271.112 477.555 C 273.222 473.7 275.893 470.211 279.054 467.172 L 319.265 428.531 C 321.433 432.625 326.64 434.625 331.023 432.945 L 444.323 389.527 C 446.022 388.875 447.916 388.859 449.643 389.512 L 450.549 389.852 C 452.147 390.449 453.815 390.754 455.51 390.754 C 461.608 390.754 466.99 386.863 468.901 381.074 L 473.292 367.777 C 475.741 360.367 474.78 352.312 470.655 345.683 L 444.093 302.964 C 441.777 299.241 440.472 294.952 440.327 290.569 L 439.499 266.081 C 439.21 257.558 445.355 250.183 453.788 248.929 L 494.179 242.91 C 497.378 242.429 500.476 241.472 503.378 240.054 L 592.132 196.742 C 593.949 195.852 596.242 196.281 597.613 197.754 C 599.023 199.262 599.285 201.477 598.261 203.273 L 565.902 260.109 C 562.742 265.68 563.281 272.507 567.281 277.511 L 567.28 277.509 Z"/>
</svg>