<?xml version="1.0" encoding="utf-8"?>
<svg fill="#000000" width="800px" height="800px" version="1.1" viewBox="144 144 512 512" xmlns="http://www.w3.org/2000/svg">
  <path d="M 589.44 396.65 L 566.823 371.627 C 555.132 358.689 538.425 351.272 520.987 351.272 C 515.284 351.272 509.604 352.065 504.104 353.624 L 373.484 390.729 C 370.211 391.658 366.828 392.131 363.433 392.131 C 351.843 392.131 340.796 386.572 333.882 377.26 L 331.667 374.275 C 323.105 362.74 322.511 347.427 330.148 335.263 L 354.699 296.154 C 356.031 294.037 358.007 293.721 359.066 293.721 C 360.867 293.721 363.109 294.639 364.003 297.213 L 371.152 317.787 C 374.71 328.025 384.386 334.908 395.226 334.908 C 398.48 334.908 401.671 334.287 404.718 333.064 C 415.968 328.545 422.503 316.615 420.253 304.693 C 418.351 294.619 415.808 280.185 414.503 268.623 C 413.401 258.885 418.749 242.861 429.167 224.662 C 430.878 221.67 434.726 220.276 437.995 221.514 C 441.061 222.67 442.976 225.748 442.643 228.998 C 441.206 243.119 440.37 269.838 450.909 290.088 C 459.765 307.104 473.296 315.729 491.136 315.729 C 497.894 315.729 505.214 314.495 513.519 311.96 C 526.679 307.936 560.738 295.269 579.867 288.073 C 584.828 286.206 588.754 282.514 590.922 277.682 C 593.098 272.83 593.239 267.428 591.324 262.459 C 584.824 245.6 571.828 223.084 546.828 211.557 C 526.211 202.049 498.895 193.799 479.609 188.553 C 458.203 182.725 434.863 186.545 416.379 198.877 C 395.887 212.553 375.59 227.334 356.055 242.818 C 331.301 262.435 311.129 288.029 297.727 316.822 L 207.247 511.221 C 203.508 519.256 202.395 528.104 204.036 536.815 C 206.067 547.596 216.372 555.127 227.548 553.237 L 236.173 551.795 C 245.181 550.288 253.931 555.12 257.587 563.225 C 260.942 570.667 265.235 577.928 270.345 584.815 C 278.466 595.76 296.161 614.12 323.423 614.12 C 339.814 614.12 357.138 607.433 374.915 594.241 L 585.345 438.061 C 591.689 433.347 595.779 426.135 596.556 418.268 C 597.337 410.401 594.739 402.522 589.439 396.659 L 589.44 396.65 Z M 579.186 429.755 L 368.756 585.935 C 352.799 597.779 337.545 603.783 323.424 603.783 C 300.686 603.783 285.604 588.037 278.639 578.65 C 273.967 572.357 270.053 565.736 267.002 558.97 C 262.127 548.165 251.318 541.181 239.463 541.181 C 237.799 541.181 236.119 541.322 234.467 541.599 L 225.838 543.04 C 220.311 543.974 215.186 540.247 214.186 534.9 C 212.952 528.322 213.788 521.638 216.612 515.568 L 307.096 321.178 C 319.823 293.838 338.975 269.537 362.475 250.912 C 381.791 235.603 401.858 220.986 422.12 207.467 C 438.136 196.776 458.362 193.471 476.901 198.514 C 495.807 203.654 522.538 211.721 542.506 220.932 C 564.361 231.006 575.877 251.096 581.69 266.17 C 582.604 268.549 582.541 271.134 581.502 273.451 C 580.467 275.752 578.6 277.509 576.237 278.4 C 557.221 285.548 523.393 298.134 510.503 302.076 C 503.194 304.314 496.858 305.396 491.14 305.396 C 477.269 305.396 467.109 298.83 460.078 285.318 C 450.777 267.447 451.605 243.013 452.921 230.041 C 453.73 222.139 449.089 214.658 441.648 211.846 C 433.75 208.862 424.378 212.245 420.207 219.526 C 411.961 233.932 402.496 254.342 404.242 269.78 C 405.582 281.655 408.172 296.366 410.106 306.608 C 411.446 313.694 407.559 320.788 400.871 323.479 C 399.055 324.21 397.16 324.577 395.231 324.577 C 388.785 324.577 383.032 320.487 380.915 314.397 L 373.766 293.823 C 371.563 287.483 365.797 283.393 359.071 283.393 C 353.716 283.393 348.813 286.112 345.954 290.662 L 321.403 329.771 C 311.481 345.568 312.255 365.451 323.376 380.431 L 325.591 383.416 C 334.442 395.342 348.591 402.455 363.439 402.455 C 367.786 402.455 372.118 401.849 376.314 400.658 L 506.934 363.553 C 511.512 362.252 516.242 361.592 520.993 361.592 C 535.516 361.592 549.427 367.772 559.169 378.541 L 581.786 403.564 C 585.184 407.326 586.786 412.181 586.286 417.228 C 585.786 422.29 583.266 426.732 579.192 429.755 L 579.186 429.755 Z"/>
</svg>