<?xml version="1.0" encoding="UTF-8"?>
<!-- Uploaded to: SVG Find, www.svgfind.com, Generator: SVG Find Mixer Tools -->
<svg fill="#000000" width="800px" height="800px" version="1.1" viewBox="144 144 512 512" xmlns="http://www.w3.org/2000/svg">
 <path d="m489.68 270.67c17.34 1.2891 47.25 6.8203 63.539 10 9.9102 1.9336 20.367 0.10156 29.016-5.082l13.238-7.9258c4.8945-2.9297 8.4727-7.7891 9.8203-13.332l4.7969-19.77c2.1172-8.7109-0.49609-18.07-6.8164-24.422-7.2188-7.2617-19.367-17.195-36.246-23.305-3.7227-1.3477-7.9062-1.2656-11.637 0.22656l-148.07 59.113c-5.0273 2.0078-8.7031 6.3672-9.832 11.664-1.1289 5.293 0.44922 10.77 4.2148 14.648l4.1836 4.3125c2.3359 2.4062 3.2656 5.793 2.4922 9.0586l-30.977 130.41c-2.6367 11.109-9.2969 20.746-18.754 27.137l-163.06 110.25c-5.3945 3.6484-7.6484 10.043-5.7344 16.293 1.8984 6.1953 7.25 10.199 13.633 10.199 0.33594 0 0.67188-0.011719 1.4336-0.066406 3.8398-0.33203 7.8867-0.88281 12.125-1.6523l0.38281 0.45312-2.2109 18.391c-0.51562 4.2695 0.82422 8.5586 3.668 11.766 2.8711 3.2305 6.9648 5.0859 11.246 5.0859 1.4805 0 2.9609-0.22266 4.3984-0.65625l116.46-35.355 3.0703 10.156 41.559-12.57 4.5352 2.2227 11.102-12.348-53.746 16.254-1.5781-5.2188 58.809-17.852c5.5625-1.6914 10.098-5.7109 12.441-11.031 2.3477-5.3281 2.2539-11.402-0.25781-16.66-12.121-25.379-10.656-36.613-7.293-41.57 20.465-30.145 61.797-45.871 122.84-46.75 7.1719-0.10156 13.859-3.3672 18.348-8.9492 4.4961-5.5898 6.2461-12.836 4.8047-19.875-1.9297-9.4023-4.2188-18.746-5.8008-24.926-0.26562-1.0508 0.15234-1.832 0.42969-2.207 0.27344-0.375 0.89844-1.0078 1.9766-1.0625l31.617-1.5742c4.4453-0.22266 8.5039-2.4141 11.129-6.0117 2.625-3.5938 3.4727-8.125 2.3281-12.426l-3.3555-12.605c-2.0078-7.5547-7.5625-13.746-14.852-16.574l-118.35-45.859c-2.332-0.90234-4.0312-2.9102-4.543-5.3711-0.5-2.4062 0.19531-4.7578 1.9141-6.4609 6.0781-6.0234 13.184-8.7891 21.566-8.168zm-33.59 16.73c1.2305 5.9023 5.3125 10.727 10.922 12.898l118.34 45.863c4.2188 1.6367 7.4375 5.2227 8.6016 9.6016l3.3555 12.605c0.46484 1.7461-0.23047 3.0586-0.69141 3.6836-0.45703 0.62891-1.4961 1.6953-3.3008 1.7852l-31.617 1.5742c-3.8945 0.19531-7.457 2.1094-9.7734 5.25-2.3164 3.1406-3.0898 7.1133-2.1211 10.891 1.5508 6.0703 3.7969 15.242 5.6875 24.441 0.82031 4.0156-0.17188 8.1445-2.7344 11.328-2.5547 3.1797-6.3633 5.0352-10.449 5.0938-64.613 0.92969-108.77 18.184-131.23 51.277-7.2031 10.605-5.0703 27.555 6.5156 51.82 1.2148 2.543 1.2617 5.4727 0.12891 8.043-1.1289 2.5625-3.3125 4.4961-5.9922 5.3086l-180.2 54.715c-1.793 0.55859-3.6875-0.015625-4.918-1.3984-0.51953-0.58594-1.3594-1.8438-1.1406-3.6797l2.2109-18.395c0.36719-3.0469-0.58984-6.1055-2.6211-8.3945-2.0352-2.293-4.957-3.6133-8.0078-3.6133-0.64453 0-1.3008 0.058594-1.957 0.17969-3.8164 0.69922-7.5352 1.207-11.051 1.5117l-0.54297 0.027344c-2.6641 0-3.5508-2.2148-3.7578-2.8984-0.21484-0.69922-0.73047-3.1094 1.6406-4.7109l163.07-110.24c11.605-7.8477 19.777-19.672 23.02-33.309l30.977-130.41c1.5898-6.7148-0.32422-13.684-5.1289-18.633l-4.1875-4.3164c-1.3828-1.4258-1.9414-3.3594-1.5273-5.3047 0.41797-1.9492 1.7148-3.4883 3.5625-4.2266l148.06-59.117c1.3906-0.55859 2.9375-0.59766 4.293-0.10547 15.082 5.4531 25.965 14.359 32.441 20.871 3.8047 3.8242 5.375 9.4609 4.1016 14.707l-4.7969 19.77c-0.69922 2.8711-2.5547 5.3906-5.0898 6.9102l-13.238 7.9258c-6.4805 3.8789-14.332 5.2461-21.73 3.8086-16.516-3.2266-46.883-8.8359-64.754-10.164-11.445-0.87109-21.445 3.0508-29.598 11.125-4.1953 4.1445-5.9727 10.09-4.7617 15.898z"/>
</svg>