<?xml version="1.0" encoding="utf-8"?>
<svg fill="#000000" width="800px" height="800px" version="1.1" viewBox="144 144 512 512" xmlns="http://www.w3.org/2000/svg">
  <path d="M 489.68 270.67 C 507.02 271.959 536.93 277.49 553.219 280.67 C 563.129 282.604 573.586 280.772 582.235 275.588 L 595.473 267.662 C 600.367 264.733 603.946 259.873 605.293 254.33 L 610.09 234.56 C 612.207 225.849 609.594 216.49 603.274 210.138 C 596.055 202.876 583.907 192.943 567.028 186.833 C 563.305 185.485 559.122 185.568 555.391 187.06 L 407.321 246.173 C 402.293 248.181 398.618 252.54 397.489 257.837 C 396.36 263.13 397.938 268.607 401.704 272.485 L 405.887 276.797 C 408.223 279.203 409.153 282.59 408.379 285.856 L 377.402 416.266 C 374.766 427.375 368.105 437.012 358.648 443.403 L 195.588 553.653 C 190.194 557.301 187.94 563.696 189.854 569.946 C 191.752 576.141 197.104 580.145 203.487 580.145 C 203.823 580.145 204.159 580.133 204.921 580.078 C 208.76 579.746 212.807 579.196 217.046 578.426 L 217.428 578.879 L 215.217 597.27 C 214.702 601.54 216.042 605.829 218.885 609.036 C 221.757 612.267 225.85 614.122 230.131 614.122 C 231.612 614.122 233.092 613.899 234.53 613.466 L 414.741 558.755 C 420.304 557.063 424.839 553.044 427.182 547.724 C 429.53 542.396 429.436 536.322 426.924 531.064 C 414.803 505.685 416.268 494.451 419.631 489.494 C 440.096 459.349 481.428 443.623 542.471 442.744 C 549.643 442.642 556.33 439.377 560.819 433.795 C 565.316 428.205 567.066 420.959 565.624 413.92 C 563.694 404.517 561.405 395.174 559.823 388.994 C 559.558 387.943 559.976 387.162 560.253 386.787 C 560.526 386.412 561.151 385.779 562.23 385.724 L 593.847 384.15 C 598.292 383.927 602.351 381.736 604.976 378.138 C 607.601 374.544 608.448 370.013 607.304 365.712 L 603.948 353.107 C 601.94 345.553 596.386 339.361 589.096 336.533 L 470.746 290.674 C 468.414 289.772 466.715 287.764 466.203 285.303 C 465.703 282.897 466.399 280.545 468.117 278.842 C 474.195 272.819 481.301 270.053 489.683 270.674 L 489.68 270.67 Z M 456.09 287.4 C 457.32 293.302 461.402 298.127 467.012 300.298 L 585.352 346.161 C 589.571 347.798 592.789 351.384 593.954 355.763 L 597.309 368.368 C 597.774 370.114 597.079 371.426 596.618 372.051 C 596.161 372.68 595.122 373.747 593.317 373.836 L 561.7 375.411 C 557.805 375.606 554.243 377.52 551.927 380.661 C 549.61 383.801 548.837 387.774 549.805 391.552 C 551.356 397.622 553.602 406.794 555.493 415.993 C 556.313 420.008 555.321 424.137 552.759 427.321 C 550.204 430.5 546.395 432.356 542.31 432.414 C 477.697 433.344 433.54 450.598 411.08 483.691 C 403.877 494.296 406.009 511.246 417.595 535.511 C 418.81 538.054 418.857 540.984 417.724 543.554 C 416.595 546.117 414.412 548.051 411.732 548.863 L 231.532 603.578 C 229.739 604.137 227.844 603.562 226.614 602.18 C 226.094 601.594 225.255 600.336 225.473 598.5 L 227.684 580.105 C 228.051 577.058 227.094 573.999 225.063 571.711 C 223.028 569.417 220.106 568.097 217.055 568.097 C 216.411 568.097 215.755 568.156 215.098 568.277 C 211.282 568.976 207.563 569.484 204.047 569.789 L 203.504 569.816 C 200.84 569.816 199.954 567.601 199.747 566.918 C 199.532 566.218 199.016 563.808 201.387 562.207 L 364.457 451.967 C 376.062 444.119 384.234 432.295 387.477 418.658 L 418.454 288.248 C 420.044 281.533 418.13 274.564 413.325 269.615 L 409.138 265.298 C 407.755 263.873 407.196 261.939 407.61 259.994 C 408.028 258.044 409.325 256.505 411.173 255.767 L 559.233 196.65 C 560.624 196.091 562.17 196.052 563.526 196.545 C 578.608 201.998 589.491 210.904 595.967 217.416 C 599.772 221.24 601.342 226.876 600.069 232.123 L 595.272 251.893 C 594.573 254.764 592.717 257.283 590.182 258.803 L 576.944 266.729 C 570.463 270.608 562.612 271.975 555.214 270.537 C 538.698 267.311 508.331 261.701 490.46 260.373 C 479.015 259.502 469.015 263.424 460.862 271.498 C 456.667 275.643 454.889 281.588 456.1 287.396 L 456.09 287.4 Z"/>
</svg>