<?xml version="1.0" encoding="UTF-8"?>
<!-- Uploaded to: SVG Find, www.svgfind.com, Generator: SVG Find Mixer Tools -->
<svg fill="#000000" width="800px" height="800px" version="1.1" viewBox="144 144 512 512" xmlns="http://www.w3.org/2000/svg">
 <path d="m613.13 215c-1.4922-3.3125-4.5156-5.6875-8.082-6.3555l-16.215-3.043c-9.6289-1.8047-19.938 0.5625-27.809 6.3828l-295.45 218.54c-0.60938 0.44922-1.3086 0.28516-1.7422-0.20312-0.23828-0.26172-0.32422-0.56641-0.28125-0.96094l24.383-218.4c0.53516-4.7734-1.8672-9.3047-6.1133-11.543-2.0625-1.0859-4.375-1.6602-6.6875-1.6602-6.0234 0-11.445 3.8008-13.504 9.4531l-9.6289 26.477c-0.77344 2.1172-3.0156 2.4883-4.4727 1.6836l-15.93-8.7109c-1.7305-0.94531-3.6758-1.4453-5.625-1.4453-5.8477 0-10.711 4.1953-11.562 9.9766-3.207 21.758-8.5352 60.355-8.168 74.426 0.22656 8.6406 3.5469 21.602 9.8633 38.516 3.3945 9.0898 1.1016 19.359-5.8398 26.168-3.6797 3.6094-7.457 7.4805-11.23 11.512-13.723 14.672-17.027 35.961-8.4141 54.242l20.188 42.855c4.0742 8.6445 12.48 14.676 21.941 15.727 4.0625 0.45313 8.6484 0.68359 13.637 0.68359 10.883 0 21.836-1.082 29.359-2.0078 0.69531 0 1.1289 0.37891 1.3203 0.60938 0.23047 0.26562 0.48047 0.71875 0.38281 1.3672-1.7734 11.586-5.1562 35.383-7.8867 64.625-1.793 19.207 7.1016 32.422 25.047 37.203 2.832 0.75391 5.7461 1.1367 8.6602 1.1367 14.711 0 27.809-9.4688 32.59-23.562l1.0977-3.2305c2.0312-5.9766 7.6289-9.9922 13.926-9.9922 1.582 0 3.1523 0.26562 4.6562 0.78516 12.824 4.4414 28.051 8.8633 38.566 11.785 9.9297 2.7617 20.777-0.83984 27.121-8.9648l33.027-42.336c2.7344-3.5 7.8672-4.625 11.926-2.5977 7.418 3.7188 15.992 6.8359 25.477 9.2695 1.3281 0.33984 2.6875 0.51172 4.0391 0.51172 8.7344 0 15.879-6.8672 16.262-15.633 0.36719-8.418 0.87891-17.422 1.2188-23.16 0.32812-5.4727-2.3164-10.691-6.9102-13.609-17.953-11.426-27.363-22.996-27.977-34.398-0.66016-12.32 9.25-22.93 17.68-29.66 2.3633-1.8867 4.3945-4.2383 6.0273-6.9766l25.77-43.176 8.9688 5.3789 21.879-36.5 4.7578-1.3711-0.078125-16.273-5.9648 9.9492-22.332 37.254-4.6367-2.7812 82.184-137.69c1.8633-3.1289 2.082-6.9688 0.58594-10.277zm-9.2773 5.082-110.55 185.21c-1.0078 1.6953-2.2383 3.125-3.6484 4.25-14.754 11.777-22.176 24.957-21.473 38.109 0.79688 14.855 11.781 29.121 32.648 42.398 1.4922 0.94922 2.3516 2.6602 2.2422 4.4688-0.34375 5.7812-0.85938 14.844-1.2266 23.32-0.16797 3.7969-3.9531 6.7148-7.6758 5.7578-8.7852-2.2539-16.68-5.1172-23.457-8.5117-2.7734-1.3906-5.8672-2.1211-8.9492-2.1211-6.1055 0-11.754 2.7461-15.492 7.543l-33.027 42.336c-3.8438 4.9336-10.402 7.1211-16.426 5.4414-10.379-2.8867-25.387-7.2422-37.965-11.598-2.5742-0.89062-5.2539-1.3438-7.9727-1.3438-10.637 0-20.082 6.7734-23.512 16.859l-1.0977 3.2305c-3.3906 9.9844-12.637 16.691-23.008 16.691-2.0352 0-4.0703-0.26562-6.0508-0.79688-13.164-3.5078-18.91-12.172-17.578-26.484 2.707-28.984 6.0586-52.559 7.8125-64.031 0.52344-3.418-0.46094-6.8789-2.707-9.4922-2.2578-2.625-5.5391-4.1328-9.0039-4.1328-0.49609 0-0.99219 0.03125-1.5039 0.09375-6.9883 0.87109-17.496 1.9141-27.855 1.9141-4.6133 0-8.8242-0.20703-12.512-0.61719-5.9922-0.66797-11.32-4.4961-13.906-9.9844l-20.188-42.852c-6.8359-14.504-4.2227-31.391 6.6484-43.016 3.6758-3.9258 7.3516-7.6953 10.926-11.199 9.7969-9.6016 13.031-24.098 8.2422-36.934-5.8438-15.641-9.0352-27.824-9.2305-35.238-0.35938-13.805 5.5195-55.43 8.0625-72.684 0.21094-1.4531 1.543-1.5547 2.3164-1.1289l15.93 8.7109c1.9531 1.0664 4.1523 1.6289 6.3633 1.6289 5.5664 0 10.582-3.5156 12.48-8.7383l9.6289-26.477c1.0234-2.8203 3.9922-3.3359 5.957-2.2969 0.53906 0.28516 0.84375 0.85937 0.77734 1.4648l-24.383 218.4c-0.36719 3.2734 0.625 6.4102 2.793 8.8359 2.1836 2.4414 5.3047 3.8438 8.5586 3.8438 2.4258 0 4.7578-0.77734 6.75-2.25l295.45-218.54c5.6406-4.1719 13.031-5.8594 19.918-4.5703l16.219 3.043c0.42188 0.078125 0.625 0.35156 0.72266 0.56641 0.097656 0.21875 0.17188 0.55469-0.050781 0.92188z"/>
</svg>