<?xml version="1.0" encoding="UTF-8"?>
<!-- Uploaded to: SVG Find, www.svgfind.com, Generator: SVG Find Mixer Tools -->
<svg fill="#000000" width="800px" height="800px" version="1.1" viewBox="144 144 512 512" xmlns="http://www.w3.org/2000/svg">
 <path d="m597.12 541.29c-1.9727-4.7539-5.707-8.3867-10.516-10.227l-148.71-57c-12.797-4.9062-22.277-15.805-25.363-29.156-2.9844-12.898 0.45703-26.531 9.2031-36.473l38.41-43.629c4.8594-5.5156 6.6836-12.781 5.0117-19.941-1.6758-7.1562-6.5352-12.859-13.332-15.648l-75.516-30.973c-8.7461-3.5859-19.203-2.1289-26.629 3.7031l-10.852 8.5156c-5.0586 3.9688-11.117 6.0703-17.527 6.0703-9.1914 0-17.867-4.4648-23.191-11.941l-27.391-38.465c-4.8594-6.8203-8.1914-14.793-9.6406-23.043l-0.085937-0.50391c-1.5391-8.793-4.7695-17.059-9.5977-24.574l-16.27-25.309c-2.7383-4.2656-7.3984-6.8125-12.469-6.8125-5.4062 0-10.23 2.8047-12.906 7.5-2.1484 3.7656-4.1992 7.8828-6.0938 12.254-3.8828 8.9766-2.6133 19.406 3.3125 27.219l66.422 87.547c12.438 16.387 32.324 25.863 53.012 25.238l70.914-2.3398c2.3555 0 3.5586 1.5781 3.9688 2.2539 0.40625 0.67578 1.2344 2.4688 0.12891 4.5664l-36.262 68.625c-2.6523 5.0156-7.0664 8.7969-12.43 10.645l-73.891 25.461c-5.9805 2.0586-9.9883 7.2617-10.461 13.57-0.47266 6.3086 2.7188 12.051 8.3242 14.98l102.06 53.316-4.918 9.3672 37.801 19.855 1.6445 4.6875 16.297-1-10.301-5.4102-38.582-20.266 2.5625-4.8828 45.562 23.801c2.0664 1.0742 3.957 2.4531 5.6289 4.0898 9.4453 9.2695 24.848 23.086 36.098 33.043 10.285 9.1055 23.461 14.117 37.09 14.117 2.3711 0 4.7656-0.15625 7.1211-0.46094 18.531-2.4141 37.168-8.2773 49.547-12.77 9.6133-3.4961 17.516-10.875 21.68-20.25l10.957-24.68c2.0859-4.707 2.1523-9.918 0.17969-14.672zm-9.4609 10.551-10.957 24.68c-3.0508 6.8633-8.832 12.27-15.867 14.824-11.891 4.3203-29.77 9.9531-47.383 12.246-12.973 1.7031-26.285-2.4336-36.18-11.188-11.16-9.8789-26.426-23.562-35.715-32.684-2.3789-2.3398-5.0859-4.3047-8.0391-5.8438l-152.12-79.469c-2.9375-1.5391-2.9609-4.3867-2.9023-5.2227 0.066406-0.83594 0.51172-3.6484 3.6484-4.7305l73.879-25.461c7.8164-2.6914 14.242-8.1953 18.098-15.5l36.262-68.625c2.4492-4.6289 2.2969-10.07-0.40234-14.551-2.7031-4.4805-7.4297-7.1602-13.145-7.1602h-0.03125l-70.742 2.3398c-17.316 0.59766-34.129-7.4414-44.582-21.227l-66.418-87.551c-3.7188-4.8984-4.5156-11.434-2.0859-17.043 1.75-4.0234 3.6289-7.8125 5.5977-11.258 0.84766-1.4883 2.375-2.375 4.0859-2.375 0.76953 0 2.6836 0.20703 3.9258 2.1445l16.27 25.312c4.0898 6.3672 6.8281 13.375 8.1328 20.816l0.085937 0.50781c1.7109 9.75 5.6445 19.152 11.375 27.195l27.391 38.465c7.2266 10.148 18.992 16.207 31.461 16.207 8.707 0 16.934-2.8477 23.797-8.2344l10.855-8.5156c4.6016-3.6133 11.078-4.5195 16.504-2.293l75.516 30.973c3.7227 1.5273 6.3867 4.6484 7.3008 8.5664 0.91797 3.918-0.078125 7.8984-2.7422 10.918l-38.414 43.633c-10.902 12.395-15.191 29.391-11.473 45.469 3.8477 16.645 15.676 30.234 31.629 36.348l148.7 56.988c2.1836 0.83594 3.8789 2.4844 4.7695 4.6406 0.89844 2.1562 0.86719 4.5195-0.078126 6.6562z"/>
</svg>