<?xml version="1.0" encoding="utf-8"?>
<svg fill="#000000" width="800px" height="800px" version="1.1" viewBox="144 144 512 512" xmlns="http://www.w3.org/2000/svg">
  <path d="M 613.13 215 C 611.638 211.688 608.614 209.313 605.048 208.645 L 588.833 205.602 C 579.204 203.797 568.895 206.164 561.024 211.984 L 265.574 430.524 C 264.965 430.974 264.265 430.809 263.832 430.321 C 263.594 430.059 263.508 429.755 263.551 429.36 L 287.934 210.96 C 288.469 206.187 286.066 201.656 281.82 199.417 C 279.758 198.331 277.445 197.757 275.133 197.757 C 269.109 197.757 263.688 201.558 261.629 207.21 L 252 233.687 C 251.226 235.804 248.984 236.175 247.527 235.371 L 231.597 226.66 C 229.867 225.715 227.921 225.215 225.972 225.215 C 220.124 225.215 215.261 229.41 214.41 235.191 C 211.203 256.949 205.875 295.546 206.242 309.617 C 206.469 318.258 209.789 331.219 216.105 348.133 C 219.5 357.223 217.207 367.492 210.266 374.301 C 206.586 377.911 202.809 381.782 199.036 385.813 C 185.313 400.485 182.009 421.774 190.622 440.055 L 210.81 482.91 C 214.884 491.555 223.29 497.586 232.751 498.637 C 236.813 499.09 241.399 499.321 246.388 499.321 C 257.271 499.321 268.224 498.239 275.747 497.313 C 276.442 497.313 276.875 497.692 277.067 497.922 C 277.297 498.188 277.547 498.641 277.45 499.289 C 275.676 510.875 272.293 534.672 269.563 563.914 C 267.77 583.121 276.665 596.336 294.61 601.117 C 297.442 601.871 300.356 602.254 303.27 602.254 C 317.981 602.254 331.079 592.785 335.86 578.692 L 336.958 575.462 C 338.989 569.485 344.587 565.469 350.884 565.469 C 352.466 565.469 354.036 565.735 355.54 566.255 C 368.364 570.696 383.591 575.118 394.106 578.04 C 404.036 580.801 414.883 577.2 421.227 569.075 L 454.254 526.739 C 456.988 523.239 462.121 522.114 466.18 524.141 C 473.598 527.86 482.172 530.977 491.657 533.411 C 492.985 533.75 494.345 533.922 495.696 533.922 C 504.431 533.922 511.575 527.055 511.958 518.289 C 512.325 509.871 512.837 500.867 513.177 495.129 C 513.505 489.657 510.86 484.438 506.267 481.52 C 488.314 470.094 478.904 458.524 478.29 447.122 C 477.63 434.802 487.54 424.192 495.97 417.462 C 498.333 415.576 500.364 413.224 501.997 410.486 L 612.545 225.276 C 614.408 222.148 614.627 218.308 613.131 214.999 L 613.13 215 Z M 603.853 220.082 L 493.303 405.292 C 492.295 406.987 491.064 408.417 489.654 409.542 C 474.9 421.319 467.478 434.499 468.181 447.651 C 468.978 462.506 479.962 476.772 500.829 490.049 C 502.322 490.998 503.181 492.709 503.072 494.518 C 502.728 500.299 502.212 509.362 501.845 517.838 C 501.677 521.635 497.892 524.553 494.169 523.596 C 485.384 521.342 477.489 518.478 470.712 515.084 C 467.939 513.693 464.845 512.963 461.763 512.963 C 455.657 512.963 450.009 515.709 446.271 520.506 L 413.244 562.842 C 409.4 567.775 402.842 569.963 396.818 568.283 C 386.439 565.397 371.431 561.041 358.853 556.685 C 356.279 555.795 353.599 555.341 350.88 555.341 C 340.243 555.341 330.798 562.115 327.368 572.2 L 326.271 575.431 C 322.88 585.415 313.634 592.122 303.263 592.122 C 301.227 592.122 299.192 591.856 297.212 591.325 C 284.048 587.817 278.302 579.153 279.634 564.841 C 282.341 535.857 285.692 512.282 287.446 500.81 C 287.97 497.392 286.985 493.931 284.739 491.318 C 282.481 488.693 279.2 487.185 275.735 487.185 C 275.239 487.185 274.743 487.216 274.231 487.279 C 267.243 488.15 256.735 489.193 246.376 489.193 C 241.763 489.193 237.552 488.986 233.864 488.576 C 227.872 487.908 222.544 484.08 219.958 478.591 L 199.77 435.739 C 192.935 421.235 195.548 404.348 206.419 392.723 C 210.095 388.798 213.77 385.028 217.345 381.524 C 227.142 371.923 230.376 357.426 225.587 344.59 C 219.743 328.949 216.552 316.766 216.357 309.352 C 215.997 295.547 221.876 253.922 224.419 236.668 C 224.63 235.215 225.962 235.114 226.735 235.539 L 242.665 244.25 C 244.619 245.317 246.818 245.879 249.029 245.879 C 254.595 245.879 259.611 242.364 261.509 237.141 L 271.138 210.664 C 272.161 207.844 275.13 207.328 277.095 208.367 C 277.634 208.652 277.938 209.226 277.872 209.832 L 253.489 428.232 C 253.122 431.505 254.114 434.642 256.282 437.068 C 258.466 439.509 261.587 440.912 264.841 440.912 C 267.266 440.912 269.598 440.134 271.591 438.662 L 567.041 220.122 C 572.681 215.95 580.072 214.262 586.959 215.551 L 603.178 218.594 C 603.599 218.672 603.803 218.946 603.9 219.161 C 603.998 219.379 604.072 219.715 603.849 220.083 L 603.853 220.082 Z"/>
</svg>