<?xml version="1.0" encoding="utf-8"?>
<svg fill="#000000" width="800px" height="800px" version="1.1" viewBox="144 144 512 512" xmlns="http://www.w3.org/2000/svg">
  <path d="M 597.12 541.29 C 595.147 536.536 591.413 532.903 586.604 531.063 L 437.894 474.063 C 425.097 469.157 415.617 458.258 412.531 444.907 C 409.547 432.009 412.988 418.376 421.734 408.434 L 460.144 364.805 C 465.003 359.289 466.828 352.024 465.156 344.864 C 463.48 337.708 458.621 332.005 451.824 329.216 L 376.308 298.243 C 367.562 294.657 357.105 296.114 349.679 301.946 L 338.827 310.462 C 333.768 314.43 327.71 316.532 321.3 316.532 C 312.108 316.532 303.433 312.067 298.109 304.591 L 270.718 266.126 C 265.858 259.306 262.526 251.333 261.077 243.083 L 260.991 242.579 C 259.452 233.786 256.222 225.52 251.394 218.005 L 235.124 192.696 C 232.385 188.43 227.725 185.884 222.655 185.884 C 217.248 185.884 212.425 188.688 209.749 193.384 C 207.6 197.149 205.549 201.266 203.655 205.638 C 199.772 214.614 201.041 225.044 206.967 232.857 L 273.389 320.404 C 285.827 336.791 305.713 346.267 326.401 345.642 L 397.315 343.302 C 399.671 343.302 400.874 344.88 401.284 345.556 C 401.69 346.231 402.518 348.024 401.413 350.122 L 365.151 418.747 C 362.499 423.763 358.085 427.544 352.721 429.392 L 278.83 454.853 C 272.849 456.912 268.842 462.115 268.369 468.423 C 267.896 474.732 271.088 480.474 276.693 483.403 L 428.819 562.871 C 430.886 563.945 432.776 565.324 434.448 566.961 C 443.893 576.23 459.296 590.047 470.546 600.004 C 480.831 609.109 494.007 614.121 507.636 614.121 C 510.007 614.121 512.402 613.964 514.757 613.66 C 533.288 611.245 551.925 605.382 564.304 600.89 C 573.917 597.393 581.82 590.015 585.984 580.64 L 596.941 555.96 C 599.027 551.253 599.093 546.042 597.121 541.288 L 597.12 541.29 Z M 587.659 551.841 L 576.702 576.521 C 573.651 583.384 567.87 588.791 560.835 591.345 C 548.944 595.665 531.065 601.298 513.452 603.591 C 500.479 605.294 487.167 601.157 477.272 592.403 C 466.112 582.524 450.846 568.841 441.557 559.719 C 439.178 557.379 436.471 555.414 433.518 553.875 L 281.398 474.406 C 278.461 472.867 278.437 470.019 278.496 469.183 C 278.562 468.348 279.007 465.535 282.144 464.453 L 356.023 438.992 C 363.84 436.301 370.265 430.797 374.121 423.492 L 410.383 354.867 C 412.832 350.238 412.68 344.797 409.981 340.316 C 407.278 335.835 402.551 333.156 396.836 333.156 L 396.805 333.156 L 326.063 335.496 C 308.747 336.093 291.934 328.054 281.481 314.269 L 215.063 226.718 C 211.344 221.819 210.547 215.284 212.977 209.675 C 214.727 205.651 216.606 201.862 218.574 198.417 C 219.422 196.928 220.949 196.042 222.66 196.042 C 223.43 196.042 225.344 196.249 226.586 198.186 L 242.856 223.498 C 246.946 229.865 249.684 236.873 250.989 244.314 L 251.075 244.822 C 252.786 254.572 256.719 263.974 262.45 272.017 L 289.841 310.482 C 297.067 320.63 308.833 326.689 321.302 326.689 C 330.009 326.689 338.236 323.841 345.099 318.454 L 355.954 309.939 C 360.555 306.326 367.032 305.419 372.458 307.646 L 447.974 338.619 C 451.696 340.146 454.36 343.267 455.275 347.185 C 456.193 351.103 455.196 355.084 452.532 358.103 L 414.118 401.736 C 403.216 414.131 398.927 431.127 402.645 447.205 C 406.493 463.85 418.321 477.439 434.274 483.553 L 582.974 540.541 C 585.158 541.377 586.853 543.026 587.744 545.182 C 588.642 547.338 588.611 549.701 587.666 551.838 L 587.659 551.841 Z"/>
</svg>