<?xml version="1.0" encoding="UTF-8"?>
<!-- Uploaded to: SVG Find, www.svgfind.com, Generator: SVG Find Mixer Tools -->
<svg fill="#000000" width="800px" height="800px" version="1.1" viewBox="144 144 512 512" xmlns="http://www.w3.org/2000/svg">
 <path d="m582.93 577.46c-10.207-5.8867-29.383-17.777-43.141-31.281-5.3281-5.2266-7.8086-9.7422-7.3828-13.426 0.80078-6.9141 11.996-13.699 22.82-20.266l1.7578-1.0703c10.297-6.2617 12.227-14.141 12.031-19.645-0.41016-11.613-11.113-24.484-27.266-32.789-13.02-6.6953-52.633-21.598-83.574-32.918-16.547-6.0547-30.699-17.664-39.867-32.695l-122.36-200.68c-3.6484-5.9922-11.738-8.5078-18.164-5.6055l-11.273 5.0977c-3.6523 1.6523-6.4727 4.7852-7.7227 8.5938-1.2539 3.8125-0.83984 8.0039 1.1211 11.504l67.902 120.99c8.5781 15.289 8.1641 34.039-1.0898 48.926l-1.3164 2.1094c-2.0078 3.2266-5.3203 5.082-9.0898 5.082-3.5977 0-8.1328-1.8164-10.086-6.9141l-54.496-142.3c-2.9648-7.75-7.0742-14.984-12.219-21.504-2.793-3.5312-6.9727-5.5586-11.477-5.5586-3.3789 0-6.6758 1.1875-9.2852 3.3359-8.3359 6.8711-11.977 17.668-9.4961 28.18l35.734 151.65c17.094 72.555 69.445 130.17 140.03 154.12l120.7 40.965-1.6133 4.7344-42.164-14.359-11.258-3.8359 10.723 12.785 4.6328-2.0781 41.309 14.066 3.2891-9.6523 59.926 20.336c1.4531 0.49219 2.9648 0.74219 4.4883 0.74219 5.9961 0 11.312-3.8164 13.242-9.4922l2.3008-6.7852c2.6133-7.7148-0.60938-16.285-7.6758-20.367zm-2.1641 17.043-2.3008 6.7852c-0.61719 1.8359-2.707 2.8828-4.5664 2.2539l-185.54-62.965c-67.18-22.797-117-77.629-133.26-146.68l-35.734-151.65c-1.5664-6.6328 0.73047-13.453 5.9922-17.789 0.96875-0.80078 1.9961-0.96875 2.6875-0.96875 1.3086 0 2.5234 0.58984 3.3281 1.6094 4.4961 5.6953 8.082 12.016 10.68 18.785l54.492 142.31c3.1562 8.25 10.922 13.582 19.773 13.582 7.3281 0 14.023-3.7305 17.906-9.9766l1.3164-2.1094c11.25-18.105 11.762-40.898 1.3281-59.484l-67.906-121c-0.55078-0.98438-0.66016-2.1133-0.30859-3.1836 0.35156-1.0703 1.1094-1.9141 2.1367-2.3789l11.277-5.0977c1.8008-0.81641 4-0.12109 5.0273 1.5508l122.36 200.68c10.379 17.031 26.418 30.184 45.16 37.039 43.344 15.863 72.605 27.367 82.398 32.402 12.465 6.4141 21.359 16.254 21.633 23.93 0.14844 4.0312-2.1602 7.4336-7.0508 10.406l-1.75 1.0625c-13.562 8.2227-26.363 15.988-27.75 27.945-0.82812 7.1289 2.5859 14.336 10.43 22.031 14.574 14.305 34.586 26.73 45.219 32.863 2.7969 1.6055 4.0664 4.9922 3.0273 8.0469z"/>
</svg>