<?xml version="1.0" encoding="UTF-8"?>
<!-- Uploaded to: SVG Find, www.svgfind.com, Generator: SVG Find Mixer Tools -->
<svg fill="#000000" width="800px" height="800px" version="1.1" viewBox="144 144 512 512" xmlns="http://www.w3.org/2000/svg">
 <path d="m608.16 272.76-20.84-76.051c-2.0781-7.5781-10.215-12.352-17.895-10.387-3.9648 1.0195-7.3594 3.6719-9.3047 7.2695-1.9453 3.5977-2.3086 7.8789-0.99219 11.758 5.8359 17.172 19.598 58.656 21.285 72.973 1.7188 14.578-0.71875 24.094-6.5234 25.449-3.8984 0.91016-13.887 2.582-28.125 4.6992-3.4297 0.51562-6.8711-0.94531-8.9023-3.6953l-24.445-33.016c-5.1484-6.957-15.473-9.125-22.969-4.7812-59.398 34.477-138.24 103.23-169.38 131.18-3.2812 2.9492-4.4688 7.5469-3.0273 11.719s5.2227 7.0547 9.6289 7.3477l6.2188 0.41016c0.89844 0.054687 1.6055 0.8125 1.6055 1.7109l0.035157 37.613c0 0.82031-0.35547 1.6055-0.97266 2.1484l-40.418 35.43c-0.59766 0.52344-1.1484 0.66016-1.8281-0.12109l-27.086-30.898c-4.3711-4.9805-12.895-5.1523-17.48-0.34375-12.902 13.531-14.289 25.277-15.754 37.711-0.38672 3.2969-0.79297 6.7305-1.4375 10.375-1.4688 8.2266-12.367 19.883-29.914 31.988-6.8555 4.7266-10.418 12.816-9.293 21.105l4.0547 29.949c1.0625 7.8789 8.3789 13.922 16.383 13.238 15.801-1.4102 29.297-8.1875 37.832-13.625 0.94141-0.59766 1.9648-0.90234 3.0469-0.90234 2.2227 0 4.9375 1.4102 5.6406 4.5039l1.7734 7.7852c1.1758 5.1836 5.707 8.8047 11.02 8.8047 0.90625 0 1.8125-0.10938 2.7031-0.32812l177.91-43.719c5.0742-1.25 9.5586-2.6641 13.715-4.3242 22.508-9.0039 42.125-22.758 54.617-32.707 12.449-9.9141 22.73-22.551 29.738-36.543 0.082031-0.16406 0.16016-0.34375 0.24219-0.50781l5.1445 2.457-19.457 40.773-5.1953 10.887 14.152-9.2852-1.543-4.9141 19.062-39.945-9.8906-4.7188c15.906-34.113 27.434-81.227 33.027-107.08 3.0547-14.141-3.8867-28.477-16.883-34.855l-4.625-2.2734c-1.9219-0.94141-3.3398-2.5898-3.9805-4.6328s-0.42578-4.1992 0.60547-6.0703l0.45312-0.81641c0.55078-1 1.5547-1.6797 2.6953-1.8164l5.207-0.63672c13.836-1.7148 26.215-9.3438 33.973-20.93 7.7422-11.574 10.078-25.926 6.3906-39.363zm-15.148 33.52c-6.0547 9.043-15.719 14.996-26.516 16.336l-5.1719 0.63281c-4.4844 0.53516-8.4648 3.2188-10.652 7.1719l-0.45312 0.81641c-2.4414 4.4219-2.9492 9.5117-1.4336 14.328 1.5156 4.8203 4.8516 8.6992 9.3828 10.922l4.625 2.2695c8.6445 4.2461 13.266 13.777 11.23 23.18-5.7812 26.719-17.969 76.516-34.66 109.85-6.3281 12.637-15.625 24.055-26.883 33.023-11.941 9.5117-30.648 22.641-51.969 31.168-3.6953 1.4805-7.7227 2.7461-12.316 3.875l-177.91 43.719c-0.37109 0.09375-0.83594-0.10156-0.94531-0.58594l-1.7734-7.7891c-1.6992-7.4727-8.2422-12.695-15.906-12.695-3.0742 0-6.082 0.88281-8.6992 2.5508-7.5508 4.8086-19.43 10.797-33.461 12.035-2.2227 0-4.3633-1.9141-4.6719-4.1797l-4.0547-29.949c-0.58594-4.3398 1.2656-8.5625 4.8398-11.027 14.242-9.8242 31.754-24.535 34.297-38.809 0.6875-3.8594 1.1211-7.4961 1.5312-10.988 1.418-12.012 2.4414-20.691 12.918-31.68 0.66797-0.71094 1.3242-0.69141 1.9453 0.019531l27.086 30.898c4.1328 4.7148 11.969 5.2344 16.688 1.0977l40.422-35.434c2.8984-2.543 4.5625-6.2148 4.5586-10.074l-0.035157-37.617c-0.007812-6.4258-5.0391-11.789-11.445-12.207l-6.2148-0.41016-0.34375 5.2539 0.085937-5.9805c30.898-27.742 109.09-95.93 167.64-129.91 3.0078-1.7461 7.1484-0.85938 9.2227 1.9414l24.445 33.016c4.3086 5.8281 11.59 8.918 18.914 7.8438 10.266-1.5273 23.625-3.6172 28.965-4.8672 6.8828-1.6094 17.934-8.5469 14.582-36.934-1.7422-14.758-14.391-53.402-21.773-75.121-0.37891-1.125-0.28125-2.3203 0.28125-3.3633 0.56641-1.043 1.5156-1.7852 2.6641-2.0781 2.2266-0.57813 4.5273 0.80469 5.125 2.9727l20.84 76.047c2.8789 10.488 1.0547 21.691-4.9961 30.734z"/>
</svg>