<?xml version="1.0" encoding="UTF-8"?>
<!-- Uploaded to: SVG Find, www.svgfind.com, Generator: SVG Find Mixer Tools -->
<svg fill="#000000" width="800px" height="800px" version="1.1" viewBox="144 144 512 512" xmlns="http://www.w3.org/2000/svg">
 <path d="m610.31 439.86c-11.254-12.082-28.043-30.703-44.078-50.793-25.438-31.883-35.348-118.23-39.082-150.74-2.8594-24.891-16.438-40.281-27.332-48.812-2.2891-1.793-5.0234-2.7422-7.9141-2.7422-5.8672 0-11.012 3.9531-12.52 9.6133-6.0625 22.793-15.977 50.641-23.23 69.988-3.875 10.332-12.578 18.129-23.281 20.855l-11.523 2.9297c-8.957 2.2812-16.715 8.1992-21.289 16.238l-65.062 114.42c-2.6406 4.6445-6.0469 8.7539-10.129 12.211l-38.727 32.816c-16.488 13.973-25.051 35.156-22.918 56.664l0.54688 5.4844c0.375 3.8242-1.5703 7.5625-4.8438 9.293-6.7266 3.5625-12.27 2.6562-16.262-2.8516-4.8164-6.6523-7.332-20.52-2.0859-36.496 5.3477-16.281 12.43-32.348 17.43-42.961 5.3242-11.305 15.879-19.09 28.242-20.824l4.1484-0.58203c8.8047-1.2344 16.617-6.625 20.895-14.418l50.777-92.496c3.1445-5.7227 7.0156-11.023 11.5-15.754l37.332-39.352c2.1211-2.2383 3.9688-4.7812 5.4883-7.5547 12.488-22.777 18.699-43.391 21.711-56.672 0.78906-3.4805-0.015624-7.0469-2.1992-9.7773-4.0898-5.1289-12.434-5.7969-17.234-1.1133l-133.46 129.98c-5.6641 5.5156-10.465 11.832-14.285 18.777l-68.535 124.87c-3.1289 5.7109-5.3828 11.855-6.6875 18.266-5.8203 28.562-14.434 79.188-6.8125 97.371 6.5781 15.695 29.715 27.531 53.812 27.531 14.098-0.003906 26.246-4.0117 35.121-11.594 18.922-16.164 20.059-35.555 19.055-45.68-0.28516-2.875 0.24219-5.7461 1.5352-8.3008 4.5547-9.0508 11.664-21.16 20.551-35.008 8.1523-12.715 21.406-21.258 36.352-23.438l77.551-11.309 0.71484 4.8008-43.617 6.4961-11.648 1.7344 15.238 6.3867 3.1328-3.9297 42.734-6.3633-1.4688-9.8672 109.4-15.957c1.043 0 1.9688 0.74219 2.1914 1.7695l1.4297 6.4688c1.1602 5.2656 5.9102 9.0898 11.305 9.0898 1.4336 0 2.8398-0.26563 4.1836-0.78906l38.605-14.977c4.3906-1.7031 7.6406-5.4648 8.6953-10.059 1.0547-4.5938-0.23437-9.3906-3.4492-12.84zm-6.5664 10.539c-0.14063 0.60547-0.65234 2.0938-2.3984 2.7734l-39.07 15.066c-0.51563 0-1.125-0.35156-1.2695-1.0273l-1.4297-6.4688c-1.3867-6.2852-7.4492-10.664-14.043-9.7031l-191.7 27.984c-17.891 2.6133-33.754 12.84-43.516 28.059-9.2031 14.348-16.297 26.438-21.078 35.934-2.1719 4.3008-3.0664 9.1211-2.5859 13.945 0.80859 8.125-0.13672 23.719-15.504 36.852-6.8945 5.8867-16.996 9.1289-28.449 9.1328-19.875 0-39.348-9.3242-44.34-21.23-4.7148-11.254-1.9453-45.402 7.4062-91.344 1.1055-5.3984 2.9961-10.57 5.6328-15.375l68.527-124.87c3.3281-6.0508 7.5117-11.555 12.445-16.359l133.46-129.98c0.38281-0.36719 0.68359-0.41016 0.87891-0.41016 0.42187 0 0.88672 0.23047 1.1641 0.57812 0.24609 0.30078 0.30469 0.64062 0.19922 1.0938-2.8633 12.641-8.7812 32.266-20.695 54.008-1.0977 2.0039-2.4219 3.832-3.9336 5.4258l-37.332 39.348c-5.0898 5.3672-9.4766 11.383-13.051 17.875l-50.781 92.504c-2.7227 4.9648-7.6953 8.3984-13.305 9.1875l-4.1484 0.58203c-15.809 2.2188-29.309 12.172-36.109 26.621-5.1289 10.871-12.395 27.355-17.902 44.133-5.6055 17.078-4.2188 35.027 3.5273 45.727 6.8633 9.4766 18.152 11.863 29.395 5.9062 7.0312-3.7227 11.055-11.332 10.262-19.391l-0.54688-5.4883c-1.8008-18.145 5.4297-36.02 19.336-47.809l38.727-32.816c5.0078-4.2422 9.1875-9.2812 12.418-14.977l65.066-114.41c3.2031-5.625 8.6289-9.7656 14.891-11.359l11.523-2.9297c13.957-3.5547 25.312-13.727 30.371-27.207 7.3359-19.562 17.371-47.754 23.543-70.953 0.56641-2.1328 2.8594-2.4414 4.1641-1.4219 9.3438 7.3242 21 20.535 23.457 41.898 3.8242 33.305 13.973 121.79 41.258 155.97 16.238 20.344 33.211 39.176 44.59 51.387 1.2734 1.375 1.0859 2.9375 0.94531 3.543z"/>
</svg>