<?xml version="1.0" encoding="utf-8"?>
<svg fill="#000000" width="800px" height="800px" version="1.1" viewBox="144 144 512 512" xmlns="http://www.w3.org/2000/svg">
  <path d="M 608.16 272.76 L 587.32 196.709 C 585.242 189.131 577.105 184.357 569.425 186.322 C 565.46 187.342 562.066 189.994 560.12 193.592 C 558.175 197.189 557.812 201.47 559.128 205.35 C 564.964 222.522 578.726 264.006 580.413 278.323 C 582.132 292.901 579.694 302.417 573.89 303.772 C 569.991 304.682 560.003 306.354 545.765 308.471 C 542.335 308.986 538.894 307.525 536.862 304.775 L 512.417 271.759 C 507.269 264.802 496.944 262.634 489.448 266.978 C 430.05 301.455 351.208 370.208 320.068 398.158 C 316.787 401.107 315.6 405.705 317.041 409.877 C 318.483 414.049 322.264 416.932 326.67 417.225 L 332.889 417.635 C 333.787 417.69 334.494 418.448 334.494 419.346 L 334.529 456.959 C 334.529 457.779 334.174 458.564 333.557 459.107 L 293.139 494.537 C 292.541 495.061 291.99 495.198 291.311 494.416 L 264.225 463.518 C 259.854 458.538 251.33 458.366 246.745 463.174 C 233.843 476.706 232.456 488.452 230.991 500.885 C 230.604 504.182 230.198 507.616 229.553 511.26 C 228.084 519.487 217.186 531.143 199.639 543.248 C 192.784 547.975 189.221 556.064 190.346 564.353 L 194.401 594.302 C 195.463 602.181 202.78 608.224 210.784 607.54 C 226.585 606.13 240.081 599.353 248.616 593.915 C 249.557 593.318 250.581 593.013 251.663 593.013 C 253.885 593.013 256.6 594.423 257.303 597.517 L 259.077 605.302 C 260.253 610.486 264.784 614.107 270.097 614.107 C 271.003 614.107 271.909 613.997 272.8 613.779 L 450.71 570.06 C 455.784 568.81 460.268 567.396 464.425 565.736 C 486.933 556.732 506.55 542.978 519.042 533.029 C 531.491 523.114 541.772 510.478 548.78 496.486 C 548.862 496.322 548.94 496.142 549.022 495.978 L 551.294 491.232 C 567.201 457.119 578.729 410.005 584.321 384.152 C 587.376 370.011 580.435 355.675 567.438 349.297 L 562.813 347.023 C 560.892 346.082 559.474 344.433 558.833 342.39 C 558.192 340.347 558.407 338.191 559.438 336.32 L 559.892 335.504 C 560.442 334.504 561.446 333.824 562.587 333.687 L 567.794 333.051 C 581.63 331.336 594.009 323.707 601.767 312.121 C 609.509 300.547 611.845 286.195 608.157 272.758 L 608.16 272.76 Z M 593.012 306.28 C 586.957 315.323 577.293 321.276 566.496 322.616 L 561.324 323.249 C 556.84 323.784 552.859 326.468 550.672 330.421 L 550.219 331.237 C 547.778 335.659 547.27 340.749 548.785 345.565 C 550.301 350.385 553.637 354.264 558.168 356.487 L 562.793 358.757 C 571.438 363.003 576.059 372.534 574.023 381.937 C 568.242 408.656 556.054 458.453 539.363 491.787 C 533.035 504.424 523.738 515.842 512.48 524.81 C 500.539 534.321 481.832 547.451 460.511 555.978 C 456.816 557.458 452.789 558.724 448.195 559.853 L 270.285 603.572 C 269.914 603.665 269.449 603.47 269.34 602.986 L 267.566 595.197 C 265.867 587.724 259.324 582.502 251.66 582.502 C 248.586 582.502 245.578 583.384 242.961 585.052 C 235.41 589.861 223.531 595.849 209.5 597.087 C 207.278 597.087 205.137 595.173 204.828 592.908 L 200.774 562.959 C 200.188 558.619 202.039 554.396 205.613 551.932 C 219.855 542.107 237.367 527.397 239.91 513.123 C 240.598 509.263 241.032 505.627 241.442 502.135 C 242.86 490.123 243.883 481.444 254.36 470.455 C 255.028 469.744 255.684 469.763 256.305 470.474 L 283.391 501.372 C 287.524 506.087 295.36 506.607 300.079 502.47 L 340.501 467.036 C 343.399 464.493 345.063 460.821 345.06 456.962 L 345.024 419.345 C 345.017 412.919 339.985 407.556 333.579 407.138 L 327.365 406.728 L 327.021 411.982 L 327.107 406.001 C 358.005 378.259 436.197 310.071 494.747 276.091 C 497.755 274.345 501.895 275.232 503.969 278.033 L 528.414 311.049 C 532.723 316.877 540.004 319.967 547.328 318.892 C 557.594 317.365 570.953 315.275 576.293 314.025 C 583.176 312.416 594.227 305.478 590.875 277.091 C 589.133 262.333 576.484 223.689 569.102 201.97 C 568.724 200.845 568.821 199.65 569.384 198.607 C 569.95 197.564 570.899 196.822 572.048 196.529 C 574.274 195.951 576.575 197.333 577.173 199.501 L 598.013 275.548 C 600.892 286.036 599.068 297.24 593.017 306.283 L 593.012 306.28 Z"/>
</svg>