<?xml version="1.0" encoding="utf-8"?>
<svg fill="#000000" width="800px" height="800px" version="1.1" viewBox="144 144 512 512" xmlns="http://www.w3.org/2000/svg">
  <path d="M 576.06 561.71 L 409.99 464.78 C 408.181 463.725 406.826 462.046 406.17 460.053 L 402.435 448.701 C 399.064 438.459 389.931 431.412 379.165 430.76 L 377.536 430.663 C 377.318 430.647 377.13 430.499 377.072 430.284 L 343.232 309.314 C 340.388 299.146 338.689 288.642 338.181 278.091 L 335.419 220.63 C 334.974 211.431 329.044 203.599 320.31 200.673 L 278.724 186.747 C 271.599 184.36 263.365 187.016 258.986 193.087 C 255.107 198.466 252.654 204.251 251.697 210.278 C 251.08 214.164 250.689 218.774 250.275 223.649 C 249.33 234.794 248.154 248.657 243.607 260.235 C 241.763 264.938 242.849 270.27 246.369 273.817 L 247.646 275.102 C 247.99 275.446 248.087 275.957 247.9 276.399 C 243.142 287.633 227.095 325.602 220.341 342.547 C 213.521 359.649 195.021 417.641 243.271 445.797 L 271.333 462.172 C 277.235 465.617 283.962 467.59 290.79 467.875 L 301.856 468.344 L 301.309 469.34 C 298.907 473.73 300.411 479.141 304.735 481.66 L 507.328 599.894 C 509.25 601.015 511.281 601.984 513.379 602.773 C 518.262 604.617 530.781 609.257 541.59 612.539 C 544.992 613.57 548.524 614.097 552.078 614.097 C 556.996 614.097 561.785 613.113 566.305 611.175 C 569.321 609.886 572.485 608.312 575.703 606.511 C 583.875 601.941 588.801 593.616 588.887 584.245 C 588.966 574.866 584.177 566.433 576.067 561.702 L 576.06 561.71 Z M 570.72 597.659 C 567.814 599.288 564.974 600.698 562.283 601.85 C 556.693 604.245 550.365 604.6 544.529 602.827 C 534.013 599.636 521.744 595.089 516.959 593.28 C 515.396 592.69 513.877 591.968 512.443 591.132 L 310.693 473.382 L 311.381 472.128 C 312.951 469.264 312.927 465.854 311.322 463.007 C 309.716 460.163 306.81 458.382 303.545 458.245 L 291.209 457.725 C 286.033 457.507 280.932 456.011 276.455 453.397 L 248.393 437.022 C 207.166 412.96 223.725 361.51 229.784 346.315 C 236.502 329.467 252.514 291.581 257.264 280.37 C 259.068 276.109 258.127 271.23 254.861 267.94 L 253.584 266.655 C 252.9 265.964 252.701 264.905 253.072 263.952 C 258.158 250.999 259.404 236.311 260.404 224.514 C 260.803 219.823 261.178 215.397 261.736 211.873 C 262.443 207.432 264.287 203.115 267.229 199.037 C 269.061 196.498 272.494 195.389 275.49 196.389 L 317.076 210.315 C 321.803 211.897 325.01 216.139 325.252 221.116 L 328.014 278.573 C 328.557 289.885 330.381 301.147 333.432 312.05 L 367.272 433.02 C 368.494 437.402 372.369 440.531 376.908 440.805 L 378.537 440.903 C 385.119 441.301 390.705 445.606 392.767 451.872 L 396.498 463.22 C 397.928 467.571 400.896 471.243 404.853 473.552 L 570.923 570.478 C 575.841 573.349 578.744 578.462 578.693 584.162 C 578.65 589.849 575.669 594.889 570.72 597.658 L 570.72 597.659 Z"/>
</svg>