<?xml version="1.0" encoding="utf-8"?>
<svg fill="#000000" width="800px" height="800px" version="1.1" viewBox="144 144 512 512" xmlns="http://www.w3.org/2000/svg">
  <path d="M 612.06 253.72 C 610.681 247.306 605.72 246.951 603.603 246.798 C 602.369 246.712 601.478 246.65 600.388 246.005 C 599.173 245.294 600.138 241.904 601.232 238.486 L 601.439 237.829 C 603.955 229.88 599.392 225.013 596.06 221.454 C 592.033 217.165 589.009 216.47 586.255 216.118 C 585.99 216.083 585.732 216.056 585.478 216.009 C 585.052 215.923 584.623 215.865 584.181 215.814 C 582.923 215.65 581.736 215.497 578.408 212.052 C 575.818 209.361 573.509 207.697 570.002 207.697 C 569.67 207.697 569.318 207.712 568.939 207.732 L 568.033 207.759 C 567.095 207.759 565.498 207.618 562.447 206.454 C 555.853 203.919 550.006 204.947 546.279 209.068 C 543.951 211.646 542.654 215.407 542.978 218.657 C 543.228 221.13 543.291 223.564 541.529 228.279 C 539.623 233.376 535.857 239.822 532.224 241.974 C 526.455 245.388 518.556 250.067 512.576 254.888 C 511.385 255.852 510.479 255.446 510.01 254.79 C 509.643 254.27 509.494 253.642 509.643 253.22 C 510.627 250.419 517.604 247.306 522.217 245.247 L 524.357 244.282 C 529.494 241.954 532.283 237.239 531.471 232.278 C 530.764 227.977 527.463 224.688 523.439 224.274 C 519.998 223.919 516.666 225.094 512.474 226.637 C 510.154 227.489 507.521 228.458 504.346 229.333 C 498.4 230.962 496.521 233.227 494.139 236.762 C 492.631 238.997 490.564 242.055 485.107 246.91 C 482.01 249.668 479.541 251.008 477.56 251.008 C 475.361 251.008 472.818 249.328 469.6 247.2 C 467.178 245.602 464.439 243.789 461.096 242.184 C 454.529 239.043 444.139 237.508 429.334 237.508 C 424.357 237.508 419.759 237.676 416.225 237.805 C 414.662 237.864 413.318 237.914 411.916 237.938 C 404.533 237.938 392.744 233.153 388.553 228.457 C 385.815 225.391 385.76 217.141 385.725 211.113 C 385.705 208.371 385.686 205.777 385.451 203.645 C 384.619 196.207 379.862 193.571 376.033 193.571 C 373.194 193.571 370.244 194.922 367.94 197.27 L 366.572 198.696 C 364.029 201.356 362.029 203.461 358.94 204.727 C 354.264 206.645 335.233 214.574 329.577 217.043 C 321.741 220.472 322.553 226.769 322.944 229.801 C 323.014 230.371 323.104 230.945 323.112 231.512 C 323.077 232.144 321.944 233.414 321.686 233.586 C 317.991 232.852 315.315 232.797 307.233 232.746 C 300.792 232.746 298.089 235 295.674 237.508 C 294.854 238.363 294.358 238.875 293.44 239.277 C 293.377 239.305 293.322 239.332 293.272 239.348 C 293.252 239.262 293.233 239.168 293.217 239.074 C 292.576 234.738 288.662 233.168 285.514 231.906 C 284.006 231.301 282.444 230.676 281.264 229.851 C 276.158 226.277 270.409 226.07 264.92 229.281 C 259.4 232.539 256.6 236.922 256.369 242.691 C 256.264 245.187 255.947 246.781 250.58 250.371 C 247.361 252.527 243.705 254.972 242.892 259.109 C 242.185 262.715 243.959 265.976 245.787 268.699 C 248.053 272.058 251.162 273.761 255.029 273.758 C 256.135 273.758 257.271 273.613 258.412 273.445 C 259.627 273.277 261.064 273.258 261.252 273.367 C 263.056 274.347 265.349 281.285 262.451 286.847 C 260.115 291.327 251.365 300.726 245.576 306.941 C 242.322 310.429 239.76 313.187 238.467 314.851 C 235.263 318.976 236.584 323.425 237.295 325.816 C 237.373 326.07 237.467 326.386 237.545 326.675 C 231.15 330.394 231.56 336.695 231.861 341.331 C 231.963 342.859 232.076 344.527 232.009 346.328 C 231.806 351.66 226.392 358.273 219.544 366.652 L 217.959 368.593 C 210.927 377.226 204.041 380.749 196.072 384.827 L 193.493 386.151 C 185.513 390.284 185.611 396.143 186.021 398.467 C 186.876 403.284 191.263 407.409 196.228 408.045 C 200.47 408.596 206.283 409.358 212.013 418.15 C 218.251 427.748 225.068 445.607 227.333 453.033 C 228.825 457.932 227.637 470.435 225.591 479.045 C 223.294 488.698 226.462 497.322 234.266 502.725 C 244.032 509.487 255.934 517.627 261.332 520.553 C 262.286 521.073 263.008 522.163 264.11 523.905 C 266.411 527.538 269.864 533.194 279.735 532.264 C 283.371 531.909 284.067 532.753 285.368 535.045 C 286.27 536.643 287.758 539.264 290.907 539.999 C 291.141 540.233 291.489 540.643 291.739 540.932 C 293.278 542.745 295.856 545.776 300.516 545.776 C 301.438 545.776 302.395 545.647 303.364 545.397 C 307.094 544.444 313.555 545.842 320.255 547.46 L 322.165 547.92 C 323.04 548.128 323.915 548.233 324.774 548.233 C 331.239 548.233 334.911 542.663 337.86 538.182 C 339.661 535.44 341.528 532.604 343.462 531.619 C 345.86 530.405 348.005 532.33 348.161 532.588 C 344.454 537.244 322.934 564.604 318.309 570.541 C 313.477 576.768 309.157 582.916 309.45 589.678 C 309.758 596.698 315.235 606.424 324.716 606.424 C 325.712 606.424 326.727 606.307 327.731 606.088 C 331.88 605.17 335.11 602.678 336.829 599.069 C 339.317 593.834 338.071 587.737 336.259 584.112 C 336.114 583.823 336.196 583.213 336.626 582.647 C 350.415 564.502 360.083 551.897 364.142 546.776 C 364.142 546.776 371.037 540.745 372.869 540.745 L 374.174 540.78 C 380.569 540.78 382.155 534.838 382.83 532.295 C 383.061 531.432 383.319 530.456 383.588 529.975 C 384.022 529.202 385.057 526.959 386.448 523.92 C 389.393 517.475 394.319 506.686 398.003 500.643 C 399.522 498.155 401.448 495.975 403.725 494.159 L 482.854 431.198 C 484.46 429.917 486.077 428.757 487.796 427.659 C 496.206 422.249 516.577 408.991 524.108 402.581 C 529.166 398.276 531.17 392.526 529.752 386.397 C 528.205 379.709 522.44 373.299 516.627 371.803 C 511.248 370.42 505.393 368.166 502.576 366.658 C 503.252 365.78 504.521 364.401 506.865 362.432 C 508.029 361.451 511.756 363.35 514.643 364.924 C 515.369 365.322 516.072 365.705 516.756 366.061 C 518.1 366.748 519.709 367.1 521.545 367.1 C 531.443 367.1 548.725 356.799 552.088 354.741 C 562.975 348.073 567.744 335.616 568.748 329.979 C 568.951 329.108 571.744 325.658 581.584 321.362 C 593.131 316.323 589.682 303.858 588.209 298.534 L 588.068 298.038 C 586.787 293.413 586.685 293.034 587.627 290.44 C 589.182 286.17 591.494 280.323 593.307 276.737 C 594.08 275.198 596.678 275.081 597.455 275.081 C 597.912 275.081 598.357 275.116 598.795 275.17 C 600.513 275.401 603.115 275.749 605.396 275.749 C 607.432 275.749 610.369 275.518 612.373 273.487 C 613.521 272.319 614.146 270.768 614.123 269.135 C 614.08 266.299 613.154 258.795 612.06 253.717 L 612.06 253.72 Z M 600.107 265.419 C 599.252 265.302 598.357 265.239 597.451 265.239 C 591.498 265.239 586.783 267.814 584.521 272.294 C 581.994 277.294 579.185 284.868 578.38 287.075 C 576.357 292.63 577.15 295.481 578.587 300.665 L 578.72 301.153 C 580.747 308.485 580.497 311.099 577.638 312.344 C 566.31 317.293 560.056 322.637 559.056 328.239 C 558.466 331.571 555.13 341.329 546.935 346.348 C 536.806 352.567 525.884 357.258 521.537 357.258 C 521.291 357.258 521.154 357.243 521.158 357.258 C 520.572 356.954 519.967 356.625 519.346 356.29 C 515.904 354.411 512.006 352.278 507.76 352.278 C 505.029 352.278 502.599 353.157 500.529 354.891 C 494.74 359.758 492.119 363.571 492.017 367.266 C 491.959 369.407 492.791 371.403 494.361 372.872 C 498.4 376.672 510.025 380.266 514.166 381.329 C 515.78 381.743 519.276 384.821 520.151 388.606 C 520.733 391.118 519.959 393.18 517.717 395.086 C 510.448 401.278 488.897 415.242 482.463 419.375 C 480.463 420.665 478.58 422.012 476.713 423.5 L 397.592 486.465 C 394.412 489.001 391.721 492.047 389.6 495.52 C 385.612 502.067 380.729 512.762 377.498 519.836 C 376.271 522.512 375.381 524.5 375.002 525.176 C 374.138 526.727 373.705 528.336 373.326 529.758 C 373.236 530.098 373.123 530.527 373.01 530.906 C 367.119 531.074 362.709 533.141 358.365 538.273 C 355.142 542.078 338.459 563.977 328.795 576.7 C 326.103 580.246 325.595 584.77 327.47 588.516 C 328.49 590.551 328.701 593.277 327.951 594.844 C 327.673 595.43 327.158 596.141 325.615 596.48 C 322.002 597.332 319.412 592.07 319.283 589.25 C 319.134 585.824 322.564 581.109 326.08 576.578 C 330.685 570.656 352.158 543.363 355.857 538.715 C 358.205 535.766 358.595 531.898 356.9 528.371 C 354.857 524.14 350.201 521.301 345.306 521.301 C 343.138 521.301 341.017 521.82 338.997 522.851 C 334.751 525.019 332.036 529.133 329.646 532.765 C 328.271 534.855 325.97 538.344 324.485 538.344 L 324.458 538.344 L 322.571 537.89 C 314.536 535.945 307.559 534.113 300.591 535.953 C 300.306 535.812 299.666 535.055 299.24 534.551 C 298.166 533.293 296.619 531.473 294.201 530.68 C 294.115 530.519 294.029 530.351 293.927 530.183 C 292.486 527.64 289.486 522.359 280.982 522.359 C 280.31 522.359 279.596 522.394 278.826 522.461 C 275.4 522.797 274.58 522.043 272.432 518.641 C 271.029 516.426 269.287 513.668 266.029 511.902 C 260.408 508.851 245.49 498.523 239.873 494.632 C 235.385 491.531 233.807 487.046 235.166 481.316 C 236.518 475.637 239.436 458.968 236.756 450.164 C 234.596 443.07 227.444 423.812 220.264 412.777 C 212.053 400.175 202.225 398.898 197.498 398.281 C 196.803 398.195 195.729 397.191 195.717 396.742 C 195.744 396.582 196.24 395.801 198.025 394.875 L 200.561 393.574 C 209.143 389.18 217.252 385.027 225.592 374.797 L 227.166 372.867 C 235.494 362.683 241.514 355.32 241.842 346.691 C 241.924 344.523 241.803 342.523 241.682 340.684 C 241.361 335.766 241.615 335.629 242.682 335.066 C 249.283 331.594 247.428 325.352 246.733 323.004 C 246.525 322.321 246.19 321.184 246.244 320.868 C 247.268 319.551 249.943 316.68 252.783 313.633 C 259.662 306.239 268.228 297.047 271.181 291.379 C 276.06 282.004 273.474 268.797 265.955 264.715 C 263.381 263.309 260.189 263.239 257.006 263.704 C 256.338 263.801 255.681 263.911 255.033 263.911 C 254.568 263.911 254.443 263.911 253.951 263.192 C 253.205 262.082 252.861 261.411 252.701 261.036 C 253.478 260.266 255.373 259.001 256.06 258.544 C 262.091 254.501 265.892 250.501 266.201 243.087 C 266.299 240.739 267.307 239.294 269.916 237.755 C 272.076 236.477 273.619 236.493 275.627 237.907 C 277.74 239.383 280.025 240.297 281.861 241.036 C 282.467 241.278 283.221 241.579 283.756 241.829 C 285.318 247.981 291.111 251.036 297.377 248.29 C 300.092 247.102 301.639 245.497 302.76 244.325 C 304.053 242.985 304.439 242.583 307.346 242.583 L 307.349 242.583 C 315.26 242.637 317.049 242.692 319.767 243.235 C 322.967 243.864 326.588 242.532 329.322 239.743 C 331.685 237.337 333.006 234.266 332.947 231.333 C 332.928 230.407 332.818 229.469 332.697 228.54 C 332.611 227.856 332.475 226.829 332.475 226.672 C 332.475 226.668 332.701 226.415 333.518 226.059 C 339.107 223.614 358.022 215.735 362.67 213.829 C 367.693 211.767 370.88 208.431 373.69 205.485 L 374.979 204.146 C 375.166 203.958 375.338 203.81 375.494 203.704 C 375.561 203.954 375.627 204.29 375.678 204.728 C 375.861 206.356 375.873 208.696 375.893 211.181 C 375.947 219.196 376.01 229.173 381.221 235.013 C 387.94 242.536 402.795 247.783 411.924 247.783 L 412.463 247.779 C 413.572 247.755 414.971 247.701 416.596 247.646 C 420.037 247.521 424.506 247.353 429.346 247.353 C 442.463 247.353 451.721 248.603 456.862 251.068 C 459.592 252.372 461.924 253.915 464.186 255.412 C 468.416 258.212 472.416 260.853 477.569 260.853 C 482.131 260.853 486.604 258.759 491.659 254.267 C 498.038 248.587 500.604 244.786 502.304 242.267 C 503.96 239.806 504.097 239.607 506.964 238.818 C 510.538 237.837 513.503 236.747 515.878 235.872 C 518.175 235.029 520.202 234.283 521.757 234.103 L 521.757 234.111 C 521.64 234.509 521.093 234.962 520.296 235.326 L 518.21 236.263 C 510.968 239.498 502.753 243.162 500.366 249.962 C 499.155 253.407 499.761 257.337 501.983 260.478 C 505.773 265.834 513.338 266.916 518.753 262.545 C 524.175 258.173 531.722 253.705 537.651 250.193 C 545.202 245.716 549.881 234.029 550.742 231.728 C 552.995 225.708 553.183 221.755 552.769 217.677 C 552.749 217.403 552.921 216.364 553.605 215.634 C 554.183 215.028 556.066 214.548 558.925 215.637 C 562.456 216.993 565.265 217.598 568.034 217.598 C 568.542 217.598 568.995 217.575 569.409 217.555 L 569.722 217.434 C 569.769 217.458 570.198 217.704 571.331 218.88 C 576.62 224.364 579.839 225.173 582.936 225.571 L 583.624 225.673 C 584.093 225.762 584.557 225.821 585.022 225.883 C 586.311 226.048 586.952 226.13 588.893 228.188 C 592.655 232.204 592.643 233.04 592.069 234.86 L 591.866 235.493 C 590.272 240.469 587.307 249.731 595.405 254.485 C 598.307 256.196 600.932 256.469 602.616 256.594 C 603.221 259.606 603.721 263.188 604.014 265.856 C 602.655 265.758 601.174 265.563 600.108 265.418 L 600.107 265.419 Z"/>
</svg>