<?xml version="1.0" encoding="utf-8"?>
<svg fill="#000000" width="800px" height="800px" version="1.1" viewBox="144 144 512 512" xmlns="http://www.w3.org/2000/svg">
  <path d="M 583.61 493.95 L 493.626 425.638 C 488.411 421.681 483.923 416.904 480.29 411.45 L 468.681 394.005 C 467.251 391.861 466.216 389.501 465.603 386.982 C 464.357 381.861 459.802 378.282 454.525 378.282 C 452.505 378.282 450.513 378.825 448.759 379.857 L 444.349 382.454 C 442.72 383.4 440.587 383.282 439.095 382.146 L 256.795 243.756 C 247.483 236.685 244.986 225.643 242.58 214.959 C 240.346 205.068 238.236 195.721 230.834 190.1 C 227.143 187.307 223.303 185.881 219.42 185.881 C 208.205 185.881 200.389 197.537 195.479 206.307 C 194.206 208.588 194.135 211.35 195.296 213.694 C 196.46 216.045 198.702 217.666 201.299 218.041 L 211.936 219.553 C 214.491 219.916 216.729 221.389 218.073 223.596 C 219.417 225.807 219.702 228.471 218.851 230.909 L 217.479 234.815 C 215.546 240.362 216.893 246.409 220.991 250.608 C 229.421 259.244 247.6 277.854 255.464 285.784 C 257.761 288.1 259.855 290.643 261.683 293.342 L 289.277 334.072 C 293.445 340.233 300.379 343.904 307.816 343.904 C 311.875 343.904 315.867 342.787 319.355 340.69 C 324.296 337.709 331.164 339.186 334.464 343.869 L 452.436 511.377 C 454.428 514.205 457.549 515.826 460.995 515.826 C 465.647 515.826 469.694 512.85 471.065 508.408 C 471.686 506.401 472.237 504.162 472.881 501.537 C 473.272 499.943 473.701 498.197 474.205 496.272 C 475.315 492.045 478.459 489.522 482.623 489.522 C 485.42 489.522 488.42 490.682 491.307 492.873 C 495.28 495.889 496.803 499.342 498.733 503.705 C 501.194 509.279 504.256 516.221 513.194 523.006 C 522.909 530.381 533.854 533.815 547.643 533.815 C 552.607 533.815 557.268 533.378 561.377 532.995 C 564.56 532.698 567.564 532.417 570.006 532.417 C 573.201 532.417 574.517 532.905 575.06 533.319 C 578.685 536.073 576.99 542.132 570.013 551.327 C 568.021 553.944 560.65 559.312 554.15 564.046 C 549.236 567.62 544.154 571.32 540.134 574.671 C 535.607 578.445 533.365 582.663 533.47 587.218 C 533.658 595.417 541.65 602.593 550.259 609.124 C 554.627 612.441 559.341 614.124 564.286 614.124 C 575.716 614.12 585.899 604.64 588.247 595.784 C 589.079 592.644 591.134 585.608 593.544 577.358 C 597.669 563.245 602.802 545.674 604.743 537.557 C 608.181 523.182 600.087 506.471 583.606 493.959 L 583.61 493.95 Z M 594.829 535.18 C 592.946 543.047 587.852 560.481 583.759 574.492 C 581.318 582.851 579.232 589.984 578.392 593.168 C 577.232 597.551 571.161 603.922 564.29 603.922 C 561.622 603.922 558.981 602.942 556.43 601 C 548.028 594.629 543.739 589.906 543.668 586.98 C 543.637 585.691 544.645 584.187 546.664 582.504 C 550.43 579.367 555.371 575.769 560.152 572.289 C 568.246 566.394 575.238 561.305 578.136 557.487 C 591.921 539.319 587.426 529.901 581.23 525.19 C 577.719 522.526 573.144 522.218 570.011 522.218 C 567.097 522.218 563.859 522.522 560.433 522.839 C 556.543 523.202 552.132 523.616 547.644 523.616 C 536.195 523.616 527.206 520.839 519.359 514.878 C 512.519 509.687 510.351 504.78 508.058 499.585 C 505.839 494.558 503.543 489.355 497.468 484.745 C 492.8 481.202 487.664 479.323 482.62 479.323 C 473.8 479.323 466.624 484.964 464.339 493.686 C 463.82 495.674 463.378 497.463 462.976 499.104 C 462.57 500.756 462.202 502.202 461.831 503.565 C 461.449 504.795 460.679 505.37 459.745 504.049 L 342.795 337.989 C 338.768 332.275 332.186 328.86 325.186 328.86 C 321.28 328.86 317.444 329.931 314.084 331.954 C 308.694 335.204 301.221 333.528 297.713 328.353 L 270.115 287.619 C 267.936 284.404 265.44 281.369 262.701 278.603 C 254.846 270.689 236.701 252.107 228.283 243.486 C 226.908 242.076 226.455 240.045 227.104 238.185 L 228.475 234.279 C 230.334 228.947 229.717 223.123 226.783 218.299 C 223.85 213.479 218.959 210.26 213.373 209.463 L 206.049 208.424 C 211.03 200.229 215.522 196.08 219.424 196.08 C 221.034 196.08 222.795 196.803 224.678 198.232 C 229.116 201.6 230.748 208.837 232.639 217.209 C 235.19 228.506 238.362 242.564 250.639 251.885 L 432.939 390.275 C 437.638 393.838 444.443 394.228 449.525 391.248 L 453.935 388.65 C 454.564 388.303 455.482 388.49 455.697 389.396 C 456.591 393.072 458.103 396.525 460.193 399.662 L 471.802 417.107 C 476.068 423.514 481.337 429.119 487.466 433.771 L 577.45 502.083 C 590.649 512.095 597.305 524.782 594.821 535.173 L 594.829 535.18 Z"/>
</svg>