<?xml version="1.0" encoding="UTF-8"?>
<!-- Uploaded to: SVG Find, www.svgfind.com, Generator: SVG Find Mixer Tools -->
<svg fill="#000000" width="800px" height="800px" version="1.1" viewBox="144 144 512 512" xmlns="http://www.w3.org/2000/svg">
 <path d="m591.65 185.88h-0.015626l-64.902 1.5586c-12.098 0.28906-23.41 5.2188-31.867 13.879l-55.957 57.344c-4.4883 4.5977-12.145 5.1602-17.25 1.2344l-4.1758-3.1953c-4.4023-3.3672-11.086-2.9102-15.004 1.0234l-212.58 214.61c-2.7852 2.8125-3.6016 6.9922-2.0742 10.645 1.5234 3.6562 5.0664 6.0156 9.0273 6.0156h110.79c86.801 0 94.488-61.949 98.613-95.234l0.54688-4.3359c0.66016-5.043 4.9883-8.8438 10.074-8.8438h1.3086c7.957 0 14.559-6.4688 14.73-14.414l0.03125-1.3672c0.011719-0.51953 0.42188-0.92578 0.94531-0.92578h111.44c2.1055 0 4.082 0.82422 5.5625 2.3281 1.4766 1.5 2.2695 3.4805 2.2383 5.5859l-1.0352 72.215c-0.10156 7.0312-3.125 13.797-8.2969 18.559l-73.098 67.371c-15.703 14.473-36.117 22.441-57.473 22.441l-165.55-0.003907v-5.1094h57.449l-14.527-8.8047-3.7812 3.5195h-44.422v10.395h-5.1406c-8.7891 0-15.945 7.1523-15.945 15.945v25.238c0 11.344 9.2305 20.57 20.57 20.57h356.42c8.0742 0 14.648-6.5703 14.648-14.645l-0.007812-392.8c0-11.465-9.3242-20.793-21.289-20.793zm10.723 413.59c0 2.25-1.832 4.0781-4.082 4.0781h-356.42c-5.5156 0-10.004-4.4883-10.004-10.004v-25.238c0-2.9648 2.4141-5.3789 5.3789-5.3789h175.97c24.016 0 46.969-8.9648 64.633-25.238l73.098-67.371c7.2891-6.7148 11.555-16.254 11.699-26.176l1.0352-72.215c0.070312-4.9531-1.8008-9.625-5.2773-13.156-3.4805-3.5312-8.1289-5.4766-13.09-5.4766l-111.43 0.003906c-6.2109 0-11.375 5.0547-11.512 11.258l-0.03125 1.3711c-0.046875 2.25-1.9141 4.0781-4.1641 4.0781h-1.3086c-10.375 0-19.211 7.7578-20.547 18.051l-0.55859 4.4023c-3.9883 32.152-10.66 85.969-88.125 85.969l-108.9-0.003907 211.25-213.27c0.19531-0.19922 0.42969-0.23828 1.0664-0.070312l4.1719 3.1953c4.1523 3.1875 9.1172 4.8711 14.352 4.8711 6.4141 0 12.414-2.5273 16.891-7.1172l55.961-57.344c6.5156-6.6719 15.234-10.473 24.562-10.699l65.152-1.5625c5.6367 0 10.227 4.5898 10.227 10.234z"/>
</svg>