<?xml version="1.0" encoding="utf-8"?>
<svg fill="#000000" width="800px" height="800px" version="1.1" viewBox="144 144 512 512" xmlns="http://www.w3.org/2000/svg">
  <path d="M 591.65 185.88 L 591.634 185.88 L 526.732 187.439 C 514.634 187.728 503.322 192.657 494.865 201.318 L 438.908 258.662 C 434.42 263.259 426.763 263.822 421.658 259.896 L 417.483 256.701 C 413.08 253.333 406.397 253.79 402.479 257.724 L 189.899 472.334 C 187.113 475.147 186.297 479.326 187.824 482.979 C 189.348 486.635 192.891 488.995 196.852 488.995 L 307.642 488.995 C 394.443 488.995 402.13 427.046 406.255 393.761 L 406.802 389.425 C 407.462 384.382 411.79 380.581 416.876 380.581 L 418.184 380.581 C 426.141 380.581 432.743 374.112 432.914 366.167 L 432.945 364.8 C 432.957 364.28 433.367 363.874 433.891 363.874 L 545.331 363.874 C 547.436 363.874 549.413 364.698 550.893 366.202 C 552.37 367.702 553.163 369.683 553.132 371.788 L 552.096 444.003 C 551.995 451.034 548.971 457.8 543.799 462.562 L 470.701 529.933 C 454.998 544.406 434.584 552.374 413.228 552.374 L 237.257 552.37 C 228.468 552.37 221.312 559.523 221.312 568.315 L 221.312 593.553 C 221.312 604.897 230.542 614.123 241.882 614.123 L 598.302 614.123 C 606.376 614.123 612.95 607.553 612.95 599.478 L 612.942 206.678 C 612.942 195.213 603.618 185.885 591.653 185.885 L 591.65 185.88 Z M 602.373 599.47 C 602.373 601.72 600.541 603.548 598.291 603.548 L 241.871 603.548 C 236.355 603.548 231.867 599.06 231.867 593.544 L 231.867 568.306 C 231.867 565.341 234.281 562.927 237.246 562.927 L 413.216 562.927 C 437.232 562.927 460.185 553.962 477.849 537.689 L 550.947 470.318 C 558.236 463.603 562.502 454.064 562.646 444.142 L 563.681 371.927 C 563.751 366.974 561.88 362.302 558.404 358.771 C 554.923 355.24 550.275 353.295 545.314 353.295 L 433.884 353.299 C 427.673 353.299 422.509 358.353 422.372 364.557 L 422.341 365.928 C 422.294 368.178 420.427 370.006 418.177 370.006 L 416.868 370.006 C 406.493 370.006 397.657 377.764 396.321 388.057 L 395.762 392.459 C 391.774 424.611 385.102 478.428 307.637 478.428 L 198.737 478.424 L 409.987 265.154 C 410.183 264.955 410.417 264.916 411.054 265.084 L 415.226 268.279 C 419.378 271.467 424.343 273.15 429.578 273.15 C 435.992 273.15 441.992 270.623 446.469 266.033 L 502.43 208.689 C 508.945 202.017 517.664 198.216 526.992 197.99 L 592.144 196.428 C 597.78 196.428 602.371 201.017 602.371 206.662 L 602.373 599.47 Z"/>
</svg>