<?xml version="1.0" encoding="utf-8"?>
<svg fill="#000000" width="800px" height="800px" version="1.1" viewBox="144 144 512 512" xmlns="http://www.w3.org/2000/svg">
  <path d="M 606.61 362.59 C 600.848 354.281 591.84 349.707 581.255 349.707 C 570.735 349.707 559.017 354.387 552.763 361.086 C 549.81 364.246 548.369 367.637 548.591 370.887 C 548.974 376.488 552.689 382.68 559.634 389.297 C 560.212 389.844 560.193 390.484 560.126 390.82 C 560.068 391.148 559.853 391.738 559.13 392.031 L 419.03 448.816 C 415.37 450.293 411.026 449.625 407.964 447.136 C 403.07 443.164 397.933 438.308 392.698 432.714 C 390.854 430.738 391.233 428.515 391.483 427.652 C 391.737 426.773 392.612 424.652 395.284 423.949 C 396.858 423.535 398.472 423.136 400.116 422.73 C 408.819 420.578 418.678 418.132 429.526 411.949 C 451.76 399.273 444.479 376.906 441.944 369.117 C 439.39 361.234 433.636 357.422 421.034 349.058 L 414.866 344.98 C 402.702 336.992 394.663 331.718 391.331 315.519 C 387.839 298.593 396.077 280.734 410.495 273.98 C 417.128 270.871 425.979 267.683 436.229 263.996 C 450.729 258.777 467.155 252.863 484.522 244.707 C 503.588 235.746 511.327 224.93 514.467 217.434 C 515.768 214.32 515.432 210.793 513.573 207.996 C 511.514 204.91 507.936 203.211 504.198 203.621 C 488.014 205.402 452.675 210.519 433.046 213.41 C 425.628 214.504 418.593 216.953 412.132 220.695 C 392.128 232.281 350.234 258.629 333.144 269.414 C 329.347 271.817 324.542 272.344 320.308 270.801 C 315.694 269.125 311.784 267.34 308.699 265.508 C 305.671 263.703 303.808 261.481 303.308 259.086 C 302.871 256.969 303.496 254.606 305.07 252.434 C 306.023 251.117 306.804 251.008 307.46 251.008 C 309.581 251.008 312.41 252.715 313.628 253.446 L 314.226 253.813 C 316.949 255.492 322.015 258.621 327.808 258.617 C 331.941 258.617 337.714 257.008 341.757 249.332 C 345.073 243.039 345.015 235.57 341.597 228.844 C 336.956 219.704 327.054 213.196 315.105 211.43 C 303.5 209.723 290.398 214.801 281.386 224.453 C 274.589 231.73 271.015 240.641 271.577 248.894 L 290.131 519.778 C 290.182 520.5 289.772 521.196 289.116 521.504 L 203.87 561.566 L 202.632 562.375 C 198.159 566.391 193.065 572.781 187.487 581.375 C 185.502 584.422 185.346 588.129 187.065 591.297 C 188.787 594.473 192.065 596.445 195.612 596.445 C 196.94 596.445 198.252 596.172 199.506 595.633 C 261.139 569.082 569.496 436.253 586.986 428.653 C 598.861 423.489 608.591 411.985 612.388 398.633 C 615.99 385.949 613.935 373.149 606.611 362.594 L 606.61 362.59 Z M 602.571 395.84 C 599.586 406.328 592.055 415.317 582.919 419.293 C 565.571 426.836 261.649 557.753 196.879 585.653 C 201.34 578.903 205.48 573.684 208.918 570.454 L 293.465 530.727 C 297.973 528.61 300.66 524.032 300.324 519.071 L 281.769 248.191 C 281.394 242.746 283.976 236.629 288.851 231.41 C 295.613 224.172 305.035 220.262 313.628 221.516 C 322.304 222.797 329.362 227.258 332.511 233.454 C 334.437 237.247 334.519 241.196 332.742 244.571 C 330.718 248.41 328.687 248.41 327.816 248.41 C 324.918 248.414 321.453 246.274 319.593 245.121 L 318.902 244.699 C 316.964 243.531 312.425 240.797 307.472 240.797 C 303.175 240.797 299.487 242.75 296.812 246.445 C 293.546 250.965 292.304 256.184 293.331 261.136 C 294.089 264.816 296.468 270.078 303.487 274.261 C 307.128 276.429 311.62 278.488 316.835 280.379 C 323.984 282.972 332.155 282.093 338.601 278.031 C 355.636 267.269 397.402 241.008 417.249 229.511 C 422.589 226.421 428.405 224.394 434.538 223.488 C 454.097 220.605 489.3 215.511 505.061 213.48 C 502.62 219.323 496.319 227.875 480.194 235.453 C 463.26 243.41 447.073 249.238 432.788 254.379 C 422.3 258.156 413.241 261.418 406.171 264.731 C 387.3 273.574 376.859 295.793 381.347 317.567 C 385.535 337.907 396.538 345.129 409.273 353.493 L 415.394 357.543 C 427.089 365.301 430.855 367.957 432.386 372.695 C 435.902 383.484 437.707 395.527 424.476 403.07 C 414.855 408.555 406.117 410.719 397.664 412.813 C 395.965 413.234 394.309 413.645 392.684 414.074 C 387.328 415.484 383.215 419.5 381.68 424.808 C 380.156 430.093 381.492 435.644 385.246 439.663 C 390.801 445.597 396.277 450.772 401.531 455.042 C 407.445 459.831 415.816 461.101 422.863 458.253 L 562.953 401.468 C 566.699 399.949 569.383 396.675 570.137 392.706 C 570.895 388.726 569.59 384.687 566.656 381.894 C 559.805 375.367 558.852 371.527 558.762 370.246 C 559.035 367.746 568.754 359.894 581.25 359.894 C 588.605 359.894 594.312 362.754 598.23 368.391 C 603.78 376.398 605.319 386.141 602.566 395.832 L 602.571 395.84 Z"/>
</svg>