<?xml version="1.0" encoding="utf-8"?>
<svg fill="#000000" width="800px" height="800px" version="1.1" viewBox="144 144 512 512" xmlns="http://www.w3.org/2000/svg">
  <path d="M 607.68 335.39 C 606.754 324.249 597.184 315.523 585.891 315.523 C 584.016 315.523 582.141 315.765 580.309 316.242 L 577.215 317.05 C 576.243 317.312 574.985 316.793 574.707 315.511 C 565.453 272.976 562.508 254.402 562.793 251.413 C 563.024 249.085 563.891 242.218 566.704 222.69 C 568.829 208.014 560.735 193.807 547.028 188.139 C 538.543 184.635 528.606 185.217 520.575 189.698 L 337.315 292.118 C 334.576 293.641 331.381 294.298 328.299 294.008 L 308.033 292.048 C 299.463 291.2 291.244 294.477 285.572 300.708 C 280.498 306.282 277.994 313.79 278.701 321.302 L 279.924 334.286 C 280.529 340.731 277.623 347.059 272.342 350.798 L 257.776 361.099 C 247.143 368.626 241.733 381.306 243.659 394.189 L 243.764 394.896 C 244.424 399.349 243.69 403.818 241.631 407.818 L 213.369 462.716 L 193.435 524.689 C 189.197 537.888 195.4 552.427 207.861 558.509 L 308.021 607.372 C 317.049 611.778 327.083 614.11 337.033 614.11 C 340.627 614.11 344.244 613.809 347.779 613.216 L 348.291 613.13 C 355.955 611.79 363.4 609.067 370.436 605.032 L 399.202 588.52 C 404.8 585.309 408.741 579.836 410.018 573.508 C 411.291 567.184 409.776 560.61 405.866 555.481 L 404.764 554.032 C 401.604 549.903 396.815 547.536 391.616 547.536 C 386.53 547.536 381.804 549.825 378.651 553.817 L 368.733 566.364 C 365.714 570.192 360.928 572.18 356.057 571.594 C 350.483 570.922 345.854 567.008 344.272 561.622 L 297.12 401.082 C 296.413 398.664 296.011 396.156 295.933 393.621 L 295.847 390.753 C 295.6 382.605 298.714 374.675 304.393 368.999 C 311.729 361.664 318.796 357.347 323.432 355.015 C 324.249 354.613 325.565 354.894 325.639 356.254 C 325.995 362.508 324.335 370.043 320.846 378.031 C 318.874 382.535 319.296 387.675 321.979 391.773 C 324.866 396.191 329.839 398.702 335.202 398.238 L 387.39 393.948 C 399.601 392.945 411.421 397.312 420.035 405.925 L 430.64 416.53 C 436.808 422.702 445.011 426.097 453.738 426.097 C 457.934 426.097 462.043 425.3 465.945 423.726 C 487.289 415.116 579.676 378.171 583.887 376.53 C 600.875 369.893 609.328 355.28 607.676 335.382 L 607.68 335.39 Z M 580.149 366.968 C 554.325 377.046 488.993 403.363 462.109 414.21 C 453.886 417.53 444.171 415.546 437.91 409.276 L 427.305 398.671 C 416.555 387.921 401.785 382.444 386.555 383.722 L 333.993 388.023 C 332.016 388.023 330.95 386.719 330.583 386.156 C 330.208 385.586 329.43 384.054 330.262 382.148 C 334.458 372.551 336.356 363.644 335.899 355.675 C 335.548 349.453 330.38 344.577 324.133 344.577 C 322.282 344.577 320.496 345.003 318.828 345.843 C 313.516 348.515 305.445 353.441 297.14 361.745 C 289.469 369.417 285.261 380.1 285.593 391.073 L 285.679 393.94 C 285.785 397.35 286.328 400.729 287.277 403.983 L 334.429 564.523 C 337.171 573.855 345.187 580.636 354.843 581.796 C 363.359 582.819 371.566 579.359 376.796 572.741 L 386.722 560.19 C 389.14 557.136 394.257 557.19 396.605 560.272 L 397.706 561.718 C 399.827 564.499 400.652 568.061 399.956 571.491 C 399.265 574.917 397.128 577.882 394.093 579.624 L 365.327 596.136 C 359.335 599.573 353.011 601.89 346.081 603.097 C 334.862 604.987 322.925 603.226 312.534 598.155 L 212.374 549.288 C 204.472 545.433 200.534 536.21 203.222 527.835 L 222.699 467.046 L 250.765 412.526 C 253.819 406.604 254.913 399.987 253.929 393.389 L 253.823 392.678 C 252.468 383.651 256.261 374.764 263.714 369.487 L 278.276 359.186 C 286.553 353.331 291.104 343.42 290.151 333.327 L 288.928 320.343 C 288.487 315.636 289.995 311.121 293.174 307.624 C 296.678 303.769 301.776 301.769 307.045 302.273 L 327.311 304.234 C 328.139 304.316 328.968 304.355 329.788 304.355 C 334.167 304.355 338.499 303.226 342.331 301.089 L 525.591 198.669 C 530.907 195.697 537.486 195.31 543.111 197.638 C 552.474 201.505 557.998 211.208 556.545 221.228 C 554.264 237.052 552.928 246.865 552.58 250.392 C 552.049 255.697 556.115 278.341 564.674 317.693 C 566.12 324.341 573.225 328.693 579.819 326.986 L 582.913 326.177 C 589.804 324.377 596.882 329.404 597.452 336.236 C 598.729 351.654 592.909 361.99 580.155 366.97 L 580.149 366.968 Z"/>
</svg>