<?xml version="1.0" encoding="utf-8"?>
<svg fill="#000000" width="800px" height="800px" version="1.1" viewBox="144 144 512 512" xmlns="http://www.w3.org/2000/svg">
  <path d="M 605.41 328.42 L 511.168 192.342 C 507.051 186.4 498.547 184.315 492.098 187.701 C 487.18 190.287 482.551 191.209 478.493 190.365 C 475.38 189.721 472.755 188.756 470.68 187.502 C 468.923 186.44 466.919 185.877 464.88 185.877 C 459.305 185.877 454.685 189.842 453.896 195.303 C 452.931 201.963 453.747 212.658 463.087 225.78 C 470.833 236.659 480.364 246.483 488.771 255.147 C 498.041 264.702 506.794 273.725 510.576 281.585 L 516.842 294.608 C 517.767 296.534 517.877 298.698 517.15 300.71 C 516.424 302.717 514.951 304.315 513.01 305.202 L 394.57 359.241 C 385.464 363.393 375.371 364.846 365.465 363.424 L 283.18 351.615 C 273.883 350.291 265.684 357.244 265.141 366.33 L 262.621 408.486 C 262.504 410.412 262.504 412.365 262.613 414.291 L 262.961 419.334 L 217.602 405.6 C 216.102 405.143 214.551 404.912 213 404.912 C 204.536 404.912 197.602 411.545 197.211 420.01 L 191.586 541.34 C 191.317 547.227 193.403 552.809 197.469 557.067 C 201.914 561.72 208.246 564.169 214.746 563.583 C 222.59 562.888 230.266 561.923 237.363 560.528 L 236.367 569.884 C 235.746 575.767 239.187 581.29 244.746 583.318 C 279.695 596.045 299.336 603.127 303.234 604.404 C 303.695 604.795 305.175 606.213 308.261 610.463 C 309.921 612.748 312.597 614.115 315.425 614.115 C 317.906 614.115 320.285 613.064 321.964 611.236 C 324.339 608.646 325.519 605.146 325.207 601.646 C 324.738 596.439 322.91 585.021 315.91 567.072 C 309.914 551.689 280.219 473.299 281.683 434.092 L 335.441 449.014 C 347.371 452.323 360.187 451.303 371.441 446.147 L 376.843 443.67 C 378.585 442.87 380.71 443.659 381.534 445.362 L 388.909 460.69 C 390.808 464.647 395.835 466.545 399.886 464.823 L 465.062 437.077 C 469.199 435.319 471.129 430.659 469.453 426.472 C 465.406 416.343 464.703 408.484 464.445 405.031 L 498.32 389.258 C 499.051 388.918 500.109 389.008 500.629 390.082 L 505.828 400.891 C 508.691 406.844 516.293 409.664 522.367 406.981 L 595.437 374.622 C 600.8 372.247 604.503 367.364 605.339 361.563 C 606.187 355.684 607.425 346.985 608.292 340.235 C 608.82 336.067 607.8 331.871 605.41 328.415 L 605.41 328.42 Z M 595.512 360.15 C 595.164 362.548 593.633 364.572 591.41 365.552 L 518.34 397.911 C 517 398.513 515.379 397.892 514.754 396.591 L 509.555 385.786 C 506.887 380.231 499.742 377.645 494.117 380.263 L 460.242 396.036 C 456.82 397.629 454.648 401.094 454.707 404.86 C 454.773 409.125 455.519 417.735 459.625 428.61 L 397.242 455.169 L 390.457 441.067 C 387.382 434.676 379.184 431.684 372.691 434.657 L 367.288 437.133 C 358.159 441.313 347.757 442.145 338.073 439.465 L 283.757 424.387 C 282.929 424.153 282.074 424.04 281.218 424.04 C 276.152 424.04 272.003 428.004 271.773 433.063 C 269.941 473.032 298 548.503 306.644 570.683 C 313.195 587.492 314.878 597.859 315.3 602.542 C 315.323 602.788 315.308 603.038 315.265 603.28 C 310.702 597.186 308.452 595.565 306.417 595.022 C 304.566 594.479 282.229 586.425 248.128 574.006 C 246.863 573.546 246.077 572.284 246.218 570.944 L 247.214 561.588 C 247.503 558.842 246.613 556.092 244.769 554.042 C 242.917 551.987 240.28 550.807 237.527 550.807 C 236.999 550.807 236.46 550.85 235.917 550.94 C 228.87 552.108 221.448 553.042 213.855 553.713 C 210.351 553.999 207.039 552.752 204.629 550.229 C 202.453 547.952 201.336 544.96 201.484 541.811 L 207.105 420.481 C 207.281 416.743 211.066 414 214.711 415.102 L 260.07 428.836 C 263.613 429.906 267.589 428.84 270.121 426.16 C 272 424.172 272.949 421.566 272.796 418.828 L 272.507 413.738 C 272.418 412.192 272.421 410.637 272.511 409.086 L 275.031 366.934 C 275.234 363.54 278.324 360.942 281.757 361.442 L 364.042 373.251 C 375.831 374.942 387.839 373.216 398.675 368.274 L 517.115 314.235 C 521.506 312.235 524.826 308.63 526.471 304.094 C 528.112 299.555 527.862 294.661 525.772 290.317 L 519.506 277.294 C 515.029 267.986 506.154 258.841 495.885 248.251 C 487.323 239.427 478.471 230.302 471.158 220.036 C 465.275 211.771 462.697 203.716 463.709 196.735 C 463.814 196.005 464.518 195.81 464.873 195.81 C 465.107 195.81 465.322 195.872 465.533 196.001 C 468.572 197.841 472.256 199.216 476.471 200.091 C 482.791 201.403 489.729 200.165 496.701 196.493 C 498.861 195.36 501.639 196.04 502.998 198.001 L 597.24 334.071 C 598.232 335.504 598.658 337.251 598.435 338.977 C 597.584 345.672 596.357 354.313 595.513 360.149 L 595.512 360.15 Z"/>
</svg>