<?xml version="1.0" encoding="utf-8"?>
<svg fill="#000000" width="800px" height="800px" version="1.1" viewBox="144 144 512 512" xmlns="http://www.w3.org/2000/svg">
  <path d="M 602.61 556.55 L 521.622 530.597 C 519.853 530.031 518.016 529.742 516.169 529.742 C 508.372 529.742 501.536 534.73 499.157 542.156 L 495.571 552.487 L 465.817 542.952 C 461.583 541.597 456.129 535.761 451.911 528.085 C 449.88 524.398 451.227 519.71 454.903 517.636 L 467.52 510.531 C 471.633 508.21 473.11 502.968 470.805 498.84 C 468.657 495.004 466.673 491.551 464.837 488.363 C 448.735 460.371 445.384 454.543 454.259 393.379 C 465.353 316.992 455.848 266.919 422.493 225.949 C 417.106 219.32 406.716 217.976 399.755 223.035 L 353.212 256.847 C 351.032 258.433 348.458 259.284 345.762 259.316 L 328.516 259.515 C 326.598 259.515 324.813 258.401 323.977 256.675 L 292.727 192.499 C 290.567 188.061 285.684 185.39 280.75 185.964 L 259.375 188.511 C 249.746 189.659 240.598 193.393 232.918 199.308 C 220.906 208.562 204.113 221.921 192.328 233.011 C 189.809 235.382 188.375 238.597 188.297 242.058 C 188.219 245.522 189.512 248.8 191.926 251.284 C 206.457 266.241 247.004 306.042 263.766 322.464 C 268.621 327.218 276.938 327.394 281.985 322.843 C 290.731 314.964 306.813 300.816 316.231 294.566 C 319.399 292.464 327.946 287.574 338.86 287.574 C 352.532 287.574 364.844 295 375.465 309.644 C 395.082 336.706 375.461 365.648 363.735 382.937 L 362.946 384.101 C 361.727 385.898 360.012 387.245 357.965 387.999 L 356.571 388.515 C 353.192 389.765 350.559 392.429 349.352 395.827 C 348.149 399.23 348.512 402.96 350.356 406.065 L 427.692 536.326 C 438.962 555.305 456.743 569.466 477.762 576.201 L 594.864 613.723 C 595.676 613.985 596.512 614.118 597.36 614.118 C 601.344 614.118 604.719 611.262 605.387 607.337 L 611.52 571.208 C 612.606 564.833 608.774 558.531 602.61 556.556 L 602.61 556.55 Z M 595.868 603.53 L 480.828 566.663 C 462.144 560.675 446.336 548.085 436.316 531.21 L 358.98 400.96 C 358.538 400.222 358.683 399.526 358.804 399.179 C 358.933 398.835 359.253 398.206 360.058 397.913 L 361.452 397.398 C 365.468 395.917 368.863 393.257 371.253 389.718 L 372.034 388.566 C 384.366 370.378 407.319 336.523 383.581 303.773 C 367.878 282.109 350.597 277.566 338.866 277.566 C 325.714 277.566 315.569 282.995 310.698 286.23 C 300.741 292.839 284.237 307.351 275.288 315.41 C 274.042 316.539 271.976 316.496 270.781 315.316 C 254.051 298.925 213.57 259.191 199.113 244.312 C 198.585 243.765 198.3 243.046 198.32 242.288 C 198.335 241.531 198.648 240.828 199.199 240.312 C 210.687 229.503 227.203 216.363 239.035 207.25 C 245.281 202.437 252.726 199.398 260.558 198.465 L 282.144 195.906 C 282.808 195.906 283.429 196.293 283.718 196.894 L 314.976 261.066 C 317.48 266.215 322.796 269.539 328.699 269.539 L 328.703 269.539 L 345.879 269.34 C 350.66 269.285 355.234 267.773 359.106 264.961 L 405.649 231.149 C 408.442 229.118 412.59 229.649 414.731 232.282 C 446.141 270.868 454.997 318.622 444.356 391.962 C 434.985 456.556 439.051 463.626 456.165 493.372 C 457.778 496.18 459.52 499.208 461.379 502.512 L 449.992 508.923 C 441.551 513.68 438.473 524.45 443.137 532.922 C 445.801 537.77 453.047 549.391 462.758 552.505 L 492.516 562.04 C 497.832 563.759 503.75 560.669 505.438 555.387 L 508.696 545.227 C 509.989 541.192 514.481 538.837 518.567 540.149 L 599.551 566.102 C 601.004 566.567 601.903 568.048 601.645 569.544 L 595.868 603.53 Z"/>
</svg>