<?xml version="1.0" encoding="utf-8"?>
<svg fill="#000000" width="800px" height="800px" version="1.1" viewBox="144 144 512 512" xmlns="http://www.w3.org/2000/svg">
  <path d="M 606.52 199.07 C 594.438 188.172 584.055 185.882 577.473 185.882 C 574.106 185.882 570.879 186.448 567.879 187.57 L 412.485 245.562 C 410.383 246.343 408.305 247.195 406.254 248.109 L 385.473 257.39 C 379.739 259.949 374.606 263.226 370.219 267.132 C 351.981 283.351 356.008 300.007 362.165 317.105 L 357.364 318.898 C 352.571 320.688 349.942 325.934 351.379 330.839 C 354.305 340.812 360.157 359.339 366.441 371.366 C 369.07 376.398 372.551 384.698 376.785 396.022 C 382.074 410.178 381.035 425.589 374.004 438.78 L 324.383 431.757 C 317.774 430.82 311.594 427.644 306.985 422.816 L 297.27 412.636 C 293.329 408.511 286.176 408.397 282.098 412.386 C 278.262 416.147 277.829 422.198 281.087 426.46 C 287.919 435.417 304.118 456.644 308.325 462.097 C 309.606 464.229 312.614 476.675 311.2 484.792 C 310.965 486.151 305.086 518.28 277.044 539.71 C 269.391 545.561 254.747 551.398 249.61 551.96 L 208.922 556.413 C 199.097 557.491 191.215 564.725 189.305 574.421 L 186.863 586.816 C 185.531 593.558 187.273 600.464 191.629 605.769 C 195.996 611.077 202.399 614.124 209.191 614.128 C 210.566 614.128 211.96 613.999 213.335 613.749 C 221.757 612.21 229.042 609.202 234.987 604.816 C 249.882 593.832 281.874 568.136 291.503 559.66 C 294.054 557.414 296.449 554.929 298.664 552.203 L 376.035 453.457 C 377.085 452.164 378.093 450.824 379.038 449.449 L 395.147 451.73 C 400.331 452.449 405.14 449.32 406.643 444.418 L 415.589 415.152 C 417.358 409.366 416.515 403.125 413.268 398.023 C 410.3 393.359 404.452 383.906 393.436 365.363 C 374.178 332.949 394.061 311.097 404.745 299.355 L 405.367 298.671 C 409.191 294.456 413.968 293.573 417.301 293.573 C 423.48 293.573 430.305 296.601 434.297 301.112 C 441.172 308.882 447.953 312.346 456.285 312.346 C 459.187 312.346 462.32 311.921 465.863 311.046 C 477.472 308.178 480.535 300.987 485.168 290.105 C 486.109 287.89 487.152 285.452 488.375 282.769 C 491.281 276.402 495.871 273.921 504.742 273.921 C 508.253 273.921 512.042 274.296 516.051 274.694 C 517.871 274.874 519.703 275.054 521.539 275.206 C 537.648 276.562 543.109 262.976 546.758 254.186 C 547.613 252.116 548.426 250.143 549.317 248.475 C 551.617 244.171 566.79 241.163 577.868 238.964 C 583.387 237.87 589.095 236.737 594.157 235.389 C 604.239 232.71 611.126 226.6 613.048 218.639 C 614.747 211.6 612.305 204.291 606.52 199.069 L 606.52 199.07 Z M 290.97 546.05 C 289.154 548.281 287.146 550.37 284.997 552.261 C 275.493 560.624 243.88 586.015 229.142 596.882 C 224.412 600.37 218.497 602.78 211.572 604.05 C 206.822 604.925 202.236 603.144 199.244 599.507 C 196.768 596.491 195.78 592.558 196.533 588.718 L 198.975 576.323 C 200.049 570.878 204.479 566.807 209.998 566.206 L 250.686 561.753 C 257.959 560.956 274.006 554.436 283.03 547.534 C 314.1 523.796 320.647 487.995 320.913 486.479 C 322.682 476.319 319.288 460.194 316.233 456.221 C 311.936 450.635 295.749 429.428 288.921 420.475 C 288.679 420.158 288.71 419.701 288.999 419.42 C 289.195 419.229 289.413 419.19 289.566 419.19 C 289.722 419.19 289.952 419.233 290.144 419.436 L 299.855 429.612 C 305.988 436.038 314.207 440.264 323.003 441.507 L 367.894 447.862 L 290.97 546.05 Z M 603.47 216.31 C 602.419 220.654 598.103 224.13 591.622 225.857 C 586.864 227.119 581.313 228.22 575.946 229.287 C 559.403 232.568 545.118 235.404 540.618 243.822 C 539.544 245.833 538.626 248.052 537.653 250.4 C 533.677 259.982 530.446 266.002 522.337 265.377 C 520.56 265.232 518.783 265.053 517.025 264.881 C 512.954 264.478 508.744 264.056 504.744 264.056 C 496.732 264.056 485.392 265.572 479.412 278.665 C 478.146 281.435 477.076 283.955 476.103 286.236 C 471.529 296.974 470.064 299.853 463.501 301.474 C 453.618 303.911 448.571 302.376 441.677 294.579 C 435.841 287.982 426.275 283.716 417.302 283.716 C 409.669 283.716 403.021 286.595 398.072 292.044 L 397.459 292.72 C 386.842 304.388 361.982 331.708 384.967 370.392 C 393.861 385.365 400.588 396.439 404.955 403.306 C 406.65 405.974 407.092 409.24 406.166 412.267 L 397.22 441.537 C 397.131 441.842 396.849 441.978 396.627 441.978 L 384.744 440.303 L 384.283 440.236 C 391.201 425.283 391.884 408.279 386.013 392.572 C 381.638 380.865 377.99 372.197 375.173 366.802 C 369.056 355.099 363.107 335.814 360.806 328.13 L 365.607 326.337 C 370.662 324.451 373.279 318.786 371.443 313.716 C 365.744 297.954 363.037 286.708 376.771 274.493 C 380.404 271.259 384.685 268.532 389.494 266.388 L 410.279 257.107 C 412.135 256.278 414.017 255.505 415.927 254.794 L 571.327 196.806 C 579.269 193.845 589.776 197.236 599.921 206.388 C 602.98 209.15 604.308 212.857 603.472 216.31 L 603.47 216.31 Z"/>
</svg>