<?xml version="1.0" encoding="utf-8"?>
<svg fill="#000000" width="800px" height="800px" version="1.1" viewBox="144 144 512 512" xmlns="http://www.w3.org/2000/svg">
  <path d="M 597.68 237.16 L 586.59 204.328 L 588.516 197.172 C 589.246 194.457 588.684 191.621 586.977 189.391 C 585.27 187.156 582.676 185.875 579.875 185.875 L 540.125 188.668 C 533.848 189.113 527.836 190.77 522.258 193.59 C 512.395 198.578 493.27 209.309 476 225.102 L 462.766 240.856 C 459.946 244.227 456.254 246.75 452.086 248.153 L 417.539 259.774 C 415.199 260.559 413.246 262.289 412.187 264.52 C 411.129 266.754 411.019 269.36 411.891 271.668 L 414.906 280.246 L 380.136 292.723 C 377.343 293.723 374.675 295.079 372.206 296.751 L 361.276 304.169 C 356.804 307.2 350.717 307.427 346.034 304.723 L 341.402 302.048 C 339.929 301.196 338.253 300.747 336.558 300.747 C 332.296 300.747 328.573 303.477 327.296 307.544 L 307.191 371.556 C 305.226 377.817 305.933 384.673 309.136 390.361 C 314.082 399.15 324.632 415.799 339.718 428.545 C 345.804 433.681 354.23 439.65 363.257 445.615 L 367.495 448.393 C 367.495 448.393 393.073 464.307 402.503 469.807 C 394.593 471.623 384.401 473.873 377.843 474.978 C 375.07 475.447 372.476 476.678 370.335 478.529 L 352.769 493.744 C 352.496 493.983 352.187 494.158 351.843 494.276 L 318.554 505.671 C 317.234 506.12 315.82 506.241 314.441 506.022 L 297.015 503.213 C 293.382 502.631 289.617 502.698 286.007 503.405 L 238.21 512.819 C 230.558 514.327 224.105 519.155 220.503 526.073 L 216.488 533.78 C 212.757 540.94 211.933 549.155 214.179 556.913 L 217.667 568.979 C 217.866 569.663 217.792 570.385 217.464 571.018 C 215.007 575.733 208.878 587.272 205.011 592.561 C 203.757 594.276 202.831 596.084 202.261 597.917 C 201.078 601.713 201.734 605.702 204.058 608.866 C 206.476 612.151 210.339 614.116 214.39 614.116 C 217.035 614.116 219.589 613.276 221.781 611.686 C 231.41 604.698 250.59 590.53 270.871 574.147 C 281.039 565.936 289.68 558.479 297.305 551.901 C 310.196 540.78 320.379 531.995 325.805 530.424 C 333.48 528.201 348.828 523.971 355.364 522.17 C 356.672 521.811 358.063 521.729 359.414 521.943 L 409.312 529.858 C 417.754 531.178 425.488 525.486 426.949 517.311 L 432.203 487.893 C 432.922 483.885 436.969 482.455 439.903 483.65 L 449.094 487.389 C 450.332 487.893 451.633 488.146 452.957 488.146 C 457.727 488.146 461.832 484.908 462.938 480.268 L 503.02 312.708 C 504.469 309.075 521.129 269.239 557.524 256.946 L 587.653 253.137 C 591.293 252.676 594.504 250.629 596.454 247.52 C 598.407 244.418 598.852 240.641 597.68 237.165 L 597.68 237.16 Z M 587.875 242.141 C 587.68 242.449 587.231 242.984 586.383 243.09 L 555.762 246.961 L 554.809 247.176 C 511.856 261.352 494.168 307.461 493.434 309.418 L 452.911 478.008 L 443.72 474.269 C 441.809 473.492 439.809 473.097 437.767 473.097 C 430.11 473.097 423.576 478.574 422.228 486.113 L 416.974 515.527 C 416.474 518.352 413.806 520.328 410.896 519.852 L 360.997 511.938 C 358.212 511.504 355.365 511.66 352.669 512.402 C 346.107 514.207 330.696 518.461 322.985 520.691 C 315.431 522.875 305.587 531.371 290.68 544.226 C 283.114 550.754 274.535 558.152 264.5 566.261 C 244.398 582.499 225.379 596.55 215.828 603.48 C 214.625 604.359 213.024 603.957 212.215 602.859 C 211.793 602.289 211.7 601.656 211.93 600.922 C 212.168 600.152 212.59 599.348 213.184 598.539 C 217.309 592.902 223.262 581.809 226.442 575.703 C 227.981 572.754 228.321 569.363 227.395 566.164 L 223.907 554.098 C 222.391 548.852 222.946 543.297 225.465 538.457 L 229.481 530.75 C 231.657 526.582 235.551 523.664 240.169 522.754 L 287.962 513.34 C 289.306 513.078 290.681 512.945 292.052 512.945 C 293.173 512.945 294.298 513.035 295.407 513.211 L 312.833 516.019 C 315.864 516.5 318.954 516.238 321.837 515.254 L 355.118 503.859 C 356.7 503.32 358.145 502.492 359.407 501.394 L 376.969 486.179 C 377.708 485.538 378.594 485.116 379.532 484.96 C 386.758 483.741 398.071 481.222 406.286 479.323 C 410.114 478.437 412.969 475.359 413.555 471.468 C 414.141 467.581 412.329 463.796 408.93 461.82 C 395.305 453.894 361.918 434.031 346.25 420.8 C 332.375 409.085 322.57 393.585 317.961 385.394 C 316.125 382.132 315.719 378.194 316.852 374.593 L 336.797 311.089 L 340.969 313.499 C 348.953 318.104 359.336 317.721 366.961 312.553 L 377.887 305.135 C 379.648 303.94 381.551 302.975 383.551 302.26 L 418.321 289.783 C 420.946 288.842 423.036 286.928 424.208 284.401 C 425.379 281.865 425.485 279.033 424.5 276.416 L 421.723 269.045 L 455.309 257.748 C 461.247 255.748 466.508 252.158 470.528 247.353 L 483.075 232.349 C 499.387 217.497 517.47 207.361 526.821 202.63 C 531.192 200.419 535.907 199.122 540.837 198.771 L 578.306 196.111 L 576.81 201.689 C 576.302 203.575 576.365 205.552 576.99 207.411 L 588.084 240.384 C 588.353 241.189 588.072 241.826 587.877 242.134 L 587.875 242.141 Z"/>
</svg>