<?xml version="1.0" encoding="UTF-8"?>
<!-- Uploaded to: SVG Find, www.svgfind.com, Generator: SVG Find Mixer Tools -->
<svg fill="#000000" width="800px" height="800px" version="1.1" viewBox="144 144 512 512" xmlns="http://www.w3.org/2000/svg">
 <path d="m597.68 237.16-11.09-32.832 1.9258-7.1562c0.73047-2.7148 0.16797-5.5508-1.5391-7.7812-1.707-2.2344-4.3008-3.5156-7.1016-3.5156l-39.75 2.793c-6.2773 0.44531-12.289 2.1016-17.867 4.9219-9.8633 4.9883-28.988 15.719-46.258 31.512l-13.234 15.754c-2.8203 3.3711-6.5117 5.8945-10.68 7.2969l-34.547 11.621c-2.3398 0.78516-4.293 2.5156-5.3516 4.7461-1.0586 2.2344-1.168 4.8398-0.29688 7.1484l3.0156 8.5781-34.77 12.477c-2.793 1-5.4609 2.3555-7.9297 4.0273l-10.93 7.418c-4.4727 3.0312-10.559 3.2578-15.242 0.55469l-4.6328-2.6758c-1.4727-0.85156-3.1484-1.3008-4.8438-1.3008-4.2617 0-7.9844 2.7305-9.2617 6.7969l-20.105 64.012c-1.9648 6.2617-1.2578 13.117 1.9453 18.805 4.9453 8.7891 15.496 25.438 30.582 38.184 6.0859 5.1367 14.512 11.105 23.539 17.07l-2.918 4.293-35.961-24.422-9.6016-6.5195 6.7812 14.809 4.8945-0.75391 35.23 23.926 5.8125-8.5547c12.473 8.0781 25.578 15.914 35.008 21.414-7.9102 1.8164-18.102 4.0664-24.66 5.1719-2.7734 0.46875-5.3672 1.6992-7.5078 3.5508l-17.566 15.215c-0.27344 0.23828-0.58203 0.41406-0.92578 0.53125l-33.289 11.395c-1.3203 0.44922-2.7344 0.57031-4.1133 0.35156l-17.426-2.8086c-3.6328-0.58203-7.3984-0.51562-11.008 0.19141l-47.797 9.4141c-7.6523 1.5078-14.105 6.3359-17.707 13.254l-4.0156 7.707c-3.7305 7.1602-4.5547 15.375-2.3086 23.133l3.4883 12.066c0.19922 0.68359 0.125 1.4062-0.20312 2.0391-2.457 4.7148-8.5859 16.254-12.453 21.543-1.2539 1.7148-2.1797 3.5234-2.75 5.3555-1.1836 3.7969-0.52734 7.7852 1.7969 10.949 2.418 3.2852 6.2812 5.25 10.332 5.25 2.6445 0 5.1992-0.83984 7.3906-2.4297 9.6289-6.9883 28.809-21.156 49.09-37.539 10.168-8.2109 18.809-15.668 26.434-22.246 12.891-11.121 23.074-19.906 28.5-21.477 7.6758-2.2227 23.023-6.4531 29.559-8.2539 1.3086-0.35938 2.6992-0.44141 4.0508-0.22656l49.898 7.9141c8.4414 1.3203 16.176-4.3711 17.637-12.547l5.2539-29.418c0.71875-4.0078 4.7656-5.4375 7.6992-4.2422l9.1914 3.7383c1.2383 0.50391 2.5391 0.75781 3.8633 0.75781 4.7695 0 8.875-3.2383 9.9805-7.8789l40.082-167.56c1.4492-3.6328 18.109-43.469 54.504-55.762l30.129-3.8086c3.6406-0.46094 6.8516-2.5078 8.8008-5.6172 1.9531-3.1016 2.3984-6.8789 1.2266-10.355zm-9.8047 4.9805c-0.19531 0.30859-0.64453 0.84375-1.4922 0.94922l-30.621 3.8711-0.95312 0.21484c-42.953 14.176-60.641 60.285-61.375 62.242l-40.523 168.59-9.1914-3.7383c-1.9102-0.77734-3.9102-1.1719-5.9531-1.1719-7.6562 0-14.191 5.4766-15.539 13.016l-5.2539 29.414c-0.5 2.8242-3.168 4.8008-6.0781 4.3242l-49.898-7.9141c-2.7852-0.43359-5.6328-0.27734-8.3281 0.46484-6.5625 1.8047-21.973 6.0586-29.684 8.2891-7.5547 2.1836-17.398 10.68-32.305 23.535-7.5664 6.5273-16.145 13.926-26.18 22.035-20.102 16.238-39.121 30.289-48.672 37.219-1.2031 0.87891-2.8047 0.47656-3.6133-0.62109-0.42188-0.57031-0.51563-1.2031-0.28516-1.9375 0.23828-0.76953 0.66016-1.5742 1.2539-2.3828 4.125-5.6367 10.078-16.73 13.258-22.836 1.5391-2.9492 1.8789-6.3398 0.95312-9.5391l-3.4883-12.066c-1.5156-5.2461-0.96094-10.801 1.5586-15.641l4.0156-7.707c2.1758-4.168 6.0703-7.0859 10.688-7.9961l47.793-9.4141c1.3438-0.26172 2.7188-0.39453 4.0898-0.39453 1.1211 0 2.2461 0.089844 3.3555 0.26562l17.426 2.8086c3.0312 0.48047 6.1211 0.21875 9.0039-0.76562l33.281-11.395c1.582-0.53906 3.0273-1.3672 4.2891-2.4648l17.562-15.215c0.73828-0.64062 1.625-1.0625 2.5625-1.2188 7.2266-1.2188 18.539-3.7383 26.754-5.6367 3.8281-0.88672 6.6836-3.9648 7.2695-7.8555 0.58594-3.8867-1.2266-7.6719-4.625-9.6484-13.625-7.9258-47.012-27.789-62.68-41.02-13.875-11.715-23.68-27.215-28.289-35.406-1.8359-3.2617-2.2422-7.1992-1.1094-10.801l19.945-63.504 4.1719 2.4102c7.9844 4.6055 18.367 4.2227 25.992-0.94531l10.926-7.418c1.7617-1.1953 3.6641-2.1602 5.6641-2.875l34.77-12.477c2.625-0.94141 4.7148-2.8555 5.8867-5.3828 1.1719-2.5352 1.2773-5.3672 0.29297-7.9844l-2.7773-7.3711 33.586-11.297c5.9375-2 11.199-5.5898 15.219-10.395l12.547-15.004c16.312-14.852 34.395-24.988 43.746-29.719 4.3711-2.2109 9.0859-3.5078 14.016-3.8594l37.469-2.6602-1.4961 5.5781c-0.50781 1.8867-0.44531 3.8633 0.17969 5.7227l11.094 32.973c0.26953 0.80469-0.011719 1.4414-0.20703 1.75z"/>
</svg>