<?xml version="1.0" encoding="utf-8"?>
<svg fill="#000000" width="800px" height="800px" version="1.1" viewBox="144 144 512 512" xmlns="http://www.w3.org/2000/svg">
  <path d="M 610.39 265.46 C 606.726 258.901 599.773 254.823 592.245 254.823 C 586.987 254.823 581.964 256.807 578.104 260.409 L 514.834 319.487 C 509.189 324.756 500.951 326.745 493.518 324.608 C 485.014 322.163 479.924 313.213 482.151 304.717 L 496.823 251.405 C 499.475 241.768 500.245 231.843 499.12 221.905 C 496.823 201.663 479.679 186.397 459.237 186.397 C 449.385 186.397 440.225 189.94 432.745 196.639 L 254.335 356.439 C 247.714 362.369 242.581 369.4 239.077 377.337 C 235.639 385.13 227.694 404.884 228.167 419.86 C 228.225 421.673 228.315 423.559 228.444 425.477 C 229.784 446.508 221.718 466.641 206.303 480.715 L 201.729 484.895 C 185.905 499.356 181.362 522.934 190.682 542.235 L 220.026 603.008 C 223.186 609.547 229.667 613.606 236.936 613.606 C 240.815 613.606 244.549 612.418 247.737 610.168 L 402.134 501.18 C 408.587 496.629 412.872 489.535 413.911 481.711 C 414.946 473.883 412.638 465.914 407.599 459.844 L 380.177 426.84 C 371.724 416.664 371.407 402.199 379.403 391.664 L 423.298 333.879 C 426.623 329.504 431.888 326.895 437.376 326.895 L 438.181 326.91 C 444.06 327.176 449.122 331.356 450.509 337.074 L 465.075 397.379 C 467.141 405.95 474.766 411.938 483.606 411.938 C 488.544 411.938 493.235 410.02 496.809 406.536 L 605.199 300.986 C 614.742 291.701 616.871 277.095 610.383 265.466 L 610.39 265.46 Z M 598.148 293.722 L 489.758 399.272 C 487.61 401.362 485.235 401.799 483.617 401.799 C 480.231 401.799 476.063 399.67 474.93 394.995 L 460.364 334.69 C 457.93 324.616 449.001 317.252 438.645 316.784 C 429.606 316.342 420.723 320.53 415.239 327.745 L 371.344 385.526 C 360.469 399.835 360.899 419.483 372.383 433.307 L 399.809 466.311 C 403.098 470.272 404.543 475.268 403.868 480.373 C 403.196 485.478 400.504 489.923 396.293 492.893 L 241.893 601.893 C 237.655 604.869 231.37 603.197 229.151 598.6 L 199.807 537.83 C 192.421 522.529 196.022 503.834 208.569 492.373 L 213.143 488.193 C 230.831 472.033 240.088 448.939 238.557 424.818 C 238.44 423.005 238.35 421.236 238.296 419.537 C 238.014 410.584 241.772 396.334 248.347 381.42 C 251.261 374.81 255.55 368.943 261.089 363.982 L 439.499 204.182 C 445.092 199.174 451.917 196.521 459.233 196.521 C 472.229 196.521 487.096 205.814 489.053 223.037 C 490.033 231.686 489.361 240.322 487.053 248.709 L 472.365 302.088 C 468.744 315.924 476.974 330.393 490.72 334.346 C 501.556 337.464 513.521 334.573 521.755 326.897 L 585.025 267.819 C 586.997 265.975 589.568 264.96 592.247 264.96 C 596.165 264.96 599.642 266.995 601.548 270.405 C 605.806 278.03 604.408 287.624 598.15 293.721 L 598.148 293.722 Z"/>
</svg>