<?xml version="1.0" encoding="utf-8"?>
<svg fill="#000000" width="800px" height="800px" version="1.1" viewBox="144 144 512 512" xmlns="http://www.w3.org/2000/svg">
  <path d="M 609.71 194.28 C 608.019 188.303 601.448 184.592 595.421 186.299 L 248.491 284.632 C 241.921 286.491 235.69 289.331 229.968 293.073 C 227.339 294.796 225.632 297.569 225.281 300.69 C 224.929 303.815 225.984 306.901 228.167 309.159 L 234.241 315.444 C 235.183 316.417 235.265 317.948 234.433 319.003 C 229.394 325.382 219.593 338.538 210.621 354.952 C 202.902 369.069 198.332 384.475 197.027 400.741 L 190.289 485.081 C 189.429 495.815 189.867 506.651 191.593 517.296 L 205.198 601.155 C 206.183 607.221 211.362 611.62 217.514 611.62 C 220.003 611.62 222.42 610.87 224.503 609.452 L 230.042 605.858 L 234.069 610.514 C 236.046 612.807 238.921 614.12 241.948 614.12 C 244.225 614.12 246.393 613.393 248.213 612.022 L 278.275 589.377 C 280.471 587.725 281.861 585.205 282.092 582.471 C 282.326 579.736 281.381 577.021 279.502 575.029 L 225.518 517.611 C 224.397 516.416 223.553 514.967 223.088 513.428 C 221.237 507.303 217.51 490.748 222.913 469.252 C 223.311 467.658 224.135 466.138 225.291 464.853 L 243.189 444.923 C 243.58 444.49 243.936 444.677 244.154 444.904 L 264.361 465.631 C 266.182 467.498 268.721 468.568 271.326 468.568 L 271.33 468.568 C 273.416 468.568 275.408 467.912 277.088 466.678 L 303.916 446.971 C 306.115 445.354 307.537 442.873 307.826 440.158 C 308.115 437.443 307.24 434.717 305.428 432.678 L 249.354 369.549 C 248.682 368.791 248.518 367.709 248.932 366.787 L 270.76 318.603 C 272.686 314.357 276.654 312.841 279.729 312.841 C 282.522 312.841 285.096 313.994 286.979 316.087 L 391.569 432.217 C 394.635 435.624 399.022 437.577 403.604 437.577 C 408.33 437.577 412.811 435.522 415.889 431.936 L 451.69 390.272 C 458.322 382.553 460.67 372.081 457.967 362.26 C 451.389 338.369 450.943 326.28 452.568 323.182 C 457.518 313.721 463.42 305.381 485.584 299.096 C 506.166 293.264 516.1 285.049 524.08 278.451 C 525.424 277.342 526.725 276.268 528.03 275.244 C 535.526 269.373 560.253 246.408 570.538 236.81 C 573.479 234.064 574.627 229.955 573.53 226.076 L 571.155 217.693 L 571.463 217.143 L 601.736 208.565 C 607.865 206.822 611.447 200.412 609.709 194.276 L 609.71 194.28 Z M 598.937 198.714 L 568.667 207.292 C 565.917 208.069 563.636 209.874 562.245 212.37 C 560.851 214.866 560.515 217.753 561.296 220.499 L 563.546 229.331 C 555.601 236.749 529.093 261.413 521.714 267.19 C 520.339 268.264 518.972 269.397 517.558 270.565 C 509.94 276.862 501.304 284.003 482.792 289.253 C 459.304 295.909 450.343 305.358 443.495 318.444 C 442.163 320.987 438.108 328.729 448.096 364.995 C 449.893 371.522 448.338 378.479 443.928 383.608 L 408.123 425.276 C 405.865 427.905 401.51 427.963 399.19 425.377 L 294.584 309.236 C 290.733 304.955 285.452 302.6 279.721 302.6 C 271.725 302.6 264.713 307.111 261.42 314.377 L 239.592 362.561 C 237.51 367.162 238.331 372.573 241.682 376.35 L 297.373 439.049 L 271.373 458.151 L 251.482 437.749 C 247.252 433.405 239.607 433.569 235.556 438.073 L 217.654 458.007 C 215.393 460.53 213.768 463.554 212.963 466.753 C 207.15 489.87 210.658 507.776 213.268 516.398 C 214.189 519.441 215.838 522.289 218.037 524.628 L 271.592 581.585 L 242.045 603.839 C 242.022 603.859 241.994 603.875 241.943 603.875 L 237.787 599.156 C 235.807 596.867 232.936 595.554 229.904 595.554 C 227.807 595.554 225.779 596.179 224.045 597.359 L 218.729 600.98 C 217.514 601.816 215.596 601.285 215.307 599.511 L 201.705 515.652 C 200.107 505.824 199.705 495.812 200.498 485.894 L 207.236 401.554 C 208.42 386.734 212.584 372.71 219.607 359.863 C 228.22 344.109 237.63 331.48 242.47 325.355 C 246.474 320.289 246.099 312.968 241.603 308.32 L 235.568 301.644 C 240.423 298.472 245.709 296.062 251.275 294.484 L 598.575 196.105 C 599.059 196.105 599.664 196.41 599.852 197.07 C 600.051 197.777 599.641 198.515 598.938 198.715 L 598.937 198.714 Z"/>
</svg>