<?xml version="1.0" encoding="utf-8"?>
<svg fill="#000000" width="800px" height="800px" version="1.1" viewBox="144 144 512 512" xmlns="http://www.w3.org/2000/svg">
  <path d="M 593.08 466.09 C 587.521 455.856 576.838 449.5 565.197 449.5 C 559.338 449.5 553.592 451.137 548.58 454.238 C 519.471 472.242 471.728 501.761 461.244 508.172 L 460.744 508.477 C 452.264 513.661 442.654 519.532 435.834 519.532 C 433.193 519.532 430.131 518.825 427.432 513.563 C 424.369 507.587 426.272 500.903 433.084 493.696 C 435.647 490.985 436.967 487.45 436.795 483.743 C 436.627 480.075 435.014 476.72 432.252 474.294 C 419.15 462.778 386.576 433.579 367.15 411.239 C 342.205 382.551 310.763 315.341 305.927 302.109 C 305.384 300.628 304.696 298.914 303.939 297.027 C 296.743 279.129 291.025 260.941 306.591 252.449 C 310.45 250.343 314.259 249.273 317.907 249.273 C 330.755 249.273 341.118 262.48 347.548 273.554 C 348.65 275.449 349.833 277.71 351.138 280.187 C 359.45 295.999 372.013 319.898 395.724 319.898 C 400.708 319.898 405.235 317.851 408.814 313.98 C 423.255 298.355 420.259 254.71 419.865 249.707 C 418.798 238.477 413.634 226.539 409.494 218.504 C 405.935 211.594 399.217 206.703 391.533 205.422 C 365.787 201.125 320.849 192.914 287.683 186.777 C 267.621 183.07 247.542 190.968 235.308 207.183 C 225.152 220.64 221.992 237.691 226.632 253.956 C 235.011 283.315 240.155 301.081 242.359 308.268 C 249.558 331.791 275.976 356.975 298.964 371.495 C 324.886 387.866 329.499 417.386 330.276 429.319 C 331.588 449.424 335.92 476.682 357.944 509.28 C 368.737 525.249 377.788 533.237 385.065 539.651 C 392.225 545.963 397.397 550.526 401.295 560.276 C 403.045 564.651 402.982 568.346 401.104 571.585 C 398.967 575.265 395.041 577.46 390.604 577.46 C 387.002 577.46 383.654 576.042 381.182 573.464 L 348.061 538.999 C 340.799 531.444 328.627 529.331 319.221 534.022 L 303.1 542.085 C 292.803 547.233 281.229 549.784 269.686 549.483 L 212.913 547.897 L 212.229 547.889 C 200.795 547.889 191.038 555.678 188.495 566.83 L 187.624 570.717 C 185.968 577.979 187.686 585.483 192.331 591.307 C 196.975 597.127 203.909 600.467 211.358 600.467 L 534.092 600.464 C 581.701 600.464 607.42 577.284 612.721 529.597 C 614.389 514.535 607.776 493.167 593.069 466.089 L 593.08 466.09 Z M 602.783 528.492 C 599.576 557.34 588.873 590.453 534.103 590.453 L 211.353 590.457 C 206.97 590.457 202.884 588.492 200.15 585.062 C 197.416 581.633 196.404 577.219 197.381 572.937 L 198.263 569.051 C 199.76 562.488 205.498 557.903 212.626 557.903 L 212.642 557.903 L 269.415 559.489 C 282.606 559.864 295.825 556.918 307.587 551.039 L 323.708 542.977 C 329.298 540.184 336.536 541.442 340.853 545.934 L 373.974 580.399 C 378.29 584.891 384.357 587.469 390.615 587.469 C 398.662 587.469 405.826 583.407 409.771 576.606 C 413.201 570.704 413.486 563.77 410.599 556.555 C 405.814 544.594 399.271 538.825 391.697 532.141 C 384.49 525.786 376.322 518.582 366.248 503.668 C 345.568 473.059 341.502 447.504 340.275 428.66 C 339.396 415.199 334.135 381.855 304.322 363.023 C 278.978 347.015 257.439 323.296 251.939 305.332 C 249.787 298.305 244.513 280.098 236.267 251.203 C 232.498 237.984 235.064 224.133 243.306 213.207 C 253.263 200.008 269.513 193.59 285.876 196.617 C 319.079 202.758 364.079 210.984 389.896 215.289 C 394.482 216.055 398.482 218.969 400.603 223.082 C 404.338 230.336 408.99 241.008 409.9 250.57 C 410.861 262.738 411.221 296.632 401.471 307.183 C 399.767 309.027 397.943 309.886 395.728 309.886 C 378.064 309.886 367.193 289.21 359.998 275.527 C 358.623 272.91 357.366 270.523 356.205 268.527 C 340.83 242.039 321.096 233.125 301.795 243.656 C 277.115 257.121 288.955 286.594 294.647 300.754 C 295.362 302.532 296.014 304.145 296.522 305.543 C 301.487 319.113 333.823 388.168 359.592 417.793 C 379.416 440.59 412.385 470.145 425.639 481.797 C 426.338 482.415 426.748 483.262 426.791 484.192 C 426.838 485.157 426.487 486.086 425.807 486.805 C 416.045 497.125 413.463 508.246 418.522 518.117 C 423.358 527.547 430.604 529.527 435.827 529.527 C 445.463 529.527 455.882 523.16 465.956 517.004 L 466.456 516.699 C 476.948 510.289 524.714 480.754 553.839 462.738 C 557.268 460.613 561.194 459.496 565.191 459.496 C 573.155 459.496 580.472 463.848 584.277 470.855 C 597.8 495.757 604.195 515.683 602.777 528.488 L 602.783 528.492 Z"/>
</svg>